<svg viewBox="0 0 32 32" fill="none" xmlns="http://www.w3.org/2000/svg"><path d="M5.681 10.962a2 2 0 012-2h1.761a2 2 0 012 2v2h-5.76v-2z" fill="#2A5275" stroke="#0E1821" stroke-width=".48"/><path d="M14.483 12.402c0-.574.466-1.04 1.04-1.04h.96c.575 0 1.04.466 1.04 1.04v1.04h-3.04v-1.04z" fill="#4878A6" stroke="#0E1821" stroke-width=".48"/><path d="M20.564 10.962a2 2 0 012-2h1.76a2 2 0 012.001 2v2h-5.76v-2z" fill="#2A5275" stroke="#0E1821" stroke-width=".48"/><path d="M2.24 26.377v-7.86c0-4.144 3.2-8.313 7.202-7.235.917.247 1.801.79 2.444 1.26.67.49 1.46.82 2.289.82h3.657c.829 0 1.62-.33 2.289-.82.642-.47 1.527-1.013 2.444-1.26 4.002-1.078 7.201 3.091 7.201 7.236v7.858a3.87 3.87 0 01-3.87 3.87 4.837 4.837 0 01-4.288-2.6l-1.844-3.535a2.283 2.283 0 00-2.024-1.227h-3.473c-.851 0-1.631.473-2.024 1.227l-1.845 3.535a4.837 4.837 0 01-4.288 2.6 3.87 3.87 0 01-3.87-3.87z" fill="#fff" stroke="#0E1821" stroke-width=".48" stroke-linecap="round" stroke-linejoin="round"/><path d="M12.803 17.523a4.32 4.32 0 11-8.642 0 4.32 4.32 0 018.642 0zm-6.51 0a2.19 2.19 0 104.378 0 2.19 2.19 0 00-4.378 0z" fill="#2A5275"/><circle cx="8.482" cy="17.523" r="2.16" stroke="#0E1821" stroke-width=".48"/><circle cx="8.482" cy="17.523" r="4.401" stroke="#0E1821" stroke-width=".48"/><circle cx="20.325" cy="17.523" r="1.36" fill="#F15152" stroke="#0E1821" stroke-width=".48"/><circle cx="23.445" cy="20.644" r="1.36" transform="rotate(-90 23.445 20.644)" fill="#F15152" stroke="#0E1821" stroke-width=".48"/><circle cx="26.565" cy="17.523" r="1.36" fill="#F15152" stroke="#0E1821" stroke-width=".48"/><circle cx="23.445" cy="14.403" r="1.36" transform="rotate(-90 23.445 14.403)" fill="#F15152" stroke="#0E1821" stroke-width=".48"/><path d="M16.003 11.362v-1.84a1.6 1.6 0 011.6-1.6h3.001a1.56 1.56 0 001.56-1.56v0a1.56 1.56 0 00-1.56-1.561h-3a1.6 1.6 0 01-1.6-1.6V1.76" stroke="#0E1821" stroke-width=".48" stroke-linecap="round" stroke-linejoin="round"/><path stroke="#0E1821" stroke-width=".48" stroke-linecap="round" d="M14.963 16.083h2.081m-3.041 4.801h1.12m1.761 0h1.12"/></svg>