<svg viewBox="0 0 32 32" fill="none" xmlns="http://www.w3.org/2000/svg"><rect x="5.841" y="4.401" width="20.324" height="23.045" rx="3.281" fill="#4878A6" stroke="#0E1821" stroke-width=".48"/><rect x="7.762" y="6.001" width="16.483" height="19.684" rx="1.68" fill="#fff" stroke="#0E1821" stroke-width=".48"/><path d="M15.13 8.127a.175.175 0 01.169-.126h1.408a.177.177 0 01.174.149.174.174 0 01-.007.082l-.627 1.87h1.34a.178.178 0 01.158.098.174.174 0 01-.019.184l-2.464 3.15a.176.176 0 01-.308-.158l.634-2.05h-1.17a.177.177 0 01-.173-.143.175.175 0 01.005-.08l.88-2.976zm.3.224l-.776 2.626h1.173a.176.176 0 01.168.226l-.422 1.363 1.654-2.114h-1.224a.179.179 0 01-.143-.073.174.174 0 01-.024-.158l.627-1.87H15.43z" fill="#F15152"/><circle cx="11.842" cy="17.603" r="1.2" fill="#FBB13C" stroke="#0E1821" stroke-width=".48"/><circle cx="11.842" cy="21.764" r="1.2" fill="#FBB13C" stroke="#0E1821" stroke-width=".48"/><circle cx="16.003" cy="17.603" r="1.2" fill="#FBB13C" stroke="#0E1821" stroke-width=".48"/><circle cx="16.003" cy="21.764" r="1.2" fill="#FBB13C" stroke="#0E1821" stroke-width=".48"/><circle cx="20.164" cy="17.603" r="1.2" fill="#FBB13C" stroke="#0E1821" stroke-width=".48"/><circle cx="20.164" cy="21.764" r="1.2" fill="#FBB13C" stroke="#0E1821" stroke-width=".48"/><path d="M10.403 1.521A1.36 1.36 0 0111.742.4h8.362a1.36 1.36 0 011.34 1.121l.514 2.88H9.887l.515-2.88zm0 28.804a1.36 1.36 0 001.339 1.121h8.362a1.36 1.36 0 001.34-1.121l.514-2.88H9.887l.515 2.88z" fill="#2A5275" stroke="#0E1821" stroke-width=".48"/></svg>