<svg viewBox="0 0 32 32" fill="none" xmlns="http://www.w3.org/2000/svg"><path d="M8.802 25.605a4.32 4.32 0 11-8.642 0 4.32 4.32 0 018.642 0zm-6.557 0a2.236 2.236 0 104.472 0 2.236 2.236 0 00-4.472 0z" fill="#0E1821"/><circle cx="4.481" cy="25.605" r="2.16" stroke="#0E1821" stroke-width=".48"/><circle cx="4.481" cy="25.605" r="4.081" stroke="#0E1821" stroke-width=".48"/><path d="M31.846 25.605a4.32 4.32 0 11-8.641 0 4.32 4.32 0 018.642 0zm-6.556 0a2.236 2.236 0 104.472 0 2.236 2.236 0 00-4.472 0z" fill="#0E1821"/><circle cx="27.526" cy="25.605" r="2.16" stroke="#0E1821" stroke-width=".48"/><circle cx="27.526" cy="25.605" r="4.081" stroke="#0E1821" stroke-width=".48"/><path d="M22.245 22.564H10.402l.24 3.121h9.042l2.56-3.12z" fill="#F15152" stroke="#0E1821" stroke-width=".48" stroke-linecap="round" stroke-linejoin="round"/><path d="M4.834 18.651l.01.002h.01a6.964 6.964 0 016.514 5.93c.06.41-.281.782-.745.782-.444 0-.831-.37-.935-.862a5.323 5.323 0 00-5.205-4.22l-2.799-.04h0-.003a.8.8 0 110-1.6h3.04c.039 0 .076.003.113.008z" fill="#2A5275" stroke="#0E1821" stroke-width=".48"/><path d="M23.293 3.96l-.034-.2h-1.894V2.64h2.64c.1 0 .185.06.222.147l1.244 7.22-1.121.19-1.057-6.237z" fill="#4878A6" stroke="#0E1821" stroke-width=".48"/><mask id="path-10-inside-1_18_17" fill="#fff"><path fill-rule="evenodd" clip-rule="evenodd" d="M26.5 16.356a1.112 1.112 0 00-1.552.256l-5.645 7.873H4.641a1.12 1.12 0 100 2.24h15.203c.331 0 .628-.143.833-.371.05-.047.095-.1.136-.157l5.943-8.288c.358-.5.244-1.195-.256-1.553z"/></mask><path fill-rule="evenodd" clip-rule="evenodd" d="M26.5 16.356a1.112 1.112 0 00-1.552.256l-5.645 7.873H4.641a1.12 1.12 0 100 2.24h15.203c.331 0 .628-.143.833-.371.05-.047.095-.1.136-.157l5.943-8.288c.358-.5.244-1.195-.256-1.553z" fill="#4878A6"/><path d="M24.948 16.612l-.39-.28.39.28zm1.552-.256l.28-.39-.28.39zm-7.197 8.129v.48h.247l.144-.2-.39-.28zm-14.662 0v-.48.48zm16.036 1.869l-.331-.347-.014.012-.012.014.357.32zm.136-.157l-.39-.28.39.28zm5.943-8.288l.39.28-.39-.28zm-1.418-1.017a.632.632 0 01.883-.146l.56-.78a1.593 1.593 0 00-2.223.366l.78.56zm-5.644 7.872l5.644-7.872-.78-.56-5.645 7.873.78.56zm-15.053.2h14.662v-.96H4.641v.96zm-.64.64a.64.64 0 01.64-.64v-.96a1.6 1.6 0 00-1.6 1.6H4zm.64.641a.64.64 0 01-.64-.64h-.96a1.6 1.6 0 001.6 1.6v-.96zm15.203 0H4.641v.96h15.203v-.96zm.476-.212a.637.637 0 01-.476.212v.96c.473 0 .898-.205 1.19-.53l-.714-.642zm.103-.116a.637.637 0 01-.077.09l.663.694a1.75 1.75 0 00.195-.224l-.78-.56zm5.943-8.288l-5.943 8.288.78.56 5.943-8.289-.78-.56zm-.145-.883a.632.632 0 01.145.883l.78.56a1.593 1.593 0 00-.366-2.223l-.56.78z" fill="#0E1821" mask="url(#path-10-inside-1_18_17)"/><rect x="24.026" y="10.092" width="1.745" height="16.455" rx=".872" transform="rotate(-9.618 24.026 10.092)" fill="#4878A6" stroke="#0E1821" stroke-width=".48"/><rect x="21.364" y="2.32" width="1.76" height="4.641" rx=".88" transform="rotate(90 21.364 2.32)" fill="#2A5275" stroke="#0E1821" stroke-width=".48"/><path d="M26.006 2.8l-1.6.88.4 2.48h1.76l-.56-3.36z" fill="#4878A6" stroke="#0E1821" stroke-width=".48" stroke-linecap="round" stroke-linejoin="round"/><path fill-rule="evenodd" clip-rule="evenodd" d="M26.473 5.6l-.337-2.02a1.04 1.04 0 11.337 2.02z" fill="#FBB13C"/><path d="M26.473 5.6l-.237.04.033.198.2.003.004-.24zm-.337-2.02l-.08-.225-.19.067.033.198.237-.04zm.574 1.981l-.337-2.02-.474.08.337 2.02.474-.08zm-.493-1.754a.798.798 0 01.269-.047v-.48c-.15 0-.296.026-.43.075l.16.452zm.269-.047a.8.8 0 01.8.8h.48a1.28 1.28 0 00-1.28-1.28v.48zm.8.8a.8.8 0 01-.8.8v.48a1.28 1.28 0 001.28-1.28h-.48zm-.8.8h-.01l-.006.48h.016v-.48z" fill="#0E1821"/><circle cx="16.003" cy="15.203" r="5.521" fill="#fff" stroke="#0E1821" stroke-width=".48"/><path d="M14.733 11.385a.255.255 0 01.246-.183h2.048a.255.255 0 01.243.336l-.911 2.725h1.949a.257.257 0 01.23.143.255.255 0 01-.028.268l-3.585 4.59a.256.256 0 01-.447-.23l.923-2.986h-1.702a.257.257 0 01-.246-.327l1.28-4.336zm.438.327l-1.13 3.826h1.706a.258.258 0 01.206.103.254.254 0 01.039.227l-.613 1.986 2.405-3.081h-1.78a.257.257 0 01-.254-.217.254.254 0 01.01-.119l.912-2.725h-1.501z" fill="#F15152"/></svg>