<svg viewBox="0 0 32 32" fill="none" xmlns="http://www.w3.org/2000/svg"><path d="M.96 18.403h9.042v5.042h-.8a2.08 2.08 0 01-2.08-2.081 1.04 1.04 0 00-1.041-1.04h-4.32a1.28 1.28 0 01-1.281-1.28v-.16a.48.48 0 01.48-.48zm30.086 0h-9.041v5.042h.8a2.08 2.08 0 002.08-2.081c0-.574.466-1.04 1.04-1.04h4.321a1.28 1.28 0 001.28-1.28v-.16a.48.48 0 00-.48-.48z" fill="#2A5275" stroke="#0E1821" stroke-width=".48" stroke-linecap="round" stroke-linejoin="round"/><rect x="13.603" y="16.723" width="4.801" height="13.603" rx="2.4" fill="#0E1821" stroke="#0E1821" stroke-width=".48"/><path d="M10.962 25.605c-1.227-2.547-2.24-6.322-2.24-10.096 0-7.859 3.26-14.229 7.281-14.229 4.022 0 7.282 6.37 7.282 14.229 0 3.866-.96 7.532-2.24 10.096" stroke="#0E1821" stroke-width=".48"/><path d="M8.642 15.523c0-4.8 1.277-9.014 3.2-11.534v21.136a.56.56 0 01-1.045.275c-1.328-2.53-2.155-6.017-2.155-9.877zm11.523 9.602V3.989c1.923 2.52 3.2 6.734 3.2 11.534 0 3.86-.827 7.347-2.155 9.877a.56.56 0 01-1.045-.275z" fill="#4878A6" stroke="#0E1821" stroke-width=".48"/><path d="M14.813 6.264a.254.254 0 01.246-.183h2.049a.257.257 0 01.252.217c.007.04.003.08-.01.119l-.911 2.725h1.949a.256.256 0 01.255.28.255.255 0 01-.053.131l-3.585 4.59a.256.256 0 01-.447-.23l.923-2.986h-1.702a.257.257 0 01-.246-.327l1.28-4.336zm.438.327l-1.13 3.826h1.706a.258.258 0 01.253.212c.007.04.004.08-.008.118l-.613 1.985 2.405-3.08h-1.78a.257.257 0 01-.253-.217.254.254 0 01.01-.119l.911-2.725h-1.501z" fill="#F15152"/></svg>