<svg viewBox="0 0 32 32" fill="none" xmlns="http://www.w3.org/2000/svg"><g clip-path="url(#clip0_18_560)"><path fill="#4878A6" stroke="#070C11" stroke-width=".464" d="M15.285 2.717h1.501v17.497h-1.501z"/><rect x="2.657" y="19.837" width="4.167" height="11.884" rx="2.083" fill="#070C11" stroke="#070C11" stroke-width=".464"/><mask id="path-3-inside-1_18_560" fill="#fff"><path fill-rule="evenodd" clip-rule="evenodd" d="M7.055 26.34h-1.4a1.546 1.546 0 01-1.547-1.546V19.69a2.316 2.316 0 012.947 2.229v4.42z"/></mask><path fill-rule="evenodd" clip-rule="evenodd" d="M7.055 26.34h-1.4a1.546 1.546 0 01-1.547-1.546V19.69a2.316 2.316 0 012.947 2.229v4.42z" fill="#fff"/><path d="M7.055 26.34v.463h.464v-.463h-.464zm-2.947-6.65l-.126-.446-.337.096v.35h.463zm2.947 6.185h-1.4v.927h1.4v-.927zm-1.4 0a1.082 1.082 0 01-1.083-1.082h-.927c0 1.11.9 2.01 2.01 2.01v-.928zm-1.083-1.082V19.69h-.927v5.103h.927zm-.337-4.656c.16-.046.33-.07.505-.07v-.928a2.78 2.78 0 00-.758.105l.253.893zm.505-.07a1.85 1.85 0 011.851 1.851h.928A2.779 2.779 0 004.74 19.14v.928zm1.851 1.851v4.42h.928v-4.42h-.928z" fill="#070C11" mask="url(#path-3-inside-1_18_560)"/><rect x="25.388" y="19.836" width="4.167" height="11.884" rx="2.083" fill="#070C11" stroke="#070C11" stroke-width=".464"/><mask id="path-6-inside-2_18_560" fill="#fff"><path fill-rule="evenodd" clip-rule="evenodd" d="M25.156 26.34h1.401c.854 0 1.546-.693 1.546-1.546V19.69a2.317 2.317 0 00-2.947 2.228v4.42z"/></mask><path fill-rule="evenodd" clip-rule="evenodd" d="M25.156 26.34h1.401c.854 0 1.546-.693 1.546-1.546V19.69a2.317 2.317 0 00-2.947 2.228v4.42z" fill="#fff"/><path d="M25.156 26.34v.463h-.463v-.463h.463zm2.947-6.649l.126-.446.338.095v.351h-.464zm-2.947 6.185h1.401v.927h-1.4v-.927zm1.401 0c.598 0 1.082-.485 1.082-1.082h.928c0 1.11-.9 2.01-2.01 2.01v-.928zm1.082-1.082V19.69h.928v5.103h-.928zm.338-4.656a1.83 1.83 0 00-.506-.07v-.928c.262 0 .517.037.758.105l-.252.893zm-.506-.07a1.852 1.852 0 00-1.851 1.851h-.928a2.779 2.779 0 012.78-2.779v.928zm-1.851 1.851v4.42h-.928v-4.42h.928z" fill="#070C11" mask="url(#path-6-inside-2_18_560)"/><path stroke="#070C11" stroke-width=".464" d="M6.634 28.213h18.663"/><mask id="path-9-inside-3_18_560" fill="#fff"><path fill-rule="evenodd" clip-rule="evenodd" d="M16.036 19.745a2.105 2.105 0 00-2.105 2.104v1.684H6.634v2.807h18.943v-2.807H18.14V21.85a2.105 2.105 0 00-2.104-2.104z"/></mask><path fill-rule="evenodd" clip-rule="evenodd" d="M16.036 19.745a2.105 2.105 0 00-2.105 2.104v1.684H6.634v2.807h18.943v-2.807H18.14V21.85a2.105 2.105 0 00-2.104-2.104z" fill="#2A5275"/><path d="M13.93 23.533v.464h.465v-.464h-.464zm-7.296 0v-.463h-.463v.463h.463zm0 2.807h-.463v.463h.463v-.463zm18.943 0v.463h.464v-.463h-.464zm0-2.807h.464v-.463h-.464v.463zm-7.437 0h-.463v.464h.463v-.464zm-3.745-1.684c0-.906.734-1.64 1.64-1.64v-.928a2.569 2.569 0 00-2.568 2.568h.928zm0 1.684V21.85h-.928v1.684h.928zm-7.76.464h7.296v-.927H6.634v.927zm.463 2.343v-2.807h-.927v2.807h.927zm18.48-.464H6.633v.927h18.943v-.927zm-.464-2.343v2.807h.927v-2.807h-.927zm-6.974.464h7.437v-.927H18.14v.927zm-.463-2.148v1.684h.927V21.85h-.927zm-1.641-1.64c.906 0 1.64.734 1.64 1.64h.928a2.569 2.569 0 00-2.568-2.568v.927z" fill="#070C11" mask="url(#path-9-inside-3_18_560)"/><rect x="9.111" y=".893" width="13.849" height="1.08" rx=".54" fill="#4878A6" stroke="#070C11" stroke-width=".464"/><rect x="13.461" y=".191" width="5.149" height="2.483" rx="1.241" fill="#F15152" stroke="#070C11" stroke-width=".464"/><circle cx="15.895" cy="11.325" r="1.733" fill="#F15152" stroke="#070C11" stroke-width=".464"/><path fill="#fff" stroke="#070C11" stroke-width=".464" d="M6.831 26.048h18.551v2.164H6.831z"/></g><defs><clipPath id="clip0_18_560"><path fill="#fff" d="M0 0h32v32H0z"/></clipPath></defs></svg>