<svg viewBox="0 0 32 32" fill="none" xmlns="http://www.w3.org/2000/svg"><g clip-path="url(#clip0_217_8828)"><path d="M8.706 22.778c.511.26 1.774.474 2.73-.763" stroke="#000" stroke-width=".48"/><rect x="9.937" y="20.221" width="11.84" height="3.36" rx="1.04" transform="rotate(-30 9.937 20.22)" fill="#F15152" stroke="#0E1821" stroke-width=".48"/><path d="M24.552 13.694l-.628-1.087a.64.64 0 01.235-.874l2.633-1.52a.64.64 0 01.874.234l.627 1.087a.64.64 0 01.064.486l-.556 2.076a.64.64 0 01-.784.452l-2.076-.556a.64.64 0 01-.389-.298zM5.434 24.74l-.631-1.093a.64.64 0 01.234-.874l2.494-1.44a.64.64 0 01.874.234l.631 1.093a.64.64 0 01.067.474l-.5 2.015a.64.64 0 01-.798.461l-1.994-.575a.64.64 0 01-.377-.295z" fill="#fff" stroke="#0E1821" stroke-width=".48"/><path d="M30.133 7.36L1.034 24.16a.64.64 0 00.64 1.108l.79-.455a7.702 7.702 0 012.181-.849l.144-.032a8.66 8.66 0 002.453-.954l18.763-10.833a8.656 8.656 0 002.053-1.647l.1-.109a7.7 7.7 0 011.825-1.465l.79-.455a.64.64 0 00-.64-1.109z" fill="#4878A6" stroke="#0E1821" stroke-width=".48"/><circle cx="28.38" cy="16.008" r="1.362" transform="rotate(-30 28.38 16.008)" fill="#fff"/><mask id="path-7-inside-1_217_8828" fill="#fff"><path d="M31.244 14.355a3.307 3.307 0 11-5.727 3.306 3.307 3.307 0 015.727-3.306zm-3.795 2.191a1.076 1.076 0 101.863-1.076 1.076 1.076 0 00-1.863 1.076z"/></mask><path d="M31.244 14.355a3.307 3.307 0 11-5.727 3.306 3.307 3.307 0 015.727-3.306zm-3.795 2.191a1.076 1.076 0 101.863-1.076 1.076 1.076 0 00-1.863 1.076z" fill="#0E1821" stroke="#0E1821" stroke-width=".96" mask="url(#path-7-inside-1_217_8828)"/><circle cx="9.177" cy="27.095" r="1.362" transform="rotate(-30 9.177 27.095)" fill="#fff"/><mask id="path-9-inside-2_217_8828" fill="#fff"><path d="M12.04 25.442a3.307 3.307 0 11-5.726 3.307 3.307 3.307 0 015.727-3.307zm-3.795 2.191a1.076 1.076 0 101.864-1.076 1.076 1.076 0 00-1.864 1.076z"/></mask><path d="M12.04 25.442a3.307 3.307 0 11-5.726 3.307 3.307 3.307 0 015.727-3.307zm-3.795 2.191a1.076 1.076 0 101.864-1.076 1.076 1.076 0 00-1.864 1.076z" fill="#0E1821" stroke="#0E1821" stroke-width=".96" mask="url(#path-9-inside-2_217_8828)"/><circle cx="9.12" cy="8.32" r="5.52" fill="#fff" stroke="#0E1821" stroke-width=".48"/><path d="M7.85 4.503a.255.255 0 01.246-.183h2.048a.257.257 0 01.253.217c.006.04.002.08-.01.119L9.475 7.38h1.949a.256.256 0 01.255.281.254.254 0 01-.053.13l-3.584 4.59a.257.257 0 01-.438-.058.254.254 0 01-.009-.173l.922-2.985h-1.7a.257.257 0 01-.253-.21.254.254 0 01.006-.117l1.28-4.335zm.438.327l-1.13 3.825h1.706a.257.257 0 01.252.212c.007.04.005.08-.007.118l-.614 1.985 2.406-3.08H9.12a.257.257 0 01-.253-.217.254.254 0 01.01-.119L9.79 4.83H8.288z" fill="#F15152"/></g><defs><clipPath id="clip0_217_8828"><path fill="#fff" d="M0 0h32v32H0z"/></clipPath></defs></svg>