<svg viewBox="0 0 32 32" fill="none" xmlns="http://www.w3.org/2000/svg"><rect x="2.32" y="24.405" width="27.686" height="2.561" rx="1.28" fill="#2A5275" stroke="#0E1821" stroke-width=".48"/><path d="M4.56 26.965h5.282v2.8a.88.88 0 01-.88.88H5.44a.88.88 0 01-.88-.88v-2.8zm17.925 0h5.28v2.8a.88.88 0 01-.88.88h-3.52a.88.88 0 01-.88-.88v-2.8z" fill="#0E1821" stroke="#0E1821" stroke-width=".48"/><path d="M2.96 19.364a3.28 3.28 0 013.281-3.28h19.844a3.28 3.28 0 013.28 3.28v3.52c0 .84-.68 1.52-1.52 1.52H4.482c-.84 0-1.52-.68-1.52-1.52v-3.52z" fill="#4878A6" stroke="#0E1821" stroke-width=".48"/><path d="M22.233 8.321h-12.14a3.2 3.2 0 00-3.077 2.323L5.44 16.163h21.444l-1.575-5.52a3.2 3.2 0 00-3.077-2.322z" fill="#4878A6" stroke="#0E1821" stroke-width=".48" stroke-linecap="round" stroke-linejoin="round"/><path d="M22.863 10.162h-13.4a.8.8 0 00-.76.553L6.96 16.083h18.404l-1.741-5.368a.8.8 0 00-.761-.553z" fill="#fff" stroke="#0E1821" stroke-width=".48" stroke-linecap="round" stroke-linejoin="round"/><path d="M6.3 13.283h-.699a3.84 3.84 0 01-3.84-3.841v-2.72A3.84 3.84 0 015.6 2.88h18.884" stroke="#0E1821" stroke-width=".48"/><path d="M25.205 2.16V3.6h-.72a.24.24 0 01-.24-.24V2.4a.24.24 0 01.24-.24h.72zm2.241-.8V4.4h-2a.24.24 0 01-.24-.24V1.6a.24.24 0 01.24-.24h2z" fill="#F15152" stroke="#0E1821" stroke-width=".48"/><path stroke="#0E1821" stroke-width=".48" stroke-linecap="round" d="M27.765 2h.961m-.961 1.76h.961"/><circle cx="7.121" cy="20.724" r="2.24" fill="#FBB13C" stroke="#0E1821" stroke-width=".48"/><circle cx="25.205" cy="20.724" r="2.24" fill="#FBB13C" stroke="#0E1821" stroke-width=".48"/><path d="M15.29 17.73a.175.175 0 01.17-.127h1.407a.177.177 0 01.143.073.174.174 0 01.024.158l-.626 1.87h1.34a.176.176 0 01.139.282l-2.465 3.15a.177.177 0 01-.301-.039.174.174 0 01-.006-.12l.634-2.048h-1.17a.177.177 0 01-.173-.144.174.174 0 01.004-.08l.88-2.976zm.3.223l-.776 2.626h1.173a.177.177 0 01.174.145.175.175 0 01-.005.081l-.422 1.363 1.654-2.114h-1.225a.176.176 0 01-.167-.23l.627-1.87h-1.032z" fill="#fff"/></svg>