<svg viewBox="0 0 32 32" fill="none" xmlns="http://www.w3.org/2000/svg"><path d="M3.6 15.203C3.6 8.353 9.155 2.8 16.004 2.8c6.85 0 12.403 5.553 12.403 12.403v5.841a1.04 1.04 0 01-1.04 1.04h-.4v-6.036c0-6.497-4.444-11.807-10.963-11.807-6.519 0-10.962 5.31-10.962 11.807v6.036h-.4a1.04 1.04 0 01-1.04-1.04v-5.841z" fill="#4878A6" stroke="#0E1821" stroke-width=".48"/><path d="M4.88 19.28a1.6 1.6 0 011.6-1.6h1.6v8.16h-1.6a1.6 1.6 0 01-1.6-1.6v-4.96zm22.24 0a1.6 1.6 0 00-1.6-1.6h-1.6v8.16h1.6a1.6 1.6 0 001.6-1.6v-4.96z" fill="#4878A6" stroke="#0E1821" stroke-width=".48"/><rect x="7.12" y="16.08" width="4.32" height="11.36" rx="2.16" fill="#2A5275" stroke="#0E1821" stroke-width=".48"/><rect x="-.24" y=".24" width="4.32" height="11.36" rx="2.16" transform="matrix(-1 0 0 1 24.64 15.84)" fill="#2A5275" stroke="#0E1821" stroke-width=".48"/></svg>