<svg width="32" height="32" fill="none" xmlns="http://www.w3.org/2000/svg"><path d="M5 17a1 1 0 100-2 1 1 0 000 2zm21.724-2H10.276C9.57 15 9 15.42 9 15.94v.12c0 .52.571.94 1.276.94h16.448c.705 0 1.276-.42 1.276-.94v-.12c0-.52-.571-.94-1.276-.94zm.023 6H5.253C4.561 21 4 21.42 4 21.94v.12c0 .52.561.94 1.253.94h21.494c.692 0 1.253-.42 1.253-.94v-.12c0-.52-.561-.94-1.253-.94zm0-12H5.253C4.561 9 4 9.42 4 9.94v.12c0 .52.561.94 1.253.94h21.494c.692 0 1.253-.42 1.253-.94v-.12c0-.52-.561-.94-1.253-.94z" fill="#fff"/></svg>