<svg width="24" height="24" viewBox="0 0 24 24" fill="none" xmlns="http://www.w3.org/2000/svg">
<path d="M9.21234 22.4861C9.12965 22.4033 9.01488 22.3557 8.89784 22.3557C8.78085 22.3557 8.66608 22.4033 8.58339 22.4861C8.50065 22.5688 8.453 22.6836 8.453 22.8006C8.453 22.9175 8.5006 23.0323 8.58339 23.1151C8.66608 23.1978 8.78085 23.2454 8.89784 23.2454C9.01488 23.2454 9.12965 23.1978 9.21234 23.1151C9.29508 23.0323 9.34268 22.9175 9.34268 22.8006C9.34268 22.6836 9.29513 22.5688 9.21234 22.4861Z" fill="black"/>
<path d="M16.7496 18.9395C16.5041 18.9395 16.305 19.1385 16.305 19.3841C16.305 20.2114 15.6319 20.8846 14.8046 20.8846C14.5591 20.8846 14.36 21.0836 14.36 21.3292C14.36 21.5747 14.5591 21.7738 14.8046 21.7738C16.1222 21.7738 17.1942 20.7018 17.1942 19.3841C17.1942 19.1385 16.9951 18.9395 16.7496 18.9395Z" fill="black"/>
<path d="M19.9987 0.480713C17.9394 0.480713 16.264 2.15611 16.264 4.21548V9.55085C16.264 11.4597 17.7037 13.0376 19.5541 13.2582V17.1538H17.9538C17.2537 16.1681 16.1029 15.5238 14.8045 15.5238C14.4646 15.5238 14.1348 15.5681 13.8205 15.651L12.3375 11.8628H14.1456C14.2501 11.8628 14.3419 11.9295 14.3742 12.0289C14.4072 12.1302 14.367 12.2075 14.3401 12.2445C14.3132 12.2815 14.2522 12.3436 14.1456 12.3436H13.6911C13.4456 12.3436 13.2465 12.5426 13.2465 12.7882C13.2465 13.0337 13.4456 13.2328 13.6911 13.2328H14.1456C14.5114 13.2328 14.8446 13.063 15.0596 12.7671C15.2745 12.4711 15.333 12.1018 15.2199 11.754C15.0681 11.2873 14.6365 10.9736 14.1456 10.9736H11.6859C11.5389 10.9736 11.4015 11.0462 11.3187 11.1676C11.2358 11.289 11.2183 11.4435 11.2719 11.5803L12.1069 13.7133H8.41187L8.07725 12.9479L7.95084 12.6258C7.88406 12.4555 7.71987 12.3436 7.53695 12.3436H5.60368C5.22994 12.3436 4.88105 12.5279 4.67052 12.8367C4.45995 13.1456 4.41576 13.5377 4.5523 13.8856C4.72321 14.3211 5.1359 14.6025 5.60368 14.6025H7.07722L6.36206 15.8412C5.89206 15.6372 5.37395 15.5238 4.82978 15.5238C2.7011 15.5238 0.969238 17.2557 0.969238 19.3844C0.969238 20.5782 1.51394 21.647 2.36782 22.3558H1.41385C1.16834 22.3558 0.969238 22.5548 0.969238 22.8004C0.969238 23.0459 1.16834 23.245 1.41385 23.245H4.82983C6.80818 23.245 8.44348 21.7491 8.66467 19.829H10.4059C10.5559 19.829 10.6958 19.7533 10.7779 19.6278C10.8601 19.5023 10.8733 19.3438 10.8133 19.2063L8.80064 14.6026H12.4551L12.9928 15.9762C11.7748 16.6263 10.9439 17.9101 10.9439 19.3844C10.9439 20.5782 11.4886 21.647 12.3425 22.3558H10.765C10.5195 22.3558 10.3204 22.5548 10.3204 22.8004C10.3204 23.0459 10.5195 23.245 10.765 23.245H14.8045C16.9332 23.245 18.6651 21.5131 18.6651 19.3844C18.6651 18.9129 18.58 18.461 18.4246 18.043H21.6141C21.8596 18.043 22.0587 17.844 22.0587 17.5984C22.0587 17.3529 21.8596 17.1538 21.6141 17.1538H20.4434V13.2583C22.2938 13.0377 23.7335 11.4597 23.7335 9.5509V4.21548C23.7335 2.15611 22.0581 0.480713 19.9987 0.480713ZM5.60368 13.7133C5.50417 13.7133 5.41641 13.6534 5.38004 13.5608C5.33971 13.458 5.37848 13.3769 5.4052 13.3377C5.43192 13.2986 5.49319 13.2328 5.60368 13.2328H7.23381L7.42238 13.7133H5.60368ZM4.82983 22.3558C3.19138 22.3558 1.85847 21.0228 1.85847 19.3844C1.85847 17.746 3.19138 16.413 4.82983 16.413C5.21211 16.413 5.57736 16.4864 5.91335 16.6185L4.44479 19.1621C4.36538 19.2997 4.36538 19.4691 4.44479 19.6067C4.5242 19.7443 4.67101 19.829 4.82983 19.829H6.26304C6.0731 20.44 5.50244 20.8849 4.82983 20.8849C4.58431 20.8849 4.38521 21.0839 4.38521 21.3295C4.38521 21.5751 4.58431 21.7741 4.82983 21.7741C5.99556 21.7741 6.96838 20.9349 7.17744 19.829H7.76784C7.5526 21.2572 6.31715 22.3558 4.82983 22.3558ZM5.5999 18.9398L6.68285 17.0641C7.25413 17.5213 7.65393 18.1841 7.76784 18.9398H5.5999ZM9.72624 18.9398H8.66467C8.53983 17.8562 7.96476 16.9077 7.13155 16.2869L7.94813 14.8725L9.72624 18.9398ZM14.8045 22.3558C13.1661 22.3558 11.8331 21.0228 11.8331 19.3844C11.8331 18.2865 12.4322 17.3265 13.3201 16.8121L14.3905 19.5465C14.4592 19.7219 14.627 19.8291 14.8046 19.8291C14.8585 19.8291 14.9133 19.8193 14.9666 19.7984C15.1953 19.7089 15.3081 19.451 15.2185 19.2223L14.1478 16.4871C14.3592 16.4391 14.5788 16.413 14.8045 16.413C16.443 16.413 17.7759 17.7459 17.7759 19.3843C17.7759 21.0228 16.4429 22.3558 14.8045 22.3558ZM22.8443 9.55085C22.8443 10.9686 21.8019 12.1473 20.4434 12.3614V10.5126L21.6281 9.24767C21.796 9.06845 21.7868 8.78709 21.6075 8.61925C21.4284 8.45141 21.147 8.46061 20.9791 8.63979L20.4434 9.2117V7.78129L21.6281 6.5164C21.796 6.33718 21.7868 6.05582 21.6075 5.88794C21.4284 5.7201 21.147 5.7293 20.9791 5.90848L20.4434 6.48048V5.70494C20.4434 5.45937 20.2443 5.26032 19.9987 5.26032C19.7532 5.26032 19.5541 5.45937 19.5541 5.70494V7.70695L19.0964 7.21827C18.9285 7.03905 18.6472 7.02989 18.4679 7.19773C18.2887 7.36557 18.2795 7.64697 18.4474 7.82615L19.5541 9.00776V12.3614C18.1956 12.1473 17.1532 10.9686 17.1532 9.55081V4.21548C17.1532 2.64643 18.4297 1.36994 19.9987 1.36994C21.5678 1.36994 22.8443 2.64643 22.8443 4.21548V9.55085Z" fill="black"/>
<path d="M23.2891 17.1536H23.2833C23.0377 17.1536 22.8385 17.3527 22.8385 17.5984C22.8385 17.8441 23.0377 18.0432 23.2833 18.0432H23.2891C23.5348 18.0432 23.734 17.8441 23.734 17.5984C23.734 17.3527 23.5348 17.1536 23.2891 17.1536Z" fill="black"/>
<path d="M11.5881 6.64548H10.8504C11.0255 6.28987 11.1196 5.89546 11.1196 5.49237C11.1196 4.05248 9.94821 2.8811 8.50837 2.8811C7.43613 2.8811 6.49751 3.535 6.09989 4.48332C5.84486 4.36065 5.56297 4.2948 5.2746 4.2948C4.22451 4.29475 3.37018 5.14908 3.37018 6.19917C3.37018 6.62373 3.50725 7.02571 3.76651 7.36171C3.85072 7.47077 3.98068 7.53471 4.11851 7.53471H11.5881C11.8336 7.53471 12.0327 7.33565 12.0327 7.09009C12.0327 6.84453 11.8336 6.64548 11.5881 6.64548ZM9.7869 6.64543H4.36247C4.29467 6.50769 4.25941 6.35634 4.25941 6.19917C4.25941 5.6394 4.71483 5.18398 5.2746 5.18398C5.56151 5.18398 5.83645 5.30639 6.02888 5.51985C6.14542 5.64909 6.32655 5.69849 6.49257 5.6462C6.65855 5.59396 6.77882 5.44973 6.80034 5.27704C6.90722 4.41805 7.6415 3.77029 8.50832 3.77029C9.45784 3.77029 10.2304 4.54281 10.2304 5.49232C10.2304 5.91871 10.0704 6.3306 9.7869 6.64543Z" fill="black"/>
</svg>
