<svg width="29" height="30" viewBox="0 0 29 30" fill="none" xmlns="http://www.w3.org/2000/svg">
<path d="M24.6594 13.9033H4.02925C3.91604 13.9033 3.80748 13.9483 3.72743 14.0283C3.64739 14.1084 3.60242 14.2169 3.60242 14.3302V25.5985C3.60242 25.7117 3.64739 25.8202 3.72743 25.9003C3.80748 25.9803 3.91604 26.0253 4.02925 26.0253H24.6594C24.7726 26.0253 24.8811 25.9803 24.9612 25.9003C25.0412 25.8202 25.0862 25.7117 25.0862 25.5985V14.3302C25.0862 14.2169 25.0412 14.1084 24.9612 14.0283C24.8811 13.9483 24.7726 13.9033 24.6594 13.9033ZM24.2325 25.1716H4.4703V14.757H24.2325V25.1716Z" fill="black"/>
<path d="M14.3514 23.6493C16.0445 23.6493 17.4246 21.9989 17.4246 19.9715C17.4246 17.944 16.0374 16.2936 14.3514 16.2936C12.6654 16.2936 11.2782 17.944 11.2782 19.9715C11.2782 21.9989 12.6441 23.6493 14.3514 23.6493ZM14.3514 17.1473C15.575 17.1473 16.5709 18.4136 16.5709 19.9928C16.5709 21.5721 15.575 22.8384 14.3514 22.8384C13.1278 22.8384 12.1319 21.5721 12.1319 19.9928C12.1319 18.4136 13.1136 17.1544 14.3514 17.1544V17.1473ZM6.39104 22.2621C6.6514 22.2621 6.9011 22.3656 7.08521 22.5497C7.26932 22.7338 7.37275 22.9835 7.37275 23.2438C7.37275 23.357 7.41772 23.4656 7.49776 23.5457C7.57781 23.6257 7.68637 23.6707 7.79958 23.6707H10.2325C10.3457 23.6707 10.4543 23.6257 10.5343 23.5457C10.6144 23.4656 10.6593 23.357 10.6593 23.2438C10.6593 23.1306 10.6144 23.0221 10.5343 22.942C10.4543 22.862 10.3457 22.817 10.2325 22.817H8.18372C8.10418 22.4874 7.93524 22.1862 7.69551 21.9465C7.45578 21.7068 7.15455 21.5378 6.82498 21.4583V18.4847C7.15455 18.4051 7.45578 18.2362 7.69551 17.9965C7.93524 17.7567 8.10418 17.4555 8.18372 17.1259H10.2396C10.3528 17.1259 10.4614 17.081 10.5414 17.0009C10.6215 16.9209 10.6665 16.8123 10.6665 16.6991C10.6665 16.5859 10.6215 16.4774 10.5414 16.3973C10.4614 16.3173 10.3528 16.2723 10.2396 16.2723H7.80669C7.75064 16.2723 7.69513 16.2833 7.64335 16.3048C7.59156 16.3262 7.54451 16.3577 7.50488 16.3973C7.46524 16.4369 7.4338 16.484 7.41235 16.5358C7.3909 16.5876 7.37986 16.6431 7.37986 16.6991C7.37986 16.9595 7.27643 17.2092 7.09232 17.3933C6.90822 17.5774 6.65852 17.6808 6.39815 17.6808C6.28495 17.6808 6.17638 17.7258 6.09634 17.8058C6.01629 17.8859 5.97132 17.9945 5.97132 18.1077V21.8282C5.97038 21.8842 5.98049 21.9399 6.00107 21.9921C6.02166 22.0442 6.05231 22.0918 6.09129 22.1321C6.13026 22.1724 6.1768 22.2046 6.22823 22.2269C6.27966 22.2493 6.33498 22.2612 6.39104 22.2621ZM20.4764 22.7957H18.4205C18.3073 22.7957 18.1988 22.8406 18.1187 22.9207C18.0387 23.0007 17.9937 23.1093 17.9937 23.2225C17.9937 23.3357 18.0387 23.4443 18.1187 23.5243C18.1988 23.6044 18.3073 23.6493 18.4205 23.6493H20.8535C20.9667 23.6493 21.0752 23.6044 21.1553 23.5243C21.2353 23.4443 21.2803 23.3357 21.2803 23.2225C21.2803 22.9621 21.3837 22.7124 21.5678 22.5283C21.7519 22.3442 22.0016 22.2408 22.262 22.2408C22.3181 22.2408 22.3736 22.2298 22.4253 22.2083C22.4771 22.1869 22.5242 22.1554 22.5638 22.1158C22.6035 22.0761 22.6349 22.0291 22.6563 21.9773C22.6778 21.9255 22.6888 21.87 22.6888 21.814V18.1148C22.6888 18.0587 22.6778 18.0032 22.6563 17.9514C22.6349 17.8996 22.6035 17.8526 22.5638 17.813C22.5242 17.7733 22.4771 17.7419 22.4253 17.7204C22.3736 17.699 22.3181 17.6879 22.262 17.6879C22.0016 17.6879 21.7519 17.5845 21.5678 17.4004C21.3837 17.2163 21.2803 16.9666 21.2803 16.7062C21.2803 16.593 21.2353 16.4845 21.1553 16.4044C21.0752 16.3244 20.9667 16.2794 20.8535 16.2794H18.4205C18.3073 16.2794 18.1988 16.3244 18.1187 16.4044C18.0387 16.4845 17.9937 16.593 17.9937 16.7062C17.9937 16.8194 18.0387 16.928 18.1187 17.008C18.1988 17.0881 18.3073 17.1331 18.4205 17.1331H20.4764C20.5577 17.4622 20.7282 17.7626 20.9692 18.001C21.2102 18.2395 21.5123 18.4069 21.8423 18.4847V21.4298C21.5105 21.5088 21.2072 21.6783 20.966 21.9194C20.7249 22.1606 20.5554 22.4639 20.4764 22.7957ZM23.4216 3.83019H5.28128C5.01363 3.82732 4.74811 3.87803 4.50037 3.97935C4.25262 4.08067 4.02766 4.23054 3.83872 4.42014C3.64979 4.60974 3.50071 4.83522 3.40026 5.08332C3.29981 5.33142 3.25002 5.59712 3.25384 5.86475V9.32919C3.2529 9.59637 3.3046 9.86112 3.40598 10.1083C3.50736 10.3555 3.65644 10.5803 3.84471 10.7699C4.03297 10.9595 4.25674 11.1102 4.50323 11.2133C4.74971 11.3164 5.0141 11.3699 5.28128 11.3709H6.28433C6.39753 11.3709 6.5061 11.3259 6.58614 11.2458C6.66619 11.1658 6.71116 11.0572 6.71116 10.944C6.71116 10.8308 6.66619 10.7223 6.58614 10.6422C6.5061 10.5622 6.39753 10.5172 6.28433 10.5172H5.28128C5.1256 10.5163 4.97163 10.4846 4.82825 10.4239C4.68486 10.3633 4.55489 10.2749 4.4458 10.1638C4.33671 10.0527 4.25066 9.92116 4.1926 9.77671C4.13454 9.63226 4.10562 9.47775 4.1075 9.32207V5.86475C4.1056 5.70975 4.13462 5.55592 4.19285 5.41226C4.25107 5.2686 4.33735 5.13798 4.44663 5.02804C4.55591 4.91809 4.686 4.83103 4.82931 4.77194C4.97262 4.71284 5.12627 4.6829 5.28128 4.68385H23.4216C23.7335 4.68573 24.0321 4.81098 24.252 5.03224C24.4719 5.25349 24.5953 5.55279 24.5953 5.86475V9.35053C24.5935 9.66126 24.4692 9.95873 24.2495 10.1785C24.0298 10.3982 23.7323 10.5224 23.4216 10.5243H22.4185C22.3625 10.5243 22.307 10.5354 22.2552 10.5568C22.2034 10.5783 22.1563 10.6097 22.1167 10.6493C22.0771 10.689 22.0456 10.736 22.0242 10.7878C22.0027 10.8396 21.9917 10.8951 21.9917 10.9511C21.9917 11.0072 22.0027 11.0627 22.0242 11.1145C22.0456 11.1663 22.0771 11.2133 22.1167 11.253C22.1563 11.2926 22.2034 11.324 22.2552 11.3455C22.307 11.3669 22.3625 11.378 22.4185 11.378H23.4216C23.9587 11.3761 24.4733 11.1619 24.8531 10.7821C25.2329 10.4023 25.4471 9.88766 25.449 9.35053V5.86475C25.449 5.32638 25.2356 4.80996 24.8556 4.42861C24.4756 4.04726 23.9599 3.83208 23.4216 3.83019Z" fill="black"/>
<path d="M9.08718 11.954V9.62782C9.08718 9.51462 9.04221 9.40605 8.96217 9.32601C8.88212 9.24596 8.77355 9.20099 8.66035 9.20099C8.54715 9.20099 8.43858 9.24596 8.35854 9.32601C8.27849 9.40605 8.23352 9.51462 8.23352 9.62782V11.9612C8.23352 12.0744 8.27849 12.1829 8.35854 12.263C8.43858 12.343 8.54715 12.388 8.66035 12.388C8.77355 12.388 8.88212 12.343 8.96217 12.263C9.04221 12.1829 9.08718 12.0744 9.08718 11.9612V11.954ZM11.9256 11.954V8.31887C11.9256 8.20567 11.8806 8.09711 11.8006 8.01706C11.7205 7.93701 11.612 7.89204 11.4988 7.89204C11.3856 7.89204 11.277 7.93701 11.197 8.01706C11.1169 8.09711 11.0719 8.20567 11.0719 8.31887V11.954C11.0719 12.0672 11.1169 12.1758 11.197 12.2559C11.277 12.3359 11.3856 12.3809 11.4988 12.3809C11.612 12.3809 11.7205 12.3359 11.8006 12.2559C11.8806 12.1758 11.9256 12.0672 11.9256 11.954ZM14.764 11.954V7.14509C14.764 7.03189 14.7191 6.92332 14.639 6.84328C14.559 6.76323 14.4504 6.71826 14.3372 6.71826C14.224 6.71826 14.1154 6.76323 14.0354 6.84328C13.9553 6.92332 13.9104 7.03189 13.9104 7.14509V11.954C13.9104 12.0672 13.9553 12.1758 14.0354 12.2559C14.1154 12.3359 14.224 12.3809 14.3372 12.3809C14.4504 12.3809 14.559 12.3359 14.639 12.2559C14.7191 12.1758 14.764 12.0672 14.764 11.954ZM17.6096 11.954V8.31887C17.6096 8.20567 17.5646 8.09711 17.4845 8.01706C17.4045 7.93701 17.2959 7.89204 17.1827 7.89204C17.0695 7.89204 16.961 7.93701 16.8809 8.01706C16.8009 8.09711 16.7559 8.20567 16.7559 8.31887V11.954C16.7559 12.0672 16.8009 12.1758 16.8809 12.2559C16.961 12.3359 17.0695 12.3809 17.1827 12.3809C17.2959 12.3809 17.4045 12.3359 17.4845 12.2559C17.5646 12.1758 17.6096 12.0672 17.6096 11.954ZM20.448 11.954V9.62782C20.448 9.51462 20.403 9.40605 20.323 9.32601C20.2429 9.24596 20.1343 9.20099 20.0211 9.20099C19.9079 9.20099 19.7994 9.24596 19.7193 9.32601C19.6393 9.40605 19.5943 9.51462 19.5943 9.62782V11.9612C19.5943 12.0744 19.6393 12.1829 19.7193 12.263C19.7994 12.343 19.9079 12.388 20.0211 12.388C20.1343 12.388 20.2429 12.343 20.323 12.263C20.403 12.1829 20.448 12.0744 20.448 11.9612V11.954Z" fill="black"/>
</svg>
