<svg width="29" height="30" viewBox="0 0 29 30" fill="none" xmlns="http://www.w3.org/2000/svg">
<path d="M12.3311 12.0908L11.8616 11.7208C11.7171 11.6283 11.5929 11.5074 11.4963 11.3656C11.3997 11.2238 11.3328 11.064 11.2996 10.8956V5.38953C11.2996 5.13671 11.1991 4.89425 11.0204 4.71548C10.8416 4.53671 10.5991 4.43628 10.3463 4.43628H8.51095C8.25813 4.43628 8.01567 4.53671 7.8369 4.71548C7.65813 4.89425 7.55769 5.13671 7.55769 5.38953V10.9099C7.52371 11.0798 7.45579 11.241 7.358 11.384C7.26021 11.5271 7.13456 11.6489 6.98859 11.7422L6.68981 11.9627L6.52619 12.0908C5.54448 12.8591 4.84021 13.3855 4.84021 15.4841V23.6081C4.84021 24.1231 5.04482 24.6171 5.40903 24.9813C5.77324 25.3455 6.26722 25.5501 6.78229 25.5501H12.1034C12.6185 25.5501 13.1125 25.3455 13.4767 24.9813C13.8409 24.6171 14.0455 24.1231 14.0455 23.6081V15.4841C14.0242 13.3855 13.3128 12.8591 12.3311 12.0908ZM10.4957 6.3997H8.36156V5.38953C8.36327 5.35613 8.37732 5.32455 8.40097 5.30089C8.42462 5.27724 8.4562 5.2632 8.48961 5.26148H10.3392C10.3726 5.2632 10.4042 5.27724 10.4278 5.30089C10.4515 5.32455 10.4655 5.35613 10.4673 5.38953L10.4957 6.3997ZM8.36156 10.9099V7.21067H10.4601V10.9099C10.4901 11.1966 10.5836 11.473 10.7337 11.7191C10.8838 11.9652 11.0868 12.1748 11.328 12.3326C11.328 12.3326 11.6624 12.5816 11.7975 12.7026C12.7295 13.4139 13.1563 13.7554 13.1563 15.4414V23.6294C13.1563 23.9256 13.0386 24.2097 12.8292 24.4191C12.6197 24.6286 12.3356 24.7463 12.0394 24.7463H6.77517C6.47896 24.7463 6.19488 24.6286 5.98542 24.4191C5.77597 24.2097 5.6583 23.9256 5.6583 23.6294V15.4841C5.6583 13.791 6.08513 13.4637 7.02416 12.7381L7.49367 12.3682C7.74324 12.209 7.9531 11.9948 8.10722 11.742C8.26133 11.4893 8.35563 11.2046 8.3829 10.9099H8.36156Z" fill="black"/>
<path d="M6.98862 15.619V20.9757C6.98862 21.0833 7.03134 21.1864 7.10738 21.2624C7.18343 21.3385 7.28656 21.3812 7.39411 21.3812H11.4632C11.5165 21.3812 11.5692 21.3707 11.6184 21.3503C11.6676 21.33 11.7123 21.3001 11.7499 21.2624C11.7876 21.2248 11.8175 21.1801 11.8378 21.1309C11.8582 21.0817 11.8687 21.029 11.8687 20.9757V15.619C11.8697 15.5655 11.8598 15.5123 11.8398 15.4627C11.8198 15.4131 11.7899 15.368 11.7521 15.3301C11.7142 15.2923 11.6692 15.2624 11.6195 15.2424C11.5699 15.2224 11.5167 15.2125 11.4632 15.2135H7.39411C7.28656 15.2135 7.18343 15.2562 7.10738 15.3323C7.03134 15.4083 6.98862 15.5114 6.98862 15.619ZM7.81382 20.556V16.0245H11.0577V20.556H7.81382ZM23.8697 15.868C23.7769 14.1809 23.4905 12.51 23.0161 10.8883C22.9961 10.7968 22.9445 10.7152 22.8703 10.658C22.7962 10.6007 22.7042 10.5715 22.6106 10.5753H16.6065C16.5166 10.5787 16.43 10.6099 16.3586 10.6647C16.2872 10.7195 16.2346 10.7952 16.2081 10.8812C15.7331 12.5027 15.4466 14.1737 15.3545 15.8609C15.3137 16.9397 15.6889 17.993 16.4025 18.8032C17.116 19.6134 18.1135 20.1186 19.1888 20.2145V24.7176H17.4744C17.3669 24.7176 17.2637 24.7603 17.1877 24.8363C17.1116 24.9124 17.0689 25.0155 17.0689 25.1231C17.0689 25.2306 17.1116 25.3338 17.1877 25.4098C17.2637 25.4858 17.3669 25.5286 17.4744 25.5286H21.7427C21.8502 25.5286 21.9534 25.4858 22.0294 25.4098C22.1055 25.3338 22.1482 25.2306 22.1482 25.1231C22.1482 25.0155 22.1055 24.9124 22.0294 24.8363C21.9534 24.7603 21.8502 24.7176 21.7427 24.7176H20.0425V20.2216C21.1159 20.1224 22.1106 19.6159 22.8223 18.8063C23.5341 17.9967 23.9089 16.9453 23.8697 15.868ZM20.8464 13.3995C20.8464 13.2919 20.8036 13.1888 20.7276 13.1128C20.6516 13.0367 20.5484 12.994 20.4409 12.994H16.5496C16.6705 12.4391 16.7986 11.8629 16.9266 11.4005H22.2976C22.7103 12.8636 22.9491 14.3703 23.009 15.8893C23.0301 16.3532 22.957 16.8166 22.794 17.2514C22.631 17.6863 22.3816 18.0836 22.0608 18.4193C21.74 18.7551 21.3544 19.0223 20.9275 19.2049C20.5005 19.3875 20.0409 19.4816 19.5765 19.4816C19.1122 19.4816 18.6526 19.3875 18.2256 19.2049C17.7986 19.0223 17.4131 18.7551 17.0923 18.4193C16.7715 18.0836 16.5221 17.6863 16.3591 17.2514C16.1961 16.8166 16.123 16.3532 16.1441 15.8893C16.161 15.1974 16.2299 14.5078 16.3504 13.8263H20.4124C20.4699 13.8304 20.5275 13.8223 20.5816 13.8024C20.6356 13.7825 20.6848 13.7513 20.7258 13.7109C20.7669 13.6706 20.7989 13.6219 20.8197 13.5682C20.8404 13.5145 20.8495 13.457 20.8464 13.3995Z" fill="black"/>
</svg>
