<svg width="29" height="30" viewBox="0 0 29 30" fill="none" xmlns="http://www.w3.org/2000/svg">
<path d="M25.1431 3.98184C25.0894 3.96539 25.0329 3.95971 24.977 3.96512C24.9211 3.97052 24.8668 3.98691 24.8172 4.01335C24.7677 4.03979 24.7238 4.07575 24.6882 4.11917C24.6525 4.16259 24.6258 4.21263 24.6095 4.2664C24.5242 4.55806 24.1898 5.75319 23.8982 6.80604L23.6705 7.63124C23.386 8.63429 23.2081 8.67698 22.5465 8.84771L21.8921 9.01844C21.7934 8.81909 21.6547 8.64226 21.4846 8.49904C21.3144 8.35581 21.1165 8.24928 20.9032 8.18612C20.7044 8.12667 20.4957 8.10738 20.2893 8.12936C20.0829 8.15135 19.8829 8.21417 19.701 8.31417C19.5119 8.4176 19.3453 8.55768 19.2109 8.72624C19.0765 8.8948 18.9771 9.08845 18.9185 9.29588L16.9053 16.5306H12.8362C12.7141 16.3676 12.581 16.2131 12.4378 16.0682C12.0307 15.6584 11.5463 15.3336 11.0126 15.1125C10.4789 14.8915 9.90666 14.7787 9.32903 14.7806C9.02551 14.7806 8.72278 14.8115 8.42557 14.8731L7.42964 11.3162H10.1969C10.3101 11.3162 10.4187 11.2712 10.4987 11.1912C10.5788 11.1111 10.6237 11.0026 10.6237 10.8894V10.0784C10.6149 9.76499 10.5118 9.46153 10.3277 9.2077C10.1437 8.95386 9.88738 8.76145 9.59224 8.65563C8.18711 8.1749 6.74542 7.80853 5.28126 7.5601C4.74289 7.56199 4.22722 7.77717 3.84721 8.15852C3.46719 8.53987 3.25381 9.05629 3.25381 9.59466V10.9036C3.25381 11.0168 3.29878 11.1254 3.37883 11.2054C3.45888 11.2855 3.56744 11.3304 3.68064 11.3304H6.52618L7.59325 15.1292C6.55206 15.5709 5.72155 16.3975 5.2749 17.4366C4.82826 18.4756 4.79995 19.647 5.19589 20.7065C4.60544 22.364 3.95097 24.1638 3.94386 24.1638C3.93507 24.2132 3.93507 24.2638 3.94386 24.3132C3.94478 24.5573 3.99401 24.7988 4.08871 25.0238C4.18342 25.2488 4.32171 25.4528 4.49564 25.624C4.66956 25.7953 4.87567 25.9305 5.10207 26.0217C5.32848 26.113 5.57071 26.1585 5.8148 26.1557H21.5791C22.0684 26.1538 22.537 25.9581 22.8823 25.6114C23.2276 25.2648 23.4215 24.7954 23.4215 24.3061C23.4295 24.259 23.4295 24.2109 23.4215 24.1638C23.4215 24.1638 21.6929 19.3477 21.2874 18.2451C21.2131 17.9302 21.0758 17.6337 20.8839 17.3733C20.6919 17.1128 20.4493 16.894 20.1705 16.7298L22.013 10.178C22.0429 10.0735 22.062 9.96625 22.0699 9.85787L22.7813 9.68003C23.6136 9.46661 24.1045 9.27454 24.5028 7.866L24.7305 7.03368C25.0221 5.98795 25.3494 4.79993 25.4419 4.50827C25.457 4.45408 25.4612 4.39745 25.4544 4.34161C25.4475 4.28578 25.4297 4.23185 25.4019 4.18293C25.3742 4.13401 25.337 4.09106 25.2926 4.05655C25.2482 4.02204 25.1973 3.99665 25.1431 3.98184ZM4.10747 9.59466C4.10747 9.28269 4.23091 8.9834 4.45083 8.76214C4.67076 8.54089 4.9693 8.41564 5.28126 8.41376C6.6523 8.6452 8.00326 8.98294 9.32192 9.42393C9.45205 9.47573 9.564 9.56479 9.64373 9.67995C9.72345 9.79511 9.76741 9.93125 9.77009 10.0713V10.4768H4.07902L4.10747 9.59466ZM20.8534 19.554H18.3778C18.2646 19.554 18.1561 19.599 18.076 19.679C17.996 19.7591 17.951 19.8677 17.951 19.9809C17.951 20.0941 17.996 20.2026 18.076 20.2827C18.1561 20.3627 18.2646 20.4077 18.3778 20.4077H21.1593L21.764 22.1719H16.7843C16.6711 22.1719 16.5626 22.2169 16.4825 22.2969C16.4025 22.377 16.3575 22.4855 16.3575 22.5987C16.3575 22.712 16.4025 22.8205 16.4825 22.9006C16.5626 22.9806 16.6711 23.0256 16.7843 23.0256H22.1055L22.5963 24.4057C22.5784 24.6561 22.4666 24.8904 22.2832 25.0619C22.0999 25.2334 21.8585 25.3293 21.6075 25.3305H5.8148C5.56376 25.3293 5.32242 25.2334 5.13907 25.0619C4.95573 24.8904 4.8439 24.6561 4.82597 24.4057L5.78634 21.7593C5.92425 21.9616 6.07893 22.152 6.24874 22.3284C7.07056 23.1368 8.17624 23.5914 9.32903 23.5947C9.67409 23.5952 10.018 23.5546 10.3534 23.4738C10.4638 23.4473 10.5592 23.3782 10.6185 23.2814C10.6779 23.1847 10.6964 23.0684 10.67 22.958C10.6436 22.8476 10.5744 22.7523 10.4777 22.6929C10.381 22.6335 10.2646 22.615 10.1542 22.6414C9.343 22.8412 8.48713 22.7454 7.74013 22.3713C6.99313 21.9971 6.40386 21.3691 6.07801 20.5998C6.06648 20.5541 6.04723 20.5108 6.0211 20.4717C5.77318 19.8303 5.71649 19.1308 5.8579 18.4579C5.9993 17.7849 6.33274 17.1674 6.81785 16.68C7.36872 16.1425 8.07911 15.7981 8.84235 15.6986C9.6056 15.5992 10.3805 15.75 11.0508 16.1284C11.721 16.5068 12.2504 17.0924 12.5595 17.7973C12.8686 18.5022 12.9407 19.2884 12.765 20.0378C12.7519 20.0924 12.7497 20.1491 12.7586 20.2046C12.7674 20.2601 12.7871 20.3133 12.8165 20.3612C12.8758 20.4579 12.9712 20.5271 13.0816 20.5535C13.1919 20.5799 13.3083 20.5614 13.405 20.5021C13.5017 20.4427 13.5709 20.3473 13.5973 20.237C13.8306 19.2863 13.7405 18.2851 13.3412 17.3914H19.2244C19.3452 17.383 19.4664 17.383 19.5872 17.3914C19.9144 17.4697 20.1919 17.7115 20.4551 18.4941L20.8534 19.554ZM21.1878 9.91478L19.3311 16.5378H17.7945L19.7437 9.53063C19.7717 9.43292 19.8188 9.34174 19.8823 9.26236C19.9458 9.18299 20.0244 9.11701 20.1136 9.06824C20.1975 9.02186 20.2899 8.99291 20.3852 8.98313C20.4806 8.97335 20.5769 8.98294 20.6685 9.01132C20.8594 9.06604 21.021 9.19385 21.1182 9.36699C21.2154 9.54014 21.2404 9.74465 21.1878 9.93612V9.91478Z" fill="black"/>
<path d="M9.65628 18.8712C9.61859 18.8254 9.57177 18.788 9.51879 18.7613C9.46582 18.7346 9.40786 18.7192 9.34861 18.7161C9.28937 18.7131 9.23014 18.7224 9.1747 18.7435C9.11927 18.7647 9.06884 18.7971 9.02665 18.8388C8.98445 18.8805 8.95141 18.9305 8.92964 18.9857C8.90786 19.0409 8.89783 19.1 8.90018 19.1593C8.90252 19.2186 8.9172 19.2767 8.94328 19.33C8.96935 19.3833 9.00625 19.4306 9.05161 19.4688L11.8473 22.3143C11.885 22.3601 11.9319 22.3976 11.9848 22.4243C12.0378 22.451 12.0958 22.4664 12.155 22.4694C12.2143 22.4725 12.2735 22.4631 12.3289 22.442C12.3844 22.4209 12.4348 22.3884 12.477 22.3467C12.5192 22.305 12.5522 22.255 12.574 22.1998C12.5958 22.1446 12.6058 22.0855 12.6035 22.0262C12.6011 21.967 12.5864 21.9088 12.5603 21.8555C12.5343 21.8023 12.4974 21.755 12.452 21.7168L9.65628 18.8712Z" fill="black"/>
</svg>
