<svg width="29" height="30" viewBox="0 0 29 30" fill="none" xmlns="http://www.w3.org/2000/svg">
<path d="M25.3921 10.2142L21.515 4.21722C21.4762 4.1583 21.4234 4.10992 21.3614 4.07641C21.2993 4.04289 21.2299 4.02528 21.1593 4.02515H7.57192C7.50138 4.02528 7.43197 4.04289 7.3699 4.07641C7.30782 4.10992 7.25503 4.1583 7.21623 4.21722L3.33919 10.2142C3.31135 10.2646 3.29438 10.3204 3.28939 10.3778V11.5658C3.28639 11.5942 3.28639 11.6228 3.28939 11.6512C3.38563 12.1796 3.62383 12.6718 3.97848 13.0751C4.33313 13.4784 4.79084 13.7776 5.30257 13.9406C5.81429 14.1037 6.36074 14.1243 6.88332 14.0005C7.40591 13.8766 7.88494 13.6129 8.26908 13.2376C8.81987 13.7584 9.54915 14.0486 10.3072 14.0486C11.0652 14.0486 11.7945 13.7584 12.3453 13.2376C12.8961 13.7584 13.6254 14.0486 14.3834 14.0486C15.1415 14.0486 15.8707 13.7584 16.4215 13.2376C16.9723 13.7584 17.7016 14.0486 18.4596 14.0486C19.2177 14.0486 19.947 13.7584 20.4978 13.2376C20.8833 13.6106 21.3629 13.872 21.8853 13.9941C22.4077 14.1162 22.9534 14.0943 23.4644 13.9308C23.9753 13.7673 24.4324 13.4683 24.7869 13.0656C25.1414 12.6629 25.38 12.1716 25.4774 11.6441C25.496 11.1658 25.4674 10.6868 25.3921 10.2142ZM7.80668 4.87881H20.9246L24.2467 10.015H4.4774L7.80668 4.87881ZM24.5526 11.4947C24.4482 11.9654 24.1874 12.3869 23.8128 12.6905C23.4382 12.994 22.9718 13.1618 22.4896 13.1664C22.1568 13.1647 21.8293 13.083 21.5347 12.9282C21.24 12.7735 20.9869 12.5502 20.7965 12.2772C20.7543 12.2246 20.7014 12.1815 20.6413 12.1508C20.5813 12.1202 20.5153 12.1026 20.448 12.0993C20.3817 12.0993 20.3163 12.1148 20.2571 12.1444C20.1978 12.174 20.1463 12.2171 20.1065 12.2701C19.9092 12.5332 19.6537 12.7472 19.36 12.8953C19.0663 13.0434 18.7423 13.1215 18.4134 13.1237C18.0843 13.1268 17.7592 13.0517 17.4648 12.9045C17.1705 12.7574 16.9153 12.5423 16.7203 12.2772C16.6814 12.2185 16.6285 12.1704 16.5665 12.137C16.5044 12.1037 16.4351 12.0863 16.3646 12.0863C16.2942 12.0863 16.2248 12.1037 16.1628 12.137C16.1007 12.1704 16.0479 12.2185 16.0089 12.2772C15.8189 12.5422 15.5707 12.7601 15.2834 12.9143C14.9961 13.0684 14.6773 13.1547 14.3514 13.1664C14.0162 13.167 13.6858 13.0864 13.3885 12.9315C13.0912 12.7767 12.8358 12.5522 12.6441 12.2772C12.6051 12.2229 12.5539 12.1785 12.4945 12.1476C12.4352 12.1167 12.3695 12.1002 12.3026 12.0993C12.235 12.097 12.1678 12.1114 12.107 12.1412C12.0462 12.1709 11.9937 12.2152 11.954 12.2701C11.7567 12.5332 11.5012 12.7472 11.2075 12.8953C10.9138 13.0434 10.5899 13.1215 10.261 13.1237C9.93186 13.1268 9.60673 13.0517 9.31237 12.9045C9.01801 12.7574 8.76283 12.5423 8.56786 12.2772C8.52885 12.2229 8.47763 12.1785 8.41832 12.1476C8.359 12.1167 8.29326 12.1002 8.22639 12.0993C8.15856 12.0957 8.09092 12.1095 8.0299 12.1394C7.96889 12.1693 7.91654 12.2143 7.87782 12.2701C7.63089 12.5883 7.29894 12.8302 6.92034 12.9677C6.54174 13.1052 6.13195 13.1328 5.73833 13.0472C5.34472 12.9617 4.98336 12.7665 4.69603 12.4842C4.40869 12.2019 4.20712 11.844 4.1146 11.452V10.8544H24.5526V11.4947Z" fill="black"/>
<path d="M9.56378 6.30897C9.50965 6.29019 9.45228 6.2825 9.39511 6.28636C9.33794 6.29022 9.28214 6.30555 9.23102 6.33145C9.1799 6.35734 9.13452 6.39325 9.09758 6.43706C9.06065 6.48086 9.0329 6.53165 9.01601 6.58641L8.43979 8.00917C8.41825 8.06178 8.40744 8.11816 8.40799 8.175C8.40853 8.23184 8.42042 8.288 8.44297 8.34018C8.46551 8.39237 8.49825 8.43952 8.53927 8.47888C8.58028 8.51824 8.62874 8.549 8.68181 8.56938C8.73488 8.58975 8.79148 8.59932 8.8483 8.59752C8.90511 8.59572 8.961 8.5826 9.01267 8.55891C9.06434 8.53522 9.11076 8.50145 9.14921 8.45957C9.18765 8.4177 9.21734 8.36857 9.23654 8.31507L9.81276 6.83539C9.84562 6.73243 9.8382 6.62083 9.79199 6.52312C9.74578 6.42542 9.66422 6.34889 9.56378 6.30897ZM19.7152 6.58641C19.6729 6.48315 19.5919 6.40056 19.4895 6.35631C19.3871 6.31206 19.2714 6.30968 19.1672 6.34967C19.0631 6.38966 18.9787 6.46884 18.9322 6.57027C18.8857 6.67169 18.8808 6.78729 18.9185 6.8923L19.4947 8.37198C19.5428 8.47763 19.6309 8.55985 19.7396 8.60054C19.8484 8.64123 19.9688 8.63706 20.0745 8.58895C20.1801 8.54084 20.2623 8.45273 20.303 8.344C20.3437 8.23527 20.3396 8.11483 20.2914 8.00917L19.7152 6.58641ZM12.7721 6.28763C12.661 6.27342 12.5487 6.3035 12.4595 6.37138C12.3703 6.43926 12.3114 6.53949 12.2955 6.65043L12.0963 8.13011C12.0822 8.24236 12.1133 8.35561 12.1826 8.44498C12.252 8.53435 12.354 8.59253 12.4662 8.60674H12.5231C12.6259 8.60594 12.7249 8.56809 12.802 8.50013C12.8792 8.43217 12.9292 8.33868 12.9429 8.23682L13.142 6.75714C13.1541 6.64603 13.1222 6.53461 13.053 6.44682C12.9838 6.35903 12.883 6.30187 12.7721 6.28763ZM15.9591 6.28763C15.8469 6.30183 15.7449 6.36001 15.6755 6.44938C15.6061 6.53875 15.5751 6.652 15.5892 6.76425L15.7742 8.24393C15.7879 8.34579 15.8379 8.43929 15.915 8.50724C15.9921 8.5752 16.0911 8.61305 16.1939 8.61385H16.2508C16.363 8.59965 16.465 8.54147 16.5344 8.4521C16.6038 8.36272 16.6348 8.24947 16.6207 8.13722L16.4215 6.65755C16.4073 6.54805 16.3511 6.44834 16.2649 6.37936C16.1787 6.31038 16.0691 6.2775 15.9591 6.28763ZM23.1868 22.0234V15.8344C23.1868 15.7212 23.1418 15.6126 23.0618 15.5326C22.9817 15.4525 22.8731 15.4076 22.7599 15.4076C22.6467 15.4076 22.5382 15.4525 22.4581 15.5326C22.3781 15.6126 22.3331 15.7212 22.3331 15.8344V22.2368C22.3327 22.345 22.3734 22.4492 22.4469 22.5285L23.5994 23.7023V25.3669H5.1532V23.7094L6.2843 22.4858C6.35782 22.4065 6.3985 22.3023 6.39812 22.1942V15.7917C6.39812 15.6785 6.35315 15.5699 6.27311 15.4899C6.19306 15.4098 6.0845 15.3649 5.97129 15.3649C5.85809 15.3649 5.74952 15.4098 5.66948 15.4899C5.58943 15.5699 5.54446 15.6785 5.54446 15.7917V21.995L4.39202 23.247C4.31851 23.3263 4.27783 23.4305 4.2782 23.5387V25.7938C4.2782 25.907 4.32317 26.0155 4.40322 26.0956C4.48326 26.1756 4.59183 26.2206 4.70503 26.2206H23.9906C24.1026 26.2206 24.2101 26.1766 24.29 26.0981C24.3698 26.0196 24.4156 25.9128 24.4175 25.8009V23.5458C24.4178 23.4377 24.3772 23.3334 24.3036 23.2541L23.1868 22.0234Z" fill="black"/>
<path d="M20.5262 23.5315C20.6394 23.5315 20.748 23.4865 20.828 23.4065C20.9081 23.3264 20.9531 23.2178 20.9531 23.1046V15.8343C20.9531 15.7211 20.9081 15.6125 20.828 15.5325C20.748 15.4524 20.6394 15.4075 20.5262 15.4075H16.3504C16.2372 15.4075 16.1286 15.4524 16.0486 15.5325C15.9685 15.6125 15.9236 15.7211 15.9236 15.8343V23.1046C15.9236 23.2178 15.9685 23.3264 16.0486 23.4065C16.1286 23.4865 16.2372 23.5315 16.3504 23.5315H20.5262ZM20.0994 16.254V22.6565H16.7772V19.8892H17.4886C17.6018 19.8892 17.7104 19.8442 17.7904 19.7642C17.8705 19.6841 17.9154 19.5756 17.9154 19.4624C17.9154 19.3492 17.8705 19.2406 17.7904 19.1605C17.7104 19.0805 17.6018 19.0355 17.4886 19.0355H16.7772V16.254H20.0994ZM14.1024 20.8994C14.2156 20.8994 14.3242 20.8544 14.4042 20.7743C14.4843 20.6943 14.5293 20.5857 14.5293 20.4725V15.8343C14.5293 15.7211 14.4843 15.6125 14.4042 15.5325C14.3242 15.4524 14.2156 15.4075 14.1024 15.4075H8.20506C8.09186 15.4075 7.98329 15.4524 7.90324 15.5325C7.8232 15.6125 7.77823 15.7211 7.77823 15.8343V20.4796C7.77823 20.5928 7.8232 20.7014 7.90324 20.7814C7.98329 20.8615 8.09186 20.9065 8.20506 20.9065L14.1024 20.8994ZM8.66034 16.254H13.64V20.0457H8.66034V16.254Z" fill="black"/>
</svg>
