<svg width="29" height="30" viewBox="0 0 29 30" fill="none" xmlns="http://www.w3.org/2000/svg">
<path d="M25.4348 25.041H24.3108V14.8896C24.3117 14.8357 24.3019 14.7822 24.282 14.7322C24.262 14.6822 24.2323 14.6367 24.1946 14.5982C24.1568 14.5598 24.1118 14.5293 24.0621 14.5085C24.0125 14.4877 23.9591 14.477 23.9053 14.477H21.202V7.91091C21.203 7.85707 21.1932 7.80357 21.1732 7.75355C21.1533 7.70353 21.1236 7.65799 21.0858 7.61958C21.0481 7.58117 21.003 7.55066 20.9534 7.52984C20.9037 7.50902 20.8504 7.4983 20.7965 7.49831H17.6593C17.5743 6.67923 17.1888 5.92071 16.5772 5.3693C15.9656 4.81788 15.1713 4.5127 14.3479 4.5127C13.5244 4.5127 12.7301 4.81788 12.1185 5.3693C11.5069 5.92071 11.1214 6.67923 11.0364 7.49831H7.88494C7.83109 7.4983 7.77777 7.50902 7.7281 7.52984C7.67844 7.55066 7.63342 7.58117 7.59567 7.61958C7.55792 7.65799 7.5282 7.70353 7.50825 7.75355C7.4883 7.80357 7.47851 7.85707 7.47945 7.91091V14.477H4.77619C4.72234 14.477 4.66902 14.4877 4.61936 14.5085C4.56969 14.5293 4.52467 14.5598 4.48692 14.5982C4.44918 14.6367 4.41946 14.6822 4.39951 14.7322C4.37955 14.7822 4.36976 14.8357 4.3707 14.8896V25.041H3.26095C3.16174 25.0541 3.07069 25.1028 3.00473 25.1781C2.93877 25.2533 2.9024 25.35 2.9024 25.4501C2.9024 25.5501 2.93877 25.6468 3.00473 25.722C3.07069 25.7973 3.16174 25.846 3.26095 25.8591H25.4419C25.5411 25.846 25.6321 25.7973 25.6981 25.722C25.7641 25.6468 25.8004 25.5501 25.8004 25.4501C25.8004 25.35 25.7641 25.2533 25.6981 25.1781C25.6321 25.1028 25.5411 25.0541 25.4419 25.041H25.4348ZM14.3514 5.3357C14.8625 5.32723 15.3645 5.47103 15.7936 5.7488C16.2226 6.02657 16.5593 6.42574 16.7608 6.89549C16.9623 7.36523 17.0194 7.88431 16.9249 8.38663C16.8304 8.88895 16.5886 9.35179 16.2302 9.71622C15.8718 10.0807 15.4131 10.3302 14.9124 10.4331C14.4117 10.5359 13.8918 10.4875 13.4187 10.2939C12.9457 10.1003 12.5409 9.77032 12.256 9.34596C11.9711 8.92159 11.819 8.42204 11.8189 7.91091C11.8161 7.57553 11.8793 7.24288 12.0051 6.93195C12.1308 6.62102 12.3166 6.33791 12.5518 6.09878C12.787 5.85964 13.0669 5.66918 13.3757 5.53825C13.6845 5.40732 14.016 5.33849 14.3514 5.3357ZM8.28331 8.32351H11.0435C11.1285 9.14259 11.514 9.90111 12.1256 10.4525C12.7372 11.0039 13.5315 11.3091 14.355 11.3091C15.1785 11.3091 15.9727 11.0039 16.5843 10.4525C17.1959 9.90111 17.5815 9.14259 17.6665 8.32351H20.4266V14.477H19.2173V10.1091C19.2173 10.0015 19.1746 9.89841 19.0985 9.82236C19.0225 9.74632 18.9193 9.7036 18.8118 9.7036C18.7042 9.7036 18.6011 9.74632 18.5251 9.82236C18.449 9.89841 18.4063 10.0015 18.4063 10.1091V14.477H14.7569V12.9546C14.7569 12.8471 14.7142 12.7439 14.6381 12.6679C14.5621 12.5919 14.459 12.5491 14.3514 12.5491C14.2439 12.5491 14.1407 12.5919 14.0647 12.6679C13.9886 12.7439 13.9459 12.8471 13.9459 12.9546V14.477H10.2965V10.1091C10.2965 10.0015 10.2538 9.89841 10.1778 9.82236C10.1017 9.74632 9.99858 9.7036 9.89104 9.7036C9.7835 9.7036 9.68036 9.74632 9.60432 9.82236C9.52827 9.89841 9.48555 10.0015 9.48555 10.1091V14.477H8.2762L8.28331 8.32351ZM13.9744 25.0339H11.8402V19.8408H13.9744V25.0339ZM16.948 25.0339H14.8138V19.8408H16.948V25.0339ZM21.5364 20.7656H20.2203C20.1109 20.7656 20.006 20.8091 19.9286 20.8865C19.8512 20.9638 19.8077 21.0688 19.8077 21.1782C19.8077 21.2876 19.8512 21.3926 19.9286 21.47C20.006 21.5473 20.1109 21.5908 20.2203 21.5908H21.5079V22.8002H20.2203C20.1109 22.8002 20.006 22.8436 19.9286 22.921C19.8512 22.9984 19.8077 23.1033 19.8077 23.2128C19.8077 23.3222 19.8512 23.4271 19.9286 23.5045C20.006 23.5819 20.1109 23.6254 20.2203 23.6254H21.5079V25.0481H17.7234V19.4567C17.7243 19.4028 17.7145 19.3493 17.6946 19.2993C17.6746 19.2493 17.6449 19.2037 17.6072 19.1653C17.5694 19.1269 17.5244 19.0964 17.4747 19.0756C17.4251 19.0548 17.3717 19.0441 17.3179 19.0441H11.3778C11.324 19.0441 11.2707 19.0548 11.221 19.0756C11.1713 19.0964 11.1263 19.1269 11.0886 19.1653C11.0508 19.2037 11.0211 19.2493 11.0011 19.2993C10.9812 19.3493 10.9714 19.4028 10.9723 19.4567V25.0624H7.1949V23.6396H8.4825C8.59193 23.6396 8.69688 23.5961 8.77426 23.5187C8.85163 23.4414 8.8951 23.3364 8.8951 23.227C8.8951 23.1176 8.85163 23.0126 8.77426 22.9352C8.69688 22.8579 8.59193 22.8144 8.4825 22.8144H7.1949V21.5908H8.4825C8.59193 21.5908 8.69688 21.5473 8.77426 21.47C8.85163 21.3926 8.8951 21.2876 8.8951 21.1782C8.8951 21.0688 8.85163 20.9638 8.77426 20.8865C8.69688 20.8091 8.59193 20.7656 8.4825 20.7656H7.1949V17.3225H21.5079L21.5364 20.7656ZM23.5496 25.0339H22.3403V16.9384C22.3412 16.8845 22.3314 16.831 22.3115 16.781C22.2915 16.731 22.2618 16.6854 22.224 16.647C22.1863 16.6086 22.1413 16.5781 22.0916 16.5573C22.0419 16.5365 21.9886 16.5258 21.9348 16.5258H6.78941C6.73556 16.5258 6.68224 16.5365 6.63257 16.5573C6.58291 16.5781 6.53789 16.6086 6.50014 16.647C6.46239 16.6854 6.43267 16.731 6.41272 16.781C6.39277 16.831 6.38298 16.8845 6.38392 16.9384V25.041H5.18168V15.2951H23.5211L23.5496 25.0339Z" fill="black"/>
<path d="M13.2203 8.32391H13.9317V9.0353C13.9317 9.14284 13.9744 9.24598 14.0504 9.32202C14.1265 9.39806 14.2296 9.44078 14.3372 9.44078C14.4447 9.44078 14.5478 9.39806 14.6239 9.32202C14.6999 9.24598 14.7427 9.14284 14.7427 9.0353V8.32391H15.454C15.5635 8.32391 15.6684 8.28044 15.7458 8.20306C15.8232 8.12569 15.8666 8.02074 15.8666 7.91131C15.8666 7.80188 15.8232 7.69693 15.7458 7.61956C15.6684 7.54218 15.5635 7.49871 15.454 7.49871H14.7427V6.78732C14.7427 6.67978 14.6999 6.57664 14.6239 6.5006C14.5478 6.42456 14.4447 6.38184 14.3372 6.38184C14.2296 6.38184 14.1265 6.42456 14.0504 6.5006C13.9744 6.57664 13.9317 6.67978 13.9317 6.78732V7.49871H13.2203C13.1211 7.51182 13.03 7.56053 12.9641 7.63578C12.8981 7.71103 12.8618 7.80769 12.8618 7.90775C12.8618 8.00782 12.8981 8.10447 12.9641 8.17972C13.03 8.25497 13.1211 8.30369 13.2203 8.3168V8.32391Z" fill="black"/>
</svg>
