<svg width="29" height="29" viewBox="0 0 29 29" fill="none" xmlns="http://www.w3.org/2000/svg">
<path d="M13.5333 18.6713H4.10751V16.032H8.86666C8.97986 16.032 9.08843 15.9871 9.16848 15.907C9.24852 15.827 9.29349 15.7184 9.29349 15.6052V15.2638C9.29443 14.9172 9.22709 14.5738 9.09532 14.2532C8.96355 13.9327 8.76993 13.6412 8.52551 13.3954C8.2811 13.1497 7.99067 12.9545 7.67082 12.821C7.35097 12.6875 7.00796 12.6183 6.66137 12.6174H4.12173C4.14027 12.0978 4.36121 11.6061 4.73736 11.2472C5.11352 10.8884 5.61509 10.6908 6.13495 10.6967H22.5466C23.025 10.6985 23.4873 10.8695 23.8518 11.1793C24.2163 11.4891 24.4595 11.9179 24.5384 12.3898C24.5564 12.502 24.6181 12.6026 24.7102 12.6693C24.8023 12.736 24.917 12.7634 25.0293 12.7455C25.1415 12.7275 25.2421 12.6657 25.3088 12.5737C25.3755 12.4816 25.4029 12.3669 25.385 12.2546C25.288 11.6726 25.0151 11.1343 24.6031 10.7121C24.191 10.2899 23.6595 10.0039 23.0801 9.89281C23.1664 9.50498 23.3772 9.15603 23.6803 8.89916C23.9834 8.64229 24.3622 8.49159 24.759 8.47004C24.8722 8.47004 24.9807 8.42507 25.0608 8.34503C25.1408 8.26498 25.1858 8.15641 25.1858 8.04321C25.1858 7.93001 25.1408 7.82144 25.0608 7.7414C24.9807 7.66135 24.8722 7.61638 24.759 7.61638C24.2991 7.61714 23.8485 7.746 23.4577 7.98851C23.0669 8.23101 22.7514 8.57758 22.5466 8.98935L20.5191 3.43345C20.4888 3.3522 20.4344 3.28214 20.3632 3.23257C20.292 3.18301 20.2075 3.1563 20.1207 3.15601H8.56788C8.48115 3.1563 8.39658 3.18301 8.32541 3.23257C8.25424 3.28214 8.19986 3.3522 8.16951 3.43345L6.13495 9.01781C5.93011 8.60604 5.61461 8.25947 5.22383 8.01696C4.83306 7.77445 4.38245 7.6456 3.92255 7.64484C3.86649 7.64484 3.81099 7.65588 3.75921 7.67733C3.70742 7.69878 3.66037 7.73022 3.62073 7.76985C3.5811 7.80949 3.54966 7.85654 3.52821 7.90832C3.50676 7.96011 3.49572 8.01561 3.49572 8.07167C3.49572 8.12772 3.50676 8.18322 3.52821 8.23501C3.54966 8.28679 3.5811 8.33385 3.62073 8.37348C3.66037 8.41312 3.70742 8.44455 3.75921 8.466C3.81099 8.48745 3.86649 8.4985 3.92255 8.4985C4.31928 8.52004 4.69808 8.67074 5.00118 8.92762C5.30429 9.18449 5.51508 9.53344 5.60141 9.92126C5.03815 10.0215 4.5192 10.2922 4.11462 10.6967C3.8419 10.9621 3.6252 11.2796 3.47735 11.6303C3.3295 11.981 3.2535 12.3578 3.25385 12.7383V21.5666C3.25385 21.9062 3.38875 22.2319 3.62889 22.4721C3.86903 22.7122 4.19473 22.8471 4.53434 22.8471H7.23759C7.5772 22.8471 7.9029 22.7122 8.14304 22.4721C8.38317 22.2319 8.51808 21.9062 8.51808 21.5666V19.5249H13.4978C13.611 19.5249 13.7195 19.48 13.7996 19.3999C13.8796 19.3199 13.9246 19.2113 13.9246 19.0981C13.9246 18.9849 13.8796 18.8763 13.7996 18.7963C13.7195 18.7162 13.611 18.6713 13.4978 18.6713H13.5333ZM8.86666 4.00967H19.822L21.9561 9.85724H6.73962L8.86666 4.00967ZM8.43983 15.1784H4.10751V13.4711H6.66137C7.12045 13.4725 7.56136 13.6506 7.89254 13.9685C8.22372 14.2865 8.41971 14.7197 8.43983 15.1784ZM7.67154 21.5808C7.6697 21.6935 7.62415 21.801 7.5445 21.8806C7.46484 21.9603 7.35734 22.0058 7.24471 22.0077H4.53434C4.42171 22.0058 4.3142 21.9603 4.23455 21.8806C4.1549 21.801 4.10934 21.6935 4.10751 21.5808V19.5249H7.66442L7.67154 21.5808Z" fill="black"/>
<path d="M13.5333 15.157H11.8687L11.1573 14.0259C11.1352 13.9667 11.1003 13.9132 11.055 13.8691C11.0097 13.8251 10.9552 13.7917 10.8954 13.7712C10.8357 13.7508 10.7721 13.7439 10.7093 13.751C10.6466 13.7581 10.5862 13.7791 10.5325 13.8124C10.4788 13.8457 10.4332 13.8904 10.3989 13.9435C10.3646 13.9966 10.3425 14.0566 10.3343 14.1192C10.326 14.1818 10.3317 14.2455 10.351 14.3056C10.3703 14.3658 10.4027 14.4209 10.4459 14.467L11.2569 15.8044C11.2946 15.8669 11.3478 15.9188 11.4113 15.9549C11.4749 15.991 11.5466 16.0102 11.6197 16.0107H13.5262C13.6394 16.0107 13.748 15.9657 13.828 15.8856C13.9081 15.8056 13.953 15.697 13.953 15.5838C13.953 15.4706 13.9081 15.3621 13.828 15.282C13.748 15.202 13.6394 15.157 13.5262 15.157H13.5333ZM25.4063 15.3846C25.1858 13.9619 22.7173 13.2505 20.3768 13.2505C17.9297 13.2505 15.326 14.0686 15.326 15.5838C15.3215 15.6454 15.3215 15.7072 15.326 15.7688V23.0178C15.326 24.533 17.9297 25.3511 20.3768 25.3511C22.824 25.3511 25.4276 24.533 25.4276 23.0178V15.5625C25.4334 15.5024 25.4261 15.4417 25.4063 15.3846ZM24.5953 20.4995V20.5635C24.5953 21.1824 23.0018 22.0432 20.3982 22.0432C17.7945 22.0432 16.201 21.1824 16.201 20.5635V19.4253C17.4834 20.1328 18.9346 20.4771 20.3982 20.4212C21.8617 20.4771 23.3129 20.1328 24.5953 19.4253V20.4995ZM16.2081 18.0381V16.9355C17.4866 17.6319 18.9291 17.971 20.3839 17.9172C21.8539 17.9739 23.311 17.6244 24.5953 16.907V18.0808C24.5953 18.6997 23.0018 19.5605 20.3982 19.5605C17.7945 19.5605 16.201 18.6997 16.201 18.0808L16.2081 18.0381ZM20.3839 14.097C22.9805 14.097 24.5811 14.9578 24.5811 15.5767C24.5811 16.1956 22.9805 17.0991 20.3839 17.0991C17.7874 17.0991 16.3148 16.2952 16.2081 15.6763V15.5909C16.2792 14.9222 17.8443 14.1041 20.3839 14.1041V14.097ZM20.3839 24.4903C17.7874 24.4903 16.1868 23.6296 16.1868 23.0107V21.8938C17.4692 22.6013 18.9203 22.9456 20.3839 22.8897C21.8475 22.9456 23.2986 22.6013 24.5811 21.8938V23.0107C24.5953 23.6367 23.0018 24.4975 20.3982 24.4975L20.3839 24.4903Z" fill="black"/>
</svg>
