<svg width="64" height="44" viewBox="0 0 64 44" fill="none" xmlns="http://www.w3.org/2000/svg">
<g clip-path="url(#clip0)">
<path fill-rule="evenodd" clip-rule="evenodd" d="M63.2528 15.6584C63.2528 15.6584 61.748 13.9323 61.748 12.0077C61.748 10.0832 63.1695 8.0625 63.1695 8.0625C60.2035 8.53996 57.1842 8.58742 54.2047 8.2034C54.2656 9.05842 54.3616 9.94545 54.4961 10.9029C54.5319 10.9677 54.5599 11.0365 54.5793 11.1079C54.6152 11.2525 54.6051 11.4047 54.5505 11.5434C54.4665 11.7299 54.3252 11.8847 54.1471 11.9853C53.9221 12.1133 53.6793 12.2072 53.4267 12.2639C52.8508 12.4011 52.3071 12.6491 51.8259 12.994C51.8066 13.8202 51.7746 14.6336 51.7362 15.4374C55.1044 16.4749 62.4139 16.1931 63.2368 15.6584" fill="white"/>
<path fill-rule="evenodd" clip-rule="evenodd" d="M0.662476 15.658C0.662476 15.658 2.17048 14.0568 2.17048 12.1355C2.17048 10.2141 0.748922 8.18701 0.748922 8.18701C3.73091 8.66731 6.76677 8.71261 9.76175 8.32151C9.69772 9.16051 9.60167 10.0315 9.4704 10.9634C9.43197 11.2324 9.63368 11.5014 9.91864 11.8216C10.0832 12.0295 10.3062 12.1834 10.559 12.2635C10.9766 12.3654 11.3776 12.526 11.75 12.7407C11.7692 13.6843 11.8012 14.614 11.8461 15.5299C8.34659 16.4554 1.4629 16.1768 0.662476 15.658Z" fill="white"/>
<path fill-rule="evenodd" clip-rule="evenodd" d="M51.6562 10.6208C51.5217 24.2306 50.1098 34.9839 32.9774 43.0889L31.8024 43.6461L30.6273 43.0889C13.3989 34.9423 12.0574 24.285 11.9453 10.6304C12.7778 10.6304 13.6134 10.5888 14.4523 10.56C14.5515 23.8591 15.6913 33.5301 31.8024 41.1099C47.9198 33.5269 49.0532 23.8527 49.1492 10.5439C49.9881 10.576 50.8237 10.6016 51.6562 10.6208Z" fill="white"/>
<path fill-rule="evenodd" clip-rule="evenodd" d="M11.718 10.6375C11.718 11.2556 11.718 11.8704 11.7436 12.4756C11.3864 12.2849 11.0067 12.1396 10.6134 12.0433C10.1908 11.9377 9.65289 11.342 9.71372 11.0826C9.77165 10.9469 9.873 10.8343 10.0019 10.7624C10.2052 10.6792 10.4225 10.6357 10.6422 10.6343C10.8023 10.6343 11.3338 10.6343 11.7212 10.6343L11.718 10.6375ZM54.3456 11.1019C54.4289 11.3292 54.4353 11.7775 53.3851 12.0401C52.8407 12.1734 52.3238 12.401 51.8579 12.7126C51.8579 12.0241 51.8835 11.326 51.8931 10.6247C52.1332 10.6247 53.1258 10.6631 53.3563 10.6535C53.576 10.6516 53.7938 10.694 53.9966 10.7784C54.1487 10.8402 54.2721 10.9568 54.3424 11.1051L54.3456 11.1019ZM50.3403 8.49838C50.3403 8.55603 50.3243 8.58805 50.3051 8.60086C50.2692 8.60856 50.2321 8.60856 50.1962 8.60086H50.0457C50.0069 8.60115 49.9685 8.59238 49.9337 8.57524C49.9145 8.57524 49.9081 8.52721 49.9113 8.47277L50.0297 6.64745C50.0297 6.59302 50.0297 6.55779 50.0649 6.54818C50.1018 6.53991 50.1401 6.53991 50.177 6.54818H50.3275C50.364 6.54742 50.4001 6.55509 50.4331 6.5706C50.4523 6.5706 50.462 6.61863 50.4588 6.67627L50.3403 8.49838ZM48.3584 8.49838C48.3196 8.49868 48.2812 8.4899 48.2464 8.47277C48.2272 8.47277 48.2208 8.42793 48.224 8.37029L48.3392 6.54498C48.3392 6.49054 48.3392 6.45532 48.3776 6.44571C48.4145 6.43744 48.4528 6.43744 48.4897 6.44571H48.6402C48.677 6.44558 48.7132 6.45437 48.7458 6.47133C48.765 6.47133 48.7746 6.51616 48.7714 6.5738L48.7298 7.18224H48.8547H48.9796C49.1063 7.18825 49.2315 7.21307 49.351 7.25589C49.4415 7.28843 49.5236 7.34097 49.5911 7.4096C49.6513 7.46983 49.6944 7.54499 49.716 7.62736C49.7395 7.71386 49.7481 7.80374 49.7416 7.89315C49.7364 7.97872 49.7181 8.06298 49.6871 8.14293C49.6547 8.22458 49.6044 8.29791 49.5399 8.35748C49.465 8.4256 49.375 8.47498 49.2773 8.50159C49.1486 8.53929 49.0137 8.55126 48.8803 8.53681L48.3584 8.49838ZM48.9219 7.53769H48.8227H48.7074L48.669 8.12692H48.8707C48.9821 8.14664 49.0968 8.12254 49.1909 8.05967C49.224 8.02973 49.2506 7.99318 49.2688 7.95237C49.287 7.91155 49.2964 7.86738 49.2965 7.8227C49.3003 7.78521 49.2956 7.74735 49.2829 7.71189C49.2701 7.67644 49.2496 7.64427 49.2229 7.61775C49.1339 7.55689 49.0254 7.53174 48.9187 7.5473L48.9219 7.53769ZM47.4876 7.35837C47.5558 7.37686 47.6206 7.40604 47.6797 7.44483C47.7731 7.50881 47.8385 7.60625 47.8622 7.71702C47.8685 7.76806 47.8685 7.81969 47.8622 7.87073C47.86 7.96795 47.8324 8.06289 47.7821 8.14613C47.7354 8.22158 47.6719 8.28516 47.5964 8.33187C47.5156 8.37994 47.4266 8.41252 47.3339 8.42793C47.2337 8.44738 47.1315 8.45383 47.0297 8.44715C46.9054 8.44039 46.7826 8.41669 46.6647 8.3767C46.5576 8.34157 46.4562 8.29085 46.3638 8.22619C46.3638 8.22619 46.3638 8.22619 46.3445 8.21018C46.3356 8.20391 46.3288 8.19493 46.3253 8.18456C46.3218 8.172 46.3218 8.15869 46.3253 8.14613C46.3273 8.12671 46.3339 8.10803 46.3445 8.09169L46.4278 7.94118C46.447 7.90596 46.4662 7.88995 46.4854 7.89635C46.5091 7.89944 46.5319 7.90705 46.5527 7.91877C46.6298 7.9584 46.7102 7.99161 46.7928 8.01804C46.8706 8.04314 46.9513 8.05821 47.0329 8.06287C47.1321 8.07592 47.2327 8.05444 47.3179 8.00203C47.3477 7.98065 47.3724 7.95288 47.3901 7.92074C47.4078 7.88861 47.4181 7.85293 47.4203 7.81629C47.4249 7.77613 47.4183 7.73549 47.4014 7.69879C47.3845 7.66209 47.3578 7.63073 47.3243 7.60814C47.2255 7.55613 47.1157 7.52867 47.0041 7.52809H46.844C46.7896 7.52809 46.7544 7.52809 46.7448 7.49286C46.7369 7.457 46.7369 7.41985 46.7448 7.38398V7.32314C46.7436 7.28559 46.7513 7.2483 46.7672 7.21426C46.7672 7.19505 46.8152 7.18544 46.8728 7.18864H47.0521C47.1105 7.19747 47.1699 7.19747 47.2282 7.18864C47.2706 7.1787 47.3101 7.15896 47.3435 7.131C47.3711 7.10871 47.3931 7.08018 47.4075 7.04774C47.4199 7.01484 47.4274 6.98033 47.4299 6.94527C47.4344 6.90476 47.4278 6.8638 47.4107 6.82678C47.3955 6.79566 47.3723 6.76913 47.3435 6.74993C47.3126 6.72902 47.2777 6.71484 47.241 6.7083C47.2012 6.69825 47.1604 6.69288 47.1194 6.69229C47.0378 6.6859 46.9556 6.69238 46.876 6.7115C46.7921 6.72969 46.7097 6.75431 46.6295 6.78515C46.6169 6.78841 46.6037 6.78841 46.5911 6.78515C46.5771 6.78207 46.5646 6.77413 46.5559 6.76274C46.54 6.73612 46.5291 6.70681 46.5238 6.67627C46.5207 6.64647 46.5207 6.61642 46.5238 6.58661C46.5275 6.53548 46.5466 6.48666 46.5786 6.44663C46.6106 6.4066 46.6541 6.37724 46.7031 6.36245C46.8493 6.31293 47.0041 6.29439 47.1578 6.30801C47.2518 6.31463 47.345 6.32963 47.4363 6.35284C47.5218 6.37262 47.6031 6.40731 47.6765 6.45532C47.7443 6.49997 47.8003 6.5604 47.8397 6.63144C47.8808 6.71023 47.8986 6.7991 47.891 6.88763C47.8841 6.9938 47.8475 7.0959 47.7853 7.18224C47.711 7.27879 47.604 7.34484 47.4844 7.36797L47.4876 7.35837ZM44.7213 7.44483L44.6797 7.72663L44.8173 7.47685L45.6274 6.38487C45.6529 6.35293 45.6819 6.32393 45.7138 6.2984C45.7485 6.27461 45.7903 6.26332 45.8323 6.26638H45.9956C46.0331 6.26524 46.0704 6.27291 46.1044 6.2888C46.1236 6.2888 46.1332 6.33683 46.13 6.39447L46.0308 8.21658C46.0308 8.27422 46.0308 8.30945 45.9956 8.31906C45.9587 8.32733 45.9204 8.32733 45.8835 8.31906H45.733C45.6966 8.31908 45.6606 8.31145 45.6274 8.29664C45.6082 8.29664 45.5985 8.24861 45.6017 8.19096L45.6626 7.06055C45.6626 7.06055 45.6626 7.06055 45.6626 7.01252C45.6626 6.96448 45.6626 6.94847 45.6626 6.91325C45.6626 6.87802 45.6626 6.84279 45.6786 6.81397C45.6946 6.78515 45.6786 6.76594 45.6786 6.76274L45.5505 7.01572L44.6957 8.16535C44.6775 8.18962 44.6559 8.21118 44.6316 8.22939C44.6186 8.2396 44.6037 8.24712 44.5878 8.25152C44.5718 8.25591 44.5552 8.2571 44.5388 8.25501H44.3595C44.323 8.25577 44.2868 8.2481 44.2538 8.23259C44.2314 8.23259 44.225 8.18456 44.225 8.13012L44.3243 6.30481C44.3243 6.24717 44.3403 6.21514 44.3627 6.20554C44.3972 6.1953 44.4339 6.1953 44.4683 6.20554H44.622C44.6597 6.20231 44.6975 6.21009 44.7309 6.22795C44.7501 6.22795 44.7565 6.27279 44.7533 6.33043L44.7213 7.44483ZM43.4406 6.55459L43.367 8.08849C43.367 8.14613 43.367 8.17815 43.3317 8.19096C43.2959 8.19887 43.2587 8.19887 43.2229 8.19096H43.0724C43.0347 8.19367 42.9971 8.18591 42.9635 8.16855C42.9443 8.16855 42.9347 8.12372 42.9379 8.06607L43.0084 6.52897L42.4673 6.50335C42.4128 6.50335 42.3776 6.50335 42.368 6.46813C42.3601 6.43335 42.3601 6.39723 42.368 6.36245V6.23116C42.3669 6.19361 42.3745 6.15632 42.3904 6.12228C42.3904 6.10306 42.4385 6.09346 42.4929 6.09666L44.0041 6.16711C44.0617 6.16711 44.0937 6.16711 44.1065 6.20233C44.1148 6.23924 44.1148 6.27751 44.1065 6.31441V6.44251C44.1073 6.47899 44.0996 6.51515 44.0841 6.54818C44.0841 6.5674 44.0361 6.577 43.9785 6.5738L43.4406 6.55459ZM41.5196 6.05823C41.6549 6.05993 41.789 6.08373 41.9166 6.12868C42.0107 6.16003 42.097 6.21137 42.1695 6.27919C42.2318 6.3394 42.278 6.41427 42.304 6.49695C42.3304 6.58297 42.3423 6.6728 42.3392 6.76274C42.3348 6.86149 42.3143 6.95885 42.2784 7.05094C42.2436 7.13825 42.1887 7.21613 42.1183 7.27831C42.0372 7.34631 41.9421 7.39552 41.8397 7.42241C41.7071 7.45657 41.5698 7.46954 41.4331 7.46084H41.3307H41.225L41.2026 8.01163C41.2026 8.06928 41.2026 8.1045 41.1674 8.11411C41.1316 8.12233 41.0943 8.12233 41.0585 8.11411H40.908C40.8695 8.11475 40.8313 8.10711 40.796 8.09169C40.7768 8.09169 40.7704 8.04686 40.7704 7.98922L40.8472 6.16391C40.8472 6.10627 40.8472 6.07424 40.8824 6.06143C40.9194 6.05442 40.9575 6.05442 40.9945 6.06143L41.5196 6.05823ZM41.4107 7.08617C41.4859 7.09066 41.5614 7.08419 41.6348 7.06696C41.6873 7.05406 41.7365 7.03003 41.7789 6.99651C41.8143 6.96881 41.8419 6.93239 41.8589 6.89083C41.8757 6.84797 41.8844 6.80236 41.8846 6.75633C41.889 6.71335 41.8836 6.66991 41.8686 6.62937C41.8536 6.58883 41.8295 6.55229 41.7981 6.52256C41.7048 6.45655 41.5921 6.42384 41.4779 6.4297H41.2666L41.241 7.07016H41.3339L41.4107 7.08617ZM39.4897 7.18224V7.66899L40.2997 7.69461C40.3573 7.69461 40.3926 7.69461 40.4022 7.72663C40.4105 7.76352 40.4105 7.80182 40.4022 7.83871V7.94439C40.4029 7.98055 40.3964 8.01649 40.383 8.05006C40.3701 8.06928 40.3349 8.07888 40.2773 8.07888L39.1791 8.04046C39.1407 8.04379 39.1021 8.03717 39.067 8.02124C39.0478 8.02124 39.0382 7.97321 39.0414 7.91877L39.1023 6.09025C39.1023 6.03581 39.1023 6.00059 39.1343 5.99098C39.1709 5.98073 39.2097 5.98073 39.2463 5.99098L40.3477 6.02621C40.4022 6.02621 40.4374 6.02621 40.447 6.05823C40.4554 6.09512 40.4554 6.13342 40.447 6.17031V6.27599C40.4494 6.31226 40.4428 6.34855 40.4278 6.38166C40.4278 6.40088 40.3797 6.41048 40.3253 6.41048L39.5121 6.38166V6.81397L40.1524 6.83319C40.2101 6.83319 40.2421 6.83319 40.2549 6.86841C40.2638 6.90524 40.2638 6.94367 40.2549 6.98049V7.08297C40.2563 7.11918 40.2498 7.15526 40.2357 7.18864C40.2357 7.21106 40.1876 7.21746 40.13 7.21746L39.4897 7.18224ZM38.4811 7.89955C38.4811 7.95399 38.4811 7.98922 38.4491 8.00203C38.4131 8.00865 38.3762 8.00865 38.3403 8.00203H38.1866C38.1492 8.0054 38.1117 7.99877 38.0777 7.98281C38.0585 7.98281 38.0521 7.93478 38.0521 7.88034L38.0873 6.31762L37.2261 6.2984L37.1908 7.85792C37.1908 7.91557 37.1908 7.95079 37.1556 7.9604C37.1224 7.9747 37.086 7.98021 37.05 7.97641H36.8995C36.8609 7.97736 36.8226 7.96971 36.7874 7.95399C36.7682 7.95399 36.7586 7.90916 36.7586 7.85152L36.8034 6.02621C36.8034 5.96857 36.8034 5.93654 36.8355 5.92373C36.8723 5.91501 36.9107 5.91501 36.9475 5.92373L38.3883 5.95576C38.4255 5.95474 38.4625 5.96127 38.4971 5.97497C38.5164 5.97497 38.526 6.02301 38.526 6.07745L38.4811 7.89955ZM36.4448 6.19913C36.4441 6.23071 36.4387 6.262 36.4288 6.292C36.4179 6.32335 36.4016 6.35259 36.3808 6.37846C36.3697 6.38815 36.3555 6.39348 36.3408 6.39348C36.3261 6.39348 36.3118 6.38815 36.3008 6.37846C36.2162 6.33296 36.1272 6.29647 36.035 6.26958C35.9488 6.24383 35.8593 6.23088 35.7693 6.23116C35.6826 6.22916 35.5961 6.24105 35.5131 6.26638C35.4366 6.29169 35.3659 6.33197 35.305 6.38487C35.2444 6.44455 35.1975 6.51665 35.1674 6.59622C35.128 6.69824 35.1094 6.80714 35.1129 6.91645C35.1074 7.02507 35.1226 7.13376 35.1578 7.23668C35.1871 7.31871 35.2328 7.3939 35.2922 7.45764C35.3456 7.51596 35.4128 7.56 35.4875 7.58573C35.562 7.61515 35.6412 7.63036 35.7213 7.63056C35.8188 7.63119 35.9163 7.62369 36.0126 7.60814C36.1087 7.59114 36.2023 7.56209 36.2912 7.52168C36.3121 7.51563 36.3343 7.51563 36.3552 7.52168C36.3675 7.52561 36.3788 7.53225 36.3882 7.54111C36.3977 7.54998 36.405 7.56085 36.4096 7.57292L36.4705 7.70742C36.4767 7.71985 36.4799 7.73355 36.4799 7.74745C36.4799 7.76134 36.4767 7.77504 36.4705 7.78747C36.4589 7.81366 36.44 7.83591 36.416 7.85152C36.3044 7.91824 36.182 7.96485 36.0542 7.98922C35.933 8.01347 35.8096 8.02527 35.686 8.02444C35.5452 8.02349 35.4055 7.99858 35.273 7.95079C35.1531 7.90727 35.0439 7.83847 34.9528 7.74905C34.8565 7.65244 34.7831 7.53531 34.7383 7.4064C34.6827 7.25367 34.6566 7.09174 34.6615 6.92926C34.6622 6.78049 34.6893 6.63302 34.7415 6.49374C34.7887 6.36789 34.8618 6.25334 34.956 6.1575C35.0543 6.06317 35.1709 5.99012 35.2986 5.94295C35.445 5.89346 35.5988 5.86962 35.7533 5.8725C35.8316 5.87278 35.9097 5.87921 35.987 5.89171C36.0649 5.89924 36.1414 5.91756 36.2143 5.94615C36.2777 5.96899 36.3355 6.00501 36.384 6.05183C36.4239 6.09424 36.4457 6.15052 36.4448 6.20874V6.19913ZM33.32 6.7147H33.5569L33.9795 5.97497C33.9947 5.94842 34.0154 5.92547 34.0404 5.90772C34.0757 5.89256 34.1141 5.88597 34.1524 5.88851H34.3509C34.3696 5.88607 34.3885 5.88797 34.4063 5.89409C34.4241 5.9002 34.4402 5.91035 34.4534 5.92373C34.4534 5.94615 34.4534 5.98138 34.431 6.02301L33.9059 6.88442L34.5238 7.8195C34.532 7.83361 34.5363 7.84963 34.5363 7.86593C34.5363 7.88223 34.532 7.89825 34.5238 7.91236C34.5183 7.92609 34.5084 7.9376 34.4957 7.94513C34.4829 7.95265 34.4681 7.95577 34.4534 7.95399H34.194C34.1632 7.95784 34.132 7.95784 34.1012 7.95399C34.0675 7.9412 34.04 7.91599 34.0243 7.88354L33.5889 7.18224C33.5725 7.15369 33.5494 7.12953 33.5217 7.11179C33.4928 7.09772 33.4609 7.09112 33.4288 7.09257H33.32V7.83871C33.32 7.89635 33.32 7.93158 33.288 7.94118C33.2535 7.95511 33.2161 7.9606 33.1791 7.9572H33.0286C32.9916 7.95951 32.9545 7.95406 32.9198 7.94118C32.8973 7.94118 32.8877 7.89315 32.8877 7.83871V6.0102C32.8877 5.95576 32.8877 5.92053 32.9166 5.90772C32.9525 5.89519 32.9906 5.88975 33.0286 5.89171H33.1791C33.2164 5.88906 33.2538 5.89566 33.288 5.91092C33.3072 5.91092 33.32 5.95576 33.3168 6.0134L33.32 6.7147ZM31.2389 7.06055C31.1844 7.06055 31.1492 7.06055 31.1364 7.02853C31.1295 6.99257 31.1295 6.95561 31.1364 6.91965V6.8556C31.1331 6.81721 31.1397 6.77861 31.1556 6.74352C31.1556 6.72431 31.2004 6.7147 31.2581 6.7147H32.0905C32.0879 6.63118 32.0671 6.54923 32.0297 6.47453C31.9972 6.41459 31.9511 6.36306 31.8952 6.32402C31.8401 6.28586 31.7781 6.25868 31.7127 6.24396C31.6412 6.22844 31.5682 6.22092 31.495 6.22155C31.4121 6.22147 31.3295 6.23005 31.2485 6.24717C31.1797 6.26274 31.1131 6.28639 31.05 6.31762L30.9795 6.34644C30.9635 6.34644 30.9475 6.34644 30.9251 6.30481C30.9101 6.28422 30.8983 6.26156 30.8899 6.23756C30.876 6.20868 30.8705 6.17653 30.8739 6.14469C30.8727 6.11471 30.8781 6.08483 30.8897 6.05716C30.9013 6.02949 30.9188 6.00472 30.9411 5.98458C30.9885 5.94259 31.0441 5.91096 31.1044 5.89171C31.1717 5.86852 31.2416 5.85347 31.3125 5.84688H31.511C31.6512 5.84581 31.7907 5.86743 31.924 5.91092C32.0437 5.94875 32.1532 6.01337 32.2442 6.09986C32.3338 6.19139 32.4035 6.3004 32.4491 6.42009C32.4998 6.57171 32.5236 6.73101 32.5195 6.89083C32.5229 7.05635 32.4969 7.22115 32.4427 7.37758C32.3945 7.50507 32.3228 7.62239 32.2314 7.72343C32.1408 7.81342 32.0315 7.8823 31.9112 7.92517C31.7904 7.97026 31.6624 7.99304 31.5334 7.99242H31.3573C31.2946 7.98527 31.2326 7.9735 31.1716 7.9572C31.1094 7.94127 31.0484 7.92093 30.9891 7.89635C30.9316 7.87118 30.8769 7.84005 30.8258 7.80349C30.8044 7.7895 30.7877 7.76942 30.7778 7.74584C30.7722 7.73439 30.7692 7.72179 30.7692 7.70902C30.7692 7.69625 30.7722 7.68365 30.7778 7.67219L30.845 7.53449C30.8643 7.49927 30.8835 7.47685 30.8995 7.47365C30.9243 7.4736 30.9486 7.48023 30.9699 7.49286C31.0504 7.5308 31.1339 7.56187 31.2196 7.58573C31.31 7.60659 31.4023 7.61733 31.495 7.61775C31.5622 7.61784 31.6291 7.60814 31.6935 7.58893C31.7591 7.56922 31.82 7.53655 31.8728 7.49286C31.9275 7.44483 31.973 7.38734 32.0073 7.32314C32.0442 7.24485 32.0649 7.15988 32.0681 7.07336L31.2389 7.06055ZM28.3573 7.14061L28.3349 7.42241L28.4566 7.16302L29.193 6.0166C29.2154 5.98224 29.2423 5.95101 29.273 5.92373C29.305 5.89657 29.3463 5.88281 29.3883 5.88531H29.5515C29.5883 5.87622 29.6268 5.87622 29.6636 5.88531C29.686 5.88531 29.6956 5.93014 29.6956 5.98778L29.718 7.81309C29.718 7.87073 29.718 7.90276 29.6892 7.91557C29.6541 7.9315 29.6155 7.93812 29.5772 7.93478H29.4267C29.3918 7.94177 29.3559 7.94177 29.321 7.93478C29.2986 7.93478 29.289 7.88674 29.289 7.83231V6.69869C29.289 6.69869 29.289 6.69869 29.289 6.65066C29.289 6.60262 29.289 6.58661 29.289 6.55139C29.289 6.51616 29.289 6.48093 29.289 6.44891C29.288 6.43292 29.288 6.41687 29.289 6.40088L29.1801 6.66026L28.4021 7.86433C28.3837 7.88831 28.3633 7.91079 28.3413 7.93158C28.3288 7.94291 28.3141 7.9516 28.2982 7.9571C28.2822 7.96261 28.2653 7.96482 28.2484 7.9636H28.0692C28.0332 7.96575 27.9972 7.9603 27.9635 7.94759C27.9411 7.94759 27.9315 7.90276 27.9283 7.84511L27.9123 6.0166C27.9123 5.95896 27.9123 5.92373 27.9443 5.91413C27.9772 5.89844 28.0136 5.89181 28.0499 5.89491H28.1972C28.2353 5.89261 28.2734 5.89806 28.3093 5.91092C28.3285 5.91092 28.3381 5.95576 28.3381 6.0134L28.3573 7.14061ZM28.8152 5.83087C28.6807 5.83487 28.5477 5.80162 28.4309 5.7348C28.384 5.70882 28.3409 5.67649 28.3029 5.63873C28.2686 5.60955 28.2394 5.57493 28.2164 5.53626C28.2 5.51744 28.1899 5.4939 28.1876 5.46901C28.1876 5.44659 28.1876 5.42418 28.2388 5.39535L28.3477 5.31209C28.3829 5.28327 28.4117 5.27687 28.4309 5.28648C28.4567 5.30147 28.4794 5.321 28.4982 5.34412C28.5405 5.39492 28.5902 5.43917 28.6455 5.47541C28.6941 5.50352 28.7493 5.51831 28.8055 5.51831C28.8617 5.51831 28.917 5.50352 28.9656 5.47541C29.0198 5.43769 29.0683 5.3924 29.1097 5.34092C29.1258 5.3157 29.1477 5.2948 29.1737 5.28007C29.1962 5.28007 29.2218 5.28007 29.2602 5.30249L29.3691 5.38255C29.4075 5.41137 29.4235 5.43378 29.4235 5.4562C29.4212 5.4815 29.4123 5.50577 29.3979 5.52665C29.3733 5.56324 29.3454 5.59754 29.3146 5.62912C29.2775 5.66888 29.2343 5.7024 29.1866 5.72839C29.0699 5.79666 28.9375 5.8331 28.8023 5.83407L28.8152 5.83087ZM25.3925 6.99651C25.3876 6.85779 25.406 6.71924 25.4469 6.58661C25.4849 6.45838 25.5493 6.33949 25.6358 6.23756C25.7246 6.13516 25.8336 6.05229 25.956 5.99418C26.106 5.93041 26.267 5.89669 26.4299 5.89491C26.5924 5.88855 26.7546 5.91467 26.9069 5.97177C27.0345 6.02305 27.1493 6.10176 27.2431 6.20233C27.3339 6.29906 27.4037 6.41355 27.448 6.53858C27.4937 6.66946 27.5185 6.80669 27.5217 6.94527C27.5267 7.08399 27.5083 7.22257 27.4672 7.35516C27.4292 7.4834 27.3649 7.60228 27.2783 7.70421C27.19 7.80703 27.0809 7.88997 26.9582 7.94759C26.8087 8.01286 26.6474 8.04666 26.4843 8.04686C26.3218 8.05323 26.1596 8.0271 26.0072 7.97001C25.886 7.91708 25.777 7.83967 25.6871 7.74264C25.5959 7.64498 25.5261 7.52937 25.4822 7.4032C25.4295 7.27368 25.3992 7.13616 25.3925 6.99651ZM27.0766 6.95808C27.0753 6.86562 27.0602 6.77389 27.0318 6.68588C27.0073 6.60707 26.967 6.53407 26.9133 6.47133C26.8621 6.40693 26.7947 6.35722 26.718 6.32722C26.6312 6.29028 26.5369 6.27384 26.4427 6.27919C26.3486 6.27923 26.2557 6.3 26.1705 6.34003C26.0969 6.37363 26.033 6.42542 25.9848 6.49054C25.9329 6.55659 25.8958 6.63304 25.876 6.7147C25.8518 6.80333 25.841 6.89508 25.844 6.9869C25.8453 7.07831 25.8604 7.16899 25.8888 7.25589C25.9137 7.3355 25.954 7.40947 26.0072 7.47365C26.0595 7.53624 26.1267 7.58469 26.2026 7.61455C26.2884 7.65123 26.3815 7.66767 26.4747 7.66258C26.5688 7.66255 26.6617 7.64177 26.7468 7.60174C26.8215 7.56824 26.8864 7.51648 26.9357 7.45123C26.9877 7.38518 27.0248 7.30873 27.0446 7.22707C27.0686 7.1395 27.0794 7.04884 27.0766 6.95808ZM25.0243 7.91877C25.0243 7.97641 25.0243 8.01163 24.9955 8.02124C24.9625 8.03675 24.9263 8.04442 24.8898 8.04366H24.7362C24.6991 8.05067 24.6611 8.05067 24.6241 8.04366C24.6049 8.04366 24.5953 7.99883 24.5921 7.94118L24.5665 7.19505L23.6764 7.22707L23.7148 7.97001C23.7148 8.02765 23.7148 8.05967 23.686 8.07248C23.6528 8.08728 23.6167 8.09492 23.5803 8.09489H23.4299C23.3921 8.1048 23.3524 8.1048 23.3146 8.09489C23.2954 8.09489 23.2858 8.05006 23.2826 7.99562L23.2186 6.17031C23.2186 6.11267 23.2186 6.07744 23.2442 6.06464C23.2797 6.05032 23.3179 6.04377 23.3562 6.04542H23.5067C23.5414 6.03712 23.5776 6.03712 23.6124 6.04542C23.6348 6.04542 23.6476 6.09025 23.6476 6.1479L23.6732 6.846L24.5633 6.81397L24.5377 6.11587C24.5377 6.05823 24.5377 6.02301 24.5633 6.0134C24.5972 5.99716 24.6346 5.98946 24.6721 5.99098H24.8258C24.8607 5.98432 24.8966 5.98432 24.9315 5.99098C24.9539 5.99098 24.9667 6.03581 24.9667 6.09346L25.0243 7.91877ZM22.0083 7.20465H21.9571H21.893H21.8226H21.765L21.7938 7.79388H22.0083C22.1226 7.80131 22.2359 7.76845 22.3285 7.70101C22.3594 7.67177 22.3831 7.63568 22.3975 7.59563C22.412 7.55559 22.4168 7.51271 22.4117 7.47045C22.4122 7.43431 22.4056 7.39844 22.3925 7.36477C22.3779 7.33155 22.3547 7.30282 22.3253 7.28151C22.2894 7.25701 22.2492 7.23962 22.2068 7.23027C22.1418 7.21473 22.0751 7.20721 22.0083 7.20786V7.20465ZM21.733 6.48094V6.85881H21.7906H21.8642H21.9379H21.9955C22.1234 6.85153 22.2516 6.86232 22.3765 6.89083C22.4704 6.91302 22.5587 6.95446 22.6358 7.01252C22.7008 7.06403 22.7515 7.13126 22.7831 7.20786C22.8183 7.2876 22.8368 7.37369 22.8376 7.46084C22.844 7.54623 22.8342 7.63207 22.8087 7.71382C22.7856 7.79677 22.744 7.87341 22.6871 7.93798C22.6177 8.01127 22.5337 8.0691 22.4405 8.1077C22.3154 8.1542 22.1834 8.17911 22.0499 8.18136L21.4992 8.20377C21.4612 8.21172 21.422 8.21172 21.384 8.20377C21.3648 8.20377 21.3552 8.15894 21.352 8.1013L21.2751 6.27599C21.2751 6.21835 21.2751 6.18632 21.3007 6.17351C21.3359 6.1578 21.3742 6.15014 21.4128 6.1511L22.5302 6.10306C22.5878 6.10306 22.623 6.10306 22.6358 6.12868C22.6498 6.16435 22.6563 6.20248 22.6551 6.24076V6.34324C22.6617 6.37923 22.6617 6.41612 22.6551 6.45211C22.6551 6.47453 22.6102 6.48414 22.5526 6.48734L21.733 6.48094ZM20.0393 7.37438L20.0617 7.85792L20.8717 7.8195C20.9293 7.8195 20.9645 7.8195 20.9742 7.84511C20.9915 7.87875 21.0003 7.91615 20.9998 7.95399V8.05967C21.0096 8.0942 21.0096 8.13081 20.9998 8.16535C20.9998 8.18776 20.9581 8.20057 20.9005 8.20377L19.7927 8.25821C19.7558 8.26649 19.7176 8.26649 19.6807 8.25821C19.6582 8.25821 19.6486 8.21338 19.6454 8.15574L19.5526 6.33683C19.5526 6.27919 19.5526 6.24396 19.5782 6.23116C19.6122 6.21527 19.6495 6.20759 19.6871 6.20874L20.7852 6.1543C20.8429 6.1543 20.8781 6.1543 20.8909 6.17992C20.9066 6.21515 20.9143 6.25344 20.9133 6.292V6.39447C20.9212 6.43034 20.9212 6.46749 20.9133 6.50335C20.9133 6.52256 20.8685 6.53537 20.8109 6.53858L20.0008 6.577L20.0232 7.00931L20.6636 6.97729C20.7212 6.97729 20.7532 6.97729 20.766 7.00291C20.7834 7.03644 20.7912 7.07412 20.7885 7.11179V7.21746C20.7968 7.2522 20.7968 7.2884 20.7885 7.32314C20.7885 7.34556 20.7436 7.35837 20.6892 7.36157L20.0393 7.37438ZM17.9517 6.67307C17.9517 6.79476 17.9517 6.91965 17.9517 7.04134C17.9489 7.16134 17.9392 7.28108 17.9229 7.4C17.9096 7.50772 17.8904 7.61463 17.8653 7.72023C17.8443 7.8095 17.8142 7.89641 17.7756 7.97961L18.5729 7.93798L18.5024 6.65706L17.9517 6.67307ZM17.0905 8.14293C17.0905 8.08529 17.0905 8.05006 17.1161 8.03725C17.1504 8.02219 17.1875 8.01455 17.2249 8.01484H17.321C17.3711 7.92799 17.4109 7.83556 17.4395 7.73944C17.4739 7.6252 17.4995 7.50851 17.5163 7.39039C17.5355 7.24913 17.5472 7.10697 17.5515 6.96448C17.5515 6.81077 17.5515 6.64425 17.5515 6.45532V6.38807C17.5478 6.37443 17.5478 6.36007 17.5515 6.34644C17.5622 6.3336 17.5768 6.3246 17.5931 6.32082C17.6198 6.31827 17.6466 6.31827 17.6732 6.32082L18.7586 6.25998C18.7952 6.24973 18.834 6.24973 18.8706 6.25998C18.8898 6.25998 18.8994 6.30481 18.9026 6.35925L18.9891 7.91877H19.1332C19.168 7.91103 19.204 7.91103 19.2388 7.91877C19.2612 7.91877 19.274 7.9636 19.2772 8.02124L19.3125 8.6617C19.3125 8.71614 19.3125 8.75137 19.2868 8.76418C19.2536 8.77898 19.2176 8.78662 19.1812 8.78659H19.1076C19.0705 8.79361 19.0325 8.79361 18.9955 8.78659C18.9763 8.78659 18.9635 8.74176 18.9603 8.68732L18.9411 8.31585L17.4491 8.39911L17.4683 8.77058C17.4683 8.82502 17.4683 8.86024 17.4459 8.87305C17.4106 8.88877 17.3724 8.89643 17.3338 8.89547H17.2634C17.2275 8.90337 17.1904 8.90337 17.1545 8.89547C17.1321 8.89547 17.1193 8.85064 17.1161 8.7962L17.0905 8.14293ZM16.5526 7.74264C16.5078 7.87073 16.4661 7.97961 16.4309 8.06287C16.3993 8.14354 16.3596 8.22079 16.3125 8.29344C16.2734 8.34985 16.2233 8.39778 16.1652 8.43434C16.1019 8.46784 16.0318 8.48645 15.9603 8.48878C15.9028 8.49528 15.8448 8.49528 15.7874 8.48878C15.7446 8.48516 15.7025 8.47545 15.6625 8.45996C15.6394 8.45026 15.6179 8.43732 15.5985 8.42153C15.5761 8.40552 15.5761 8.37029 15.5985 8.32226L15.6369 8.17175C15.6434 8.14405 15.6554 8.11792 15.6721 8.09489C15.6721 8.09489 15.7105 8.09489 15.7554 8.09489H15.8258H15.9058C15.9464 8.09401 15.9852 8.07802 16.0147 8.05006C16.0429 8.00807 16.0635 7.96147 16.0755 7.91236L15.2751 6.59622C15.2531 6.56569 15.2439 6.52776 15.2495 6.49054C15.2495 6.45852 15.2847 6.4393 15.3391 6.4361L15.5985 6.42009C15.6257 6.41275 15.6545 6.41275 15.6817 6.42009C15.71 6.4362 15.7324 6.46087 15.7458 6.49054L16.2772 7.50247L16.5366 6.44251C16.5386 6.42737 16.5436 6.41277 16.5513 6.39958C16.559 6.38639 16.5692 6.37485 16.5814 6.36565C16.6058 6.35166 16.6333 6.34396 16.6614 6.34324H16.8888C16.9108 6.33754 16.9339 6.33754 16.956 6.34324C16.9694 6.34926 16.9806 6.35934 16.988 6.37206C16.9929 6.38769 16.9929 6.40446 16.988 6.42009C16.9909 6.4392 16.9909 6.45862 16.988 6.47773L16.5526 7.74264ZM15.1694 6.74993C15.174 6.78072 15.174 6.812 15.1694 6.84279C15.1616 6.87513 15.1475 6.9056 15.1278 6.93246C15.1278 6.95488 15.0862 6.95808 15.0478 6.93246C14.9596 6.89248 14.8672 6.86241 14.7724 6.84279C14.6851 6.82492 14.5957 6.81846 14.5067 6.82358C14.4198 6.82874 14.3343 6.84821 14.2538 6.88122C14.1794 6.91077 14.1126 6.95675 14.0584 7.01572C14.0007 7.07905 13.9581 7.15457 13.9336 7.23668C13.9057 7.34098 13.8959 7.4493 13.9048 7.55691C13.9074 7.6672 13.9313 7.77594 13.9752 7.87714C14.0098 7.95749 14.0611 8.02955 14.1257 8.08849C14.1841 8.13984 14.2529 8.17806 14.3274 8.20057C14.4042 8.22343 14.4844 8.23211 14.5643 8.22619C14.6617 8.22164 14.7583 8.20661 14.8525 8.18136C14.9479 8.15821 15.0395 8.12155 15.1246 8.07248C15.1466 8.06633 15.1699 8.06633 15.1919 8.07248C15.204 8.07585 15.2152 8.08193 15.2246 8.09025C15.234 8.09857 15.2414 8.10892 15.2463 8.12051L15.3199 8.2486C15.3253 8.26127 15.3281 8.27488 15.3281 8.28863C15.3281 8.30239 15.3253 8.316 15.3199 8.32866C15.3098 8.3556 15.292 8.37898 15.2687 8.39591C15.1628 8.47111 15.0448 8.52745 14.9197 8.56243C14.8004 8.59486 14.6781 8.61524 14.5547 8.62327C14.4148 8.6337 14.2741 8.62072 14.1385 8.58485C14.0088 8.54716 13.8894 8.48035 13.7895 8.38951C13.6869 8.30171 13.6049 8.19237 13.5494 8.06928C13.483 7.92074 13.445 7.76107 13.4373 7.59854C13.4255 7.44973 13.4406 7.30001 13.4821 7.15662C13.5191 7.02798 13.5836 6.90889 13.671 6.80757C13.7584 6.70448 13.8678 6.6224 13.9912 6.5674C14.1328 6.50427 14.2847 6.46738 14.4394 6.45852C14.5131 6.45852 14.5899 6.45852 14.6732 6.45852C14.7514 6.46087 14.8289 6.4738 14.9037 6.49695C14.968 6.5143 15.0279 6.54484 15.0798 6.58661C15.1056 6.60606 15.1271 6.63059 15.1431 6.65867C15.1591 6.68676 15.1691 6.71781 15.1726 6.74993H15.1694ZM51.6914 3.77499C51.6851 3.81856 51.6896 3.86302 51.7047 3.90439C51.7198 3.94575 51.7449 3.98271 51.7779 4.01196C51.8644 4.06916 51.9655 4.10028 52.0692 4.10162L52.2773 4.11764L52.3189 3.50279L52.1204 3.48678C52.0672 3.48196 52.0136 3.48196 51.9604 3.48678C51.9148 3.49232 51.8704 3.5053 51.8291 3.52521C51.7898 3.54624 51.7567 3.57714 51.733 3.61487C51.7071 3.66436 51.6929 3.71914 51.6914 3.77499ZM52.6135 3.13453C52.6482 3.13466 52.6823 3.14347 52.7128 3.16015C52.732 3.16015 52.7384 3.20498 52.7352 3.26262L52.6167 5.08473C52.6167 5.14237 52.6007 5.1744 52.5815 5.184C52.5482 5.195 52.5123 5.195 52.479 5.184H52.3382C52.3024 5.18427 52.2671 5.17546 52.2357 5.15838C52.2197 5.15838 52.2101 5.11035 52.2165 5.05591L52.2549 4.43787L52.0532 4.42185C52.0265 4.41804 51.9993 4.4237 51.9764 4.43787C51.9544 4.45565 51.9359 4.47737 51.9219 4.50191L51.6018 5.0463C51.5862 5.07502 51.5614 5.0976 51.5313 5.11035C51.4932 5.11732 51.4542 5.11732 51.4161 5.11035H51.1983C51.181 5.1106 51.1639 5.1063 51.1487 5.09787C51.1335 5.08944 51.1209 5.07718 51.1119 5.06232C51.1119 5.0367 51.1119 4.99507 51.1471 4.94703L51.5697 4.31938C51.4593 4.26444 51.3728 4.17106 51.3264 4.05679C51.2859 3.94515 51.2695 3.82618 51.2784 3.70774C51.2805 3.59467 51.3126 3.48418 51.3712 3.38751C51.4224 3.31047 51.4903 3.2459 51.5697 3.19858C51.6534 3.15305 51.7444 3.12269 51.8387 3.10891C51.9398 3.09767 52.0418 3.09767 52.1428 3.10891L52.6135 3.13453ZM49.5559 4.14646L49.5142 4.42826L49.6455 4.17848L50.4171 3.10251C50.4396 3.07006 50.4666 3.04096 50.4972 3.01604C50.513 3.00408 50.5311 2.99538 50.5503 2.99043C50.5696 2.98548 50.5896 2.98439 50.6092 2.98722H50.7597C50.7953 2.98805 50.8303 2.9968 50.8622 3.01284C50.8814 3.01284 50.8878 3.06088 50.8846 3.11852L50.7693 4.94063C50.7693 4.99827 50.7533 5.03029 50.7341 5.0399C50.6994 5.04808 50.6632 5.04808 50.6284 5.0399H50.4908C50.4561 5.03977 50.422 5.03096 50.3915 5.01428C50.3723 5.01428 50.3659 4.96625 50.3691 4.91181L50.4395 3.78139C50.4395 3.78139 50.4395 3.76218 50.4395 3.73336C50.4395 3.70454 50.4395 3.66931 50.4395 3.63409C50.4395 3.59886 50.4395 3.56364 50.4556 3.53482C50.4716 3.506 50.4556 3.48678 50.4556 3.48678L50.3339 3.73656L49.5238 4.87338L49.463 4.93422C49.4506 4.94434 49.4362 4.95182 49.4208 4.95622C49.4054 4.96063 49.3893 4.96186 49.3734 4.95984H49.2069C49.1725 4.96044 49.1384 4.95275 49.1076 4.93743C49.0884 4.93743 49.082 4.88939 49.0852 4.83175L49.2005 3.00964C49.2005 2.952 49.2005 2.91998 49.2357 2.91037C49.2694 2.90246 49.3045 2.90246 49.3382 2.91037H49.479C49.5148 2.90966 49.5502 2.9185 49.5815 2.93599C49.5815 2.93599 49.6039 2.98082 49.6007 3.03846L49.5559 4.14646ZM48.1471 2.8143C48.272 2.821 48.3951 2.84692 48.5121 2.89115C48.6015 2.92727 48.6822 2.98183 48.749 3.05127C48.8057 3.11435 48.8463 3.19014 48.8675 3.27223C48.8907 3.35879 48.8994 3.44861 48.8931 3.53802C48.8887 3.63677 48.8682 3.73414 48.8323 3.82623C48.7985 3.91142 48.7447 3.98722 48.6754 4.04719C48.5999 4.11299 48.5099 4.16016 48.4129 4.18488C48.2898 4.21805 48.1619 4.2289 48.0351 4.21691H47.939L47.8397 4.2009L47.8077 4.75169C47.8077 4.80933 47.7917 4.84136 47.7725 4.85096C47.7399 4.8591 47.7058 4.8591 47.6733 4.85096H47.5324C47.4968 4.85013 47.4618 4.84138 47.4299 4.82534C47.4107 4.82534 47.4043 4.77731 47.4075 4.71967L47.5164 2.89756C47.5164 2.83992 47.5164 2.80789 47.5484 2.79829C47.5831 2.79011 47.6193 2.79011 47.654 2.79829L48.1471 2.8143ZM48.019 3.83904C48.089 3.85117 48.1604 3.85117 48.2304 3.83904C48.2792 3.82586 48.325 3.80299 48.3648 3.77179C48.3994 3.74401 48.4259 3.70753 48.4417 3.66611C48.4583 3.6242 48.4681 3.57985 48.4705 3.53482C48.4755 3.49211 48.4713 3.44882 48.458 3.40791C48.4448 3.367 48.4228 3.32945 48.3936 3.29785C48.3105 3.23026 48.2062 3.194 48.0991 3.19537H47.9006L47.8622 3.83583L47.9486 3.85185L48.019 3.83904ZM45.1087 3.6501C45.1166 3.51226 45.1447 3.37633 45.1919 3.24661C45.2378 3.12781 45.3063 3.01905 45.3936 2.92638C45.483 2.8311 45.5924 2.75674 45.7138 2.70862C45.8558 2.65546 46.008 2.63573 46.1588 2.65098C46.3119 2.65594 46.4618 2.69534 46.5975 2.76626C46.7137 2.82835 46.8152 2.91462 46.8952 3.01925C46.9725 3.12586 47.028 3.24664 47.0585 3.3747C47.0865 3.50617 47.0962 3.64087 47.0873 3.77499C47.0794 3.91283 47.0514 4.04876 47.0041 4.17848C46.9582 4.29728 46.8897 4.40604 46.8024 4.49871C46.7131 4.59333 46.6037 4.66666 46.4822 4.71326C46.3391 4.76607 46.186 4.78684 46.034 4.77411C45.882 4.76911 45.7331 4.7297 45.5985 4.65883C45.4822 4.59564 45.3806 4.5083 45.3008 4.40264C45.223 4.29756 45.1674 4.1777 45.1375 4.05039C45.1094 3.91786 45.0997 3.78208 45.1087 3.6469V3.6501ZM46.6775 3.74937C46.6841 3.65819 46.6776 3.56653 46.6583 3.47718C46.6406 3.39765 46.6091 3.3218 46.5655 3.25301C46.5218 3.18628 46.4624 3.1313 46.3926 3.0929C46.3148 3.05183 46.2292 3.02773 46.1415 3.02221C46.0537 3.01669 45.9658 3.02987 45.8835 3.06088C45.8118 3.09028 45.7481 3.13639 45.6978 3.19537C45.6453 3.2589 45.6051 3.33167 45.5793 3.40993C45.5511 3.49588 45.535 3.58533 45.5313 3.67572C45.5244 3.7669 45.5308 3.85861 45.5505 3.94791C45.5665 4.02898 45.598 4.10619 45.6434 4.17528C45.6868 4.24107 45.7449 4.29588 45.8131 4.33539C45.8912 4.37721 45.9775 4.40126 46.066 4.40584C46.1532 4.41209 46.2406 4.39897 46.3221 4.36742C46.395 4.3369 46.4597 4.28974 46.511 4.22972C46.5631 4.16765 46.6023 4.09579 46.6263 4.01836C46.6556 3.93036 46.6728 3.8388 46.6775 3.74617V3.74937ZM44.4587 2.99043L44.3819 4.52433C44.3819 4.58197 44.3819 4.6172 44.3499 4.6268C44.3162 4.6346 44.2811 4.6346 44.2474 4.6268H44.1097C44.0733 4.62757 44.0371 4.61989 44.0041 4.60439C43.9881 4.60439 43.9785 4.55635 43.9817 4.49871L44.0585 2.96481L43.5655 2.93599C43.511 2.93599 43.4822 2.91998 43.4726 2.89756C43.4647 2.86278 43.4647 2.82666 43.4726 2.79188V2.66059C43.4715 2.62304 43.4791 2.58575 43.495 2.55171C43.495 2.5325 43.5398 2.52289 43.5911 2.52609L44.9998 2.60615C45.0511 2.60615 45.0831 2.62216 45.0927 2.64458C45.0997 2.68161 45.0997 2.71963 45.0927 2.75666V2.88475C45.0931 2.9212 45.0855 2.95729 45.0703 2.99043C45.0703 3.00964 45.0254 3.01925 44.9742 3.01604L44.4587 2.99043ZM43.4374 4.46989C43.4374 4.51152 43.4374 4.54354 43.4374 4.55955C43.4249 4.57066 43.41 4.57875 43.394 4.58319C43.3778 4.58764 43.3609 4.58831 43.3445 4.58517H43.1396C43.1115 4.58445 43.084 4.57675 43.0596 4.56276C43.0377 4.54234 43.0231 4.51536 43.018 4.4859L42.9251 4.09522L42.2111 4.05679L42.0574 4.41545C42.0499 4.44459 42.0331 4.47046 42.0094 4.4891C41.9831 4.49537 41.9557 4.49537 41.9294 4.4891H41.7501C41.7171 4.49069 41.6849 4.47918 41.6604 4.45708C41.6536 4.44256 41.65 4.4267 41.65 4.41065C41.65 4.39459 41.6536 4.37874 41.6604 4.36421L42.4481 2.51008C42.4598 2.48224 42.4773 2.45716 42.4993 2.43643C42.5189 2.42258 42.5426 2.4158 42.5665 2.41721H42.6946C42.7194 2.41704 42.7434 2.42618 42.7618 2.44283C42.7824 2.46473 42.7977 2.49101 42.8067 2.51969L43.4374 4.46989ZM42.669 3.24021L42.6017 2.91998L42.5089 3.24021L42.3232 3.73656L42.8099 3.76218L42.669 3.24021ZM40.9433 2.398C41.0688 2.40037 41.1932 2.42308 41.3114 2.46525C41.402 2.49779 41.4841 2.55032 41.5516 2.61896C41.6095 2.68089 41.6522 2.75544 41.6764 2.83672C41.6994 2.92336 41.7091 3.01296 41.7053 3.10251C41.7026 3.20086 41.6842 3.29816 41.6508 3.39071C41.6187 3.47701 41.5672 3.5548 41.5004 3.61808C41.4248 3.68359 41.3365 3.73266 41.241 3.76218C41.1181 3.79615 40.9904 3.80914 40.8632 3.80061H40.7672L40.6839 3.77499L40.6615 4.32899C40.6615 4.38663 40.6615 4.41865 40.6295 4.43146C40.5967 4.43793 40.563 4.43793 40.5302 4.43146H40.3894C40.3529 4.43223 40.3167 4.42455 40.2837 4.40905C40.2837 4.40905 40.2581 4.36101 40.2613 4.30337L40.3317 2.47806C40.3317 2.42362 40.3317 2.38839 40.3637 2.37879C40.3984 2.37024 40.4347 2.37024 40.4694 2.37879L40.9433 2.398ZM40.8408 3.42594C40.9107 3.43053 40.981 3.42405 41.0489 3.40673C41.0985 3.3938 41.1445 3.36971 41.1834 3.33627C41.2179 3.30915 41.2435 3.27236 41.257 3.2306C41.2738 3.18774 41.2825 3.14213 41.2826 3.0961C41.2875 3.05364 41.2828 3.01063 41.2689 2.9702C41.2551 2.92977 41.2324 2.89293 41.2026 2.86233C41.118 2.79584 41.0124 2.76176 40.9048 2.76626H40.7063L40.6807 3.40673H40.7672L40.8408 3.42594ZM37.9208 3.31386C37.924 3.17528 37.9488 3.03805 37.9945 2.90717C38.0369 2.78888 38.1022 2.68008 38.1866 2.58694C38.2768 2.49106 38.3858 2.41476 38.5067 2.36277C38.648 2.30655 38.8 2.28249 38.9518 2.29232C39.105 2.2918 39.2563 2.32688 39.3936 2.3948C39.5173 2.4523 39.6266 2.53652 39.7138 2.64138C39.7929 2.74534 39.8506 2.86398 39.8835 2.99043C39.9221 3.12346 39.9383 3.26197 39.9315 3.40032C39.9282 3.53861 39.9044 3.67565 39.8611 3.80701C39.8173 3.92537 39.7509 4.03412 39.6658 4.12724C39.5779 4.22586 39.4683 4.30262 39.3456 4.3514C39.2046 4.40872 39.0525 4.43388 38.9006 4.42506C38.7487 4.42253 38.5992 4.3876 38.4619 4.32258C38.3384 4.2649 38.2291 4.18071 38.1418 4.07601C38.0609 3.97269 38.0021 3.85389 37.9689 3.72696C37.9332 3.59225 37.9171 3.45314 37.9208 3.31386ZM39.4929 3.3683C39.4951 3.27776 39.4854 3.18732 39.4641 3.0993C39.4462 3.01873 39.4124 2.94253 39.3648 2.87514C39.32 2.81108 39.2608 2.75843 39.1919 2.72143C39.1137 2.6807 39.0271 2.65877 38.939 2.65739C38.8513 2.65284 38.7638 2.66817 38.6828 2.70222C38.6114 2.73513 38.5481 2.78322 38.4971 2.84312C38.4479 2.90894 38.41 2.98254 38.3851 3.06088C38.3593 3.1483 38.3454 3.23876 38.3435 3.32987C38.3404 3.42132 38.349 3.51279 38.3691 3.60207C38.3896 3.68175 38.4231 3.75749 38.4683 3.82623C38.5136 3.8911 38.574 3.94388 38.6444 3.97994C38.7227 4.0199 38.8094 4.04075 38.8974 4.04078C38.9851 4.04663 39.073 4.03125 39.1535 3.99595C39.2251 3.96496 39.2879 3.91652 39.336 3.85505C39.3865 3.79001 39.4245 3.71618 39.4481 3.63729C39.4754 3.55014 39.4905 3.45961 39.4929 3.3683ZM36.9315 3.3683H36.701V3.9287H36.8995C37.0054 3.94071 37.1121 3.9146 37.2004 3.85505C37.2411 3.81363 37.2696 3.76197 37.2832 3.70557C37.2967 3.64917 37.2947 3.59015 37.2773 3.53482C37.2679 3.50133 37.249 3.47129 37.2229 3.44835C37.1903 3.42278 37.1534 3.40326 37.114 3.39071C37.05 3.37609 36.9841 3.37177 36.9187 3.3779L36.9315 3.3683ZM36.717 2.62857V3.00644H36.7714H36.9635C37.0831 3.00557 37.202 3.02395 37.3157 3.06088C37.4022 3.09025 37.4818 3.13712 37.5494 3.19858C37.6063 3.25695 37.65 3.32684 37.6775 3.40352C37.7028 3.48649 37.7147 3.57298 37.7127 3.65971C37.7104 3.74448 37.6964 3.82853 37.6711 3.90949C37.6431 3.99047 37.5984 4.06466 37.5398 4.12724C37.473 4.19432 37.392 4.24572 37.3029 4.27775C37.1847 4.31865 37.0596 4.33605 36.9347 4.32899H36.4192C36.3832 4.32858 36.3475 4.32208 36.3136 4.30977C36.2976 4.30977 36.288 4.26174 36.2912 4.2073L36.3296 2.37879C36.3296 2.32435 36.3296 2.28912 36.3584 2.27951C36.393 2.27057 36.4294 2.27057 36.4641 2.27951L37.5078 2.30513C37.559 2.30513 37.5911 2.30513 37.6007 2.33716C37.6094 2.37401 37.6094 2.41239 37.6007 2.44924V2.55171C37.6001 2.58879 37.5936 2.62555 37.5815 2.66059C37.5815 2.6798 37.5398 2.68941 37.4854 2.68941L36.717 2.62857ZM36.051 4.17528C36.0581 4.18918 36.0617 4.20453 36.0617 4.22011C36.0617 4.23569 36.0581 4.25104 36.051 4.26494C36.0391 4.27596 36.0249 4.28425 36.0094 4.28923C35.9939 4.2942 35.9775 4.29575 35.9614 4.29376H35.7533C35.739 4.29603 35.7243 4.29541 35.7103 4.29194C35.6962 4.28848 35.6829 4.28224 35.6713 4.27359C35.6597 4.26494 35.6499 4.25406 35.6425 4.24157C35.6352 4.22909 35.6304 4.21526 35.6284 4.2009L35.5099 3.83263H34.796L34.6711 4.19769C34.6644 4.22641 34.6487 4.25223 34.6263 4.27135C34.6002 4.28314 34.5716 4.28863 34.543 4.28736H34.3637C34.3189 4.28736 34.2901 4.27775 34.2773 4.25854C34.2773 4.23932 34.2773 4.2073 34.2773 4.16567L35.0041 2.28272C35.0139 2.25374 35.0304 2.22743 35.0521 2.20586C35.0682 2.1887 35.0896 2.17743 35.1129 2.17384H35.241C35.2649 2.17243 35.2887 2.1792 35.3082 2.19305C35.3291 2.21648 35.3454 2.24364 35.3563 2.27311L36.051 4.17528ZM35.241 2.98402L35.1674 2.66379L35.0841 2.98402L34.9208 3.48678H35.4075L35.241 2.98402ZM33.1343 2.59334C33.1343 2.88795 33.1023 3.14414 33.0766 3.35869C33.0579 3.53877 33.0225 3.71672 32.971 3.89027C32.9392 4.01044 32.8775 4.1206 32.7917 4.2105C32.7557 4.24405 32.7133 4.2701 32.6672 4.28714C32.621 4.30418 32.5719 4.31187 32.5227 4.30977H32.4299C32.4023 4.30796 32.3752 4.30147 32.3498 4.29056H32.3242C32.3153 4.28609 32.3076 4.27949 32.3018 4.27135C32.294 4.26091 32.2885 4.24889 32.2858 4.23612C32.2825 4.21705 32.2825 4.19755 32.2858 4.17848L32.3082 3.99915C32.3082 3.95752 32.3274 3.9319 32.3402 3.9287C32.371 3.92384 32.4023 3.92384 32.4331 3.9287C32.4558 3.92805 32.4781 3.92257 32.4985 3.91263C32.519 3.90269 32.537 3.88852 32.5516 3.87106C32.6004 3.80351 32.6332 3.72578 32.6476 3.6437C32.6813 3.47585 32.7016 3.30559 32.7084 3.13453C32.7276 2.93278 32.7405 2.66379 32.7469 2.33395C32.7469 2.27951 32.7469 2.24429 32.7725 2.23148C32.8073 2.22414 32.8433 2.22414 32.8781 2.23148H33.9059C33.9401 2.22858 33.9745 2.23523 34.0051 2.25069C34.0275 2.25069 34.0372 2.29553 34.0372 2.35317V4.17848C34.0372 4.23612 34.0372 4.26814 34.0083 4.28095C33.9773 4.29501 33.943 4.30053 33.9091 4.29697H33.765C33.7301 4.29916 33.6951 4.29369 33.6626 4.28095C33.6626 4.28095 33.6369 4.23612 33.6369 4.17848V2.59334H33.1343ZM30.3552 2.91357C30.3506 2.95436 30.3557 2.99566 30.3702 3.03407C30.3847 3.07249 30.4081 3.10691 30.4384 3.13453C30.5291 3.18524 30.6325 3.20859 30.7362 3.20178H30.9443V2.59334H30.7586C30.7054 2.58833 30.6518 2.58833 30.5985 2.59334C30.5518 2.60165 30.5072 2.61906 30.4672 2.64458C30.4306 2.66857 30.4008 2.70168 30.3808 2.74065C30.3537 2.79291 30.3415 2.85163 30.3456 2.91037L30.3552 2.91357ZM31.2357 2.21227C31.2684 2.20545 31.3022 2.20545 31.3349 2.21227C31.3541 2.21227 31.3637 2.2603 31.3637 2.31474V4.14325C31.3637 4.2009 31.3637 4.23292 31.3349 4.24573C31.3033 4.25792 31.2695 4.26337 31.2357 4.26174H31.0788C31.0428 4.26389 31.0068 4.25844 30.9731 4.24573C30.9731 4.24573 30.9475 4.2009 30.9475 4.14325V3.53482H30.7586C30.7326 3.53295 30.7067 3.5397 30.685 3.55403C30.6639 3.5731 30.6465 3.5959 30.6337 3.62128L30.352 4.19129C30.3386 4.22016 30.3161 4.2438 30.2879 4.25854C30.2488 4.26542 30.2087 4.26542 30.1695 4.25854H29.955C29.938 4.26072 29.9207 4.25831 29.9049 4.25155C29.8891 4.24479 29.8755 4.23394 29.8653 4.22011C29.8493 4.19129 29.8653 4.15286 29.8909 4.09842L30.2655 3.45796C30.1511 3.41181 30.0577 3.32519 30.003 3.21459C29.9542 3.10595 29.9301 2.98782 29.9326 2.86874C29.9298 2.75787 29.9539 2.64798 30.003 2.54851C30.0492 2.4656 30.1139 2.39439 30.1919 2.34036C30.2679 2.2937 30.3513 2.26015 30.4384 2.24109C30.5435 2.21799 30.651 2.20724 30.7586 2.20906L31.2357 2.21227ZM29.7981 4.15927C29.7981 4.2009 29.8173 4.23292 29.7981 4.24893C29.7789 4.26494 29.7533 4.27775 29.7084 4.28095H29.5035C29.4759 4.28234 29.4484 4.27684 29.4235 4.26494C29.401 4.24582 29.3853 4.22001 29.3787 4.19129L29.2506 3.82623L28.5174 3.83904L28.4021 4.2073C28.3955 4.23602 28.3797 4.26184 28.3573 4.28095C28.3329 4.29452 28.3052 4.30116 28.2773 4.30017H28.098C28.0531 4.30017 28.0243 4.30017 28.0083 4.27455C28.0017 4.25997 27.9983 4.24414 27.9983 4.22812C27.9983 4.2121 28.0017 4.19626 28.0083 4.18168L28.6935 2.27951C28.7034 2.25054 28.7198 2.22423 28.7415 2.20266C28.7624 2.18339 28.79 2.17305 28.8184 2.17384H28.9464C28.9704 2.17243 28.9941 2.1792 29.0137 2.19305C29.0354 2.21463 29.0518 2.24093 29.0617 2.26991L29.7981 4.15927ZM28.9656 2.98082L28.8824 2.66059L28.8055 2.98082L28.6487 3.48998H29.1353L28.9656 2.98082ZM27.7938 4.18809C27.7938 4.24573 27.7938 4.27775 27.7682 4.29056C27.7374 4.30571 27.7031 4.31235 27.6689 4.30977H27.5249C27.4913 4.31874 27.456 4.31874 27.4224 4.30977C27.4032 4.30977 27.3936 4.26494 27.3936 4.2073V3.46116L26.5643 3.48358L26.5804 4.22972C26.5804 4.28416 26.5804 4.31938 26.5515 4.33219C26.5199 4.34453 26.4863 4.35104 26.4523 4.3514H26.2762C26.2426 4.36008 26.2073 4.36008 26.1737 4.3514C26.1545 4.3514 26.1449 4.30657 26.1449 4.25213L26.1033 2.42362C26.1033 2.36918 26.1033 2.33395 26.1289 2.32114C26.1618 2.30546 26.1983 2.29883 26.2346 2.30193H26.3754C26.408 2.2938 26.4421 2.2938 26.4747 2.30193C26.4939 2.30193 26.5035 2.34676 26.5067 2.4044V3.10251L27.336 3.08329V2.38519C27.336 2.32755 27.336 2.29232 27.3584 2.28272C27.3902 2.26713 27.4254 2.25944 27.4608 2.2603H27.6049C27.6376 2.25319 27.6715 2.25319 27.7042 2.2603C27.7234 2.2603 27.7362 2.30513 27.7362 2.36277L27.7938 4.18809ZM24.5313 4.41545C24.4966 4.424 24.4603 4.424 24.4256 4.41545C24.4064 4.41545 24.3968 4.37062 24.3968 4.31298L24.3552 2.46205C24.3552 2.40761 24.3552 2.37238 24.3808 2.35957C24.4125 2.34385 24.448 2.3372 24.4832 2.34036H24.6241C24.6578 2.33233 24.6929 2.33233 24.7266 2.34036C24.7458 2.34036 24.7554 2.38519 24.7586 2.44283L24.7746 3.05127H24.829H24.8963H24.9635H24.9955C25.114 3.0433 25.2331 3.05521 25.3477 3.0865C25.4378 3.10928 25.5212 3.15319 25.591 3.21459C25.6557 3.26882 25.7044 3.33968 25.7319 3.41953C25.7935 3.58819 25.8002 3.772 25.7511 3.94471C25.7295 4.0292 25.6877 4.1072 25.6294 4.17208C25.5651 4.24455 25.4852 4.30149 25.3957 4.33859C25.2781 4.38345 25.1534 4.4073 25.0275 4.40905L24.5313 4.41545ZM24.9955 3.40673H24.8995L24.7874 3.42594L24.8066 4.01836H25.0019C25.1093 4.02587 25.2156 3.99272 25.2997 3.9255C25.3312 3.89401 25.3552 3.85569 25.3696 3.81349C25.384 3.7713 25.3886 3.72636 25.3829 3.68212C25.384 3.64347 25.3765 3.60505 25.361 3.56962C25.3455 3.5342 25.3224 3.50263 25.2933 3.47718C25.2064 3.41703 25.1001 3.39187 24.9955 3.40673ZM22.908 2.78868C22.908 3.08329 22.908 3.33948 22.8792 3.55403C22.8693 3.73695 22.8404 3.91834 22.7927 4.09522C22.7684 4.21481 22.7119 4.3255 22.6294 4.41545C22.5582 4.48507 22.4633 4.52512 22.3637 4.52753H22.2708C22.2434 4.52693 22.2163 4.52151 22.1908 4.51152C22.1826 4.51473 22.1734 4.51473 22.1652 4.51152C22.1548 4.50802 22.1458 4.50128 22.1396 4.49231C22.1372 4.48176 22.1372 4.47083 22.1396 4.46028C22.1346 4.4414 22.1346 4.42153 22.1396 4.40264V4.22011C22.1396 4.17848 22.1556 4.15286 22.1684 4.14646C22.1992 4.1416 22.2305 4.1416 22.2612 4.14646C22.3065 4.14084 22.3478 4.11788 22.3765 4.08241C22.4228 4.01327 22.4523 3.93435 22.4629 3.85185C22.4925 3.6943 22.5107 3.53485 22.5174 3.3747C22.5174 3.16975 22.5174 2.90396 22.5174 2.57092C22.5174 2.51649 22.5174 2.48126 22.543 2.46845C22.5748 2.45286 22.61 2.44517 22.6454 2.44603L23.6732 2.4012C23.7069 2.39317 23.742 2.39317 23.7757 2.4012C23.7949 2.4012 23.8045 2.44603 23.8077 2.50368L23.8781 4.32899C23.8781 4.38343 23.8781 4.41865 23.8525 4.43146C23.8217 4.44679 23.7876 4.45448 23.7532 4.45388H23.6092C23.5754 4.46087 23.5405 4.46087 23.5067 4.45388C23.4875 4.45388 23.4779 4.40905 23.4779 4.3514L23.4171 2.79188L22.908 2.78868ZM22.1524 4.38983C22.1602 4.40405 22.1643 4.42002 22.1643 4.43626C22.1643 4.45251 22.1602 4.46848 22.1524 4.4827C22.1524 4.50191 22.1108 4.51152 22.0659 4.51472H21.861C21.8338 4.52222 21.805 4.52222 21.7778 4.51472C21.7552 4.49513 21.7386 4.46962 21.7298 4.44107L21.5889 4.08241L20.8749 4.12084L20.7724 4.49231C20.7657 4.52117 20.7513 4.54771 20.7308 4.56916C20.707 4.5842 20.6788 4.59095 20.6508 4.58837H20.4715C20.4558 4.59123 20.4397 4.5907 20.4242 4.58684C20.4088 4.58297 20.3943 4.57586 20.3818 4.56596C20.3818 4.54674 20.3818 4.51792 20.3818 4.47309L21.003 2.55171C21.0098 2.52284 21.0241 2.49631 21.0446 2.47486C21.0633 2.45871 21.0871 2.44965 21.1118 2.44924H21.2399C21.2615 2.44051 21.2856 2.44051 21.3071 2.44924C21.3294 2.46977 21.3468 2.49491 21.3584 2.52289L22.1524 4.38983ZM21.2815 3.24021L21.1855 2.91998L21.1214 3.24021L20.9806 3.77499L21.4736 3.73656L21.2815 3.24021ZM19.4918 2.58053C19.6195 2.56812 19.7484 2.57787 19.8728 2.60935C19.9643 2.63354 20.0495 2.67724 20.1225 2.73744C20.1859 2.79355 20.2352 2.86374 20.2666 2.94239C20.2997 3.02503 20.3181 3.11281 20.321 3.20178C20.3281 3.3009 20.3183 3.40052 20.2922 3.49639C20.2662 3.58497 20.2215 3.6669 20.1609 3.73656C20.0933 3.81182 20.0088 3.86998 19.9144 3.90628C19.7963 3.95467 19.6705 3.98177 19.543 3.98634H19.3477L19.3733 4.54034C19.3733 4.59478 19.3733 4.63 19.3509 4.64281C19.3201 4.65814 19.286 4.66583 19.2516 4.66523H19.1108C19.0763 4.67546 19.0396 4.67546 19.0051 4.66523C18.9859 4.66523 18.9763 4.6236 18.9731 4.56596L18.8834 2.74065C18.8834 2.683 18.8834 2.65098 18.9058 2.63817C18.937 2.62065 18.9727 2.61285 19.0083 2.61576L19.4918 2.58053ZM19.4918 3.61167C19.5618 3.61095 19.6311 3.59794 19.6967 3.57324C19.7445 3.55427 19.788 3.52596 19.8247 3.48998C19.8562 3.45938 19.8784 3.42054 19.8888 3.3779C19.9006 3.33299 19.906 3.28663 19.9048 3.24021C19.9034 3.19792 19.8936 3.15635 19.876 3.11787C19.8584 3.0794 19.8334 3.04479 19.8023 3.01604C19.7077 2.95459 19.5931 2.93168 19.4822 2.952H19.2868L19.3189 3.59246H19.4053L19.4918 3.61167ZM17.7308 3.88707L17.7564 4.37062L18.512 4.32258C18.5665 4.32258 18.5985 4.32258 18.6081 4.3482C18.624 4.38224 18.6316 4.41953 18.6305 4.45708V4.55955C18.6384 4.59542 18.6384 4.63257 18.6305 4.66843C18.6305 4.69085 18.5889 4.70366 18.5376 4.70686L17.5131 4.77091C17.4784 4.77909 17.4422 4.77909 17.4074 4.77091C17.3882 4.77091 17.3786 4.72607 17.3754 4.66843L17.273 2.84632C17.273 2.78868 17.273 2.75666 17.2954 2.74385C17.3268 2.72677 17.3621 2.71796 17.3978 2.71823L18.4224 2.65418C18.4768 2.65418 18.5088 2.65418 18.5184 2.6766C18.5341 2.71183 18.5418 2.75012 18.5408 2.78868V2.89115C18.5487 2.92702 18.5487 2.96417 18.5408 3.00003C18.5408 3.01925 18.4992 3.03206 18.448 3.03526L17.6924 3.08329L17.7148 3.5156L18.2719 3.45476C18.3263 3.45476 18.3583 3.45476 18.368 3.47718C18.3837 3.5124 18.3913 3.55069 18.3904 3.58926V3.69173C18.3983 3.72759 18.3983 3.76475 18.3904 3.80061C18.3904 3.82302 18.3487 3.83263 18.2975 3.83904L17.7308 3.88707ZM15.7714 3.20178C15.7714 3.32347 15.7714 3.44515 15.7714 3.57004C15.7714 3.69493 15.7714 3.81342 15.749 3.9287C15.7367 4.03636 15.7185 4.14327 15.6945 4.24893C15.6759 4.33872 15.6491 4.42661 15.6145 4.51152L16.3509 4.46348L16.2804 3.16655L15.7714 3.20178ZM14.9805 4.67804C14.9805 4.6204 14.9805 4.58517 15.0062 4.57236C15.0358 4.55693 15.0688 4.54922 15.1022 4.54995H15.1951C15.2406 4.46098 15.2771 4.36764 15.3039 4.27135C15.3349 4.15681 15.3573 4.04014 15.3711 3.9223C15.385 3.77862 15.3914 3.63432 15.3904 3.48998C15.3904 3.33627 15.3904 3.16975 15.3904 2.98082V2.91357C15.3852 2.89907 15.3852 2.88324 15.3904 2.86874C15.3989 2.85713 15.4115 2.84913 15.4256 2.84632C15.4511 2.84324 15.4769 2.84324 15.5024 2.84632L16.5142 2.77587C16.5478 2.76719 16.583 2.76719 16.6166 2.77587C16.6358 2.77587 16.6454 2.8207 16.6486 2.87514L16.7415 4.43466H16.876C16.9086 4.4269 16.9426 4.4269 16.9752 4.43466C16.9944 4.43466 17.0072 4.4795 17.0104 4.53714L17.0488 5.1776C17.0488 5.23204 17.0488 5.26726 17.0264 5.28007C16.9958 5.29628 16.9618 5.30505 16.9272 5.30569H16.8599C16.8252 5.31387 16.789 5.31387 16.7543 5.30569C16.7351 5.30569 16.7255 5.26086 16.7191 5.20642L16.6999 4.83495L15.3103 4.93102L15.3295 5.29929C15.3295 5.35693 15.3295 5.39215 15.3103 5.40496C15.2781 5.42003 15.2433 5.42873 15.2079 5.43058H15.1406C15.1069 5.43849 15.0719 5.43849 15.0382 5.43058C15.019 5.43058 15.0062 5.38575 15.003 5.32811L14.9805 4.67804ZM13.9976 4.14325L14.0264 4.6268L14.782 4.57236C14.8333 4.57236 14.8653 4.57236 14.8781 4.59478C14.894 4.62882 14.9016 4.66611 14.9005 4.70366V4.80933C14.9063 4.84432 14.9063 4.88003 14.9005 4.91501C14.9005 4.93849 14.8685 4.9513 14.8044 4.95344L13.7895 5.02709C13.7552 5.03856 13.7181 5.03856 13.6838 5.02709C13.6646 5.02709 13.6518 4.98546 13.6486 4.92782L13.5334 3.10571C13.5334 3.04807 13.5334 3.01604 13.5558 3.00324C13.5872 2.98616 13.6225 2.97735 13.6582 2.97762L14.6828 2.90396C14.734 2.90396 14.766 2.90396 14.7788 2.92638C14.7947 2.96042 14.8024 2.99771 14.8012 3.03526V3.13773C14.8091 3.17359 14.8091 3.21075 14.8012 3.24661C14.8012 3.26903 14.7628 3.28184 14.7084 3.28504L13.956 3.33948L13.972 3.77499L14.5611 3.73336C14.6123 3.73336 14.6444 3.73336 14.6572 3.75578C14.6729 3.791 14.6805 3.82929 14.6796 3.86786V3.97033C14.6875 4.00619 14.6875 4.04335 14.6796 4.07921C14.6796 4.09842 14.6412 4.11123 14.5867 4.11764L13.9976 4.14325ZM11.5483 4.09522C11.5505 4.22516 11.5968 4.3505 11.6796 4.45068C11.7253 4.49675 11.7804 4.53236 11.8412 4.55503C11.902 4.5777 11.9671 4.58689 12.0318 4.58197L11.9613 3.53802C11.8868 3.54484 11.8147 3.56778 11.75 3.60527C11.6979 3.63975 11.6532 3.6844 11.6187 3.73656C11.5881 3.78885 11.5674 3.84641 11.5579 3.90628C11.5451 3.9684 11.5418 4.03212 11.5483 4.09522ZM12.3936 4.55315C12.4682 4.54495 12.5402 4.52094 12.6049 4.4827C12.6575 4.45021 12.7024 4.40647 12.7361 4.35461C12.7687 4.30407 12.7905 4.24739 12.8002 4.18809C12.8066 4.12527 12.8066 4.06196 12.8002 3.99915C12.7978 3.86771 12.7503 3.74109 12.6657 3.64049C12.6209 3.59413 12.5663 3.5583 12.506 3.5356C12.4456 3.51289 12.381 3.50387 12.3167 3.5092L12.3936 4.55315ZM12.4416 5.0431C12.4416 5.09754 12.4416 5.13277 12.4192 5.14558C12.3887 5.16226 12.3546 5.17106 12.3199 5.17119H12.1886C12.1539 5.17937 12.1177 5.17937 12.083 5.17119C12.0638 5.17119 12.051 5.12956 12.0478 5.07192V4.92782C11.9203 4.93978 11.7918 4.92562 11.67 4.88619C11.5668 4.85102 11.4735 4.79174 11.3978 4.71326C11.3229 4.63783 11.265 4.54719 11.2281 4.44747C11.1878 4.345 11.1629 4.23706 11.1545 4.12724C11.1447 4.00886 11.1555 3.88966 11.1865 3.77499C11.2134 3.66975 11.2626 3.57148 11.3306 3.48678C11.3993 3.40199 11.4856 3.33315 11.5835 3.28504C11.6923 3.23056 11.8111 3.19895 11.9325 3.19217V3.0865C11.9325 3.02885 11.9325 2.99683 11.9517 2.98082C11.9836 2.96523 12.0187 2.95754 12.0542 2.9584H12.1854C12.2189 2.94879 12.2544 2.94879 12.2879 2.9584C12.3071 2.9584 12.3199 3.00003 12.3231 3.05767V3.16335C12.4487 3.15069 12.5755 3.166 12.6945 3.20818C12.7975 3.24412 12.8915 3.30204 12.9699 3.3779C13.0462 3.45283 13.1052 3.54355 13.1428 3.6437C13.1849 3.74561 13.2098 3.85383 13.2164 3.96393C13.2256 4.08125 13.2148 4.19928 13.1844 4.31298C13.1549 4.41788 13.1049 4.51586 13.0371 4.60118C12.9689 4.6852 12.8838 4.75394 12.7874 4.80293C12.6784 4.85699 12.5598 4.88857 12.4384 4.8958L12.4416 5.0431ZM9.94744 1.19073C17.0296 0.684769 24.4544 0.210828 31.9945 0.252458C39.5345 0.207626 46.9593 0.681566 54.0383 1.18753C54.1952 1.18753 54.3584 1.29321 54.3264 1.4181C53.8059 4.48968 53.7789 7.62467 54.2464 10.7048C54.188 10.6423 54.1185 10.5913 54.0415 10.5543C53.8186 10.4642 53.5806 10.4175 53.3403 10.4166C53.1162 10.4166 52.1236 10.3941 51.8835 10.3877H51.6626L50.4139 10.3525L49.1589 10.3109H48.9251C43.5238 10.1027 37.9368 9.71206 31.9945 9.68964C25.9112 9.71206 20.2025 10.122 14.6796 10.3301H14.4491L13.194 10.3717L12.1534 10.3973H11.7148C11.3306 10.3973 10.8023 10.423 10.6454 10.4134C10.4048 10.4151 10.1668 10.4629 9.94424 10.5543C9.86399 10.5904 9.79205 10.6428 9.73293 10.708C10.2001 7.62277 10.1763 4.48306 9.66249 1.40529C9.64328 1.29641 9.79376 1.21315 9.94744 1.19073Z" fill="white"/>
<path fill-rule="evenodd" clip-rule="evenodd" d="M25.9561 27.0714H37.6423L31.8184 24.8105L25.9561 27.0714Z" fill="white"/>
<path fill-rule="evenodd" clip-rule="evenodd" d="M27.3392 36.7196C27.3392 36.8958 27.4448 37.0399 27.5697 37.0399H36.0286C36.3072 37.0399 36.3936 36.3994 35.9326 36.3994H27.6689C27.5878 36.3992 27.5096 36.4299 27.4501 36.4852C27.3907 36.5404 27.3545 36.6162 27.3488 36.6972" fill="white"/>
<path fill-rule="evenodd" clip-rule="evenodd" d="M29.1161 35.9612C29.1161 36.2014 29.2218 36.3231 29.51 36.3231H34.0852C34.6519 36.3231 34.5623 35.6826 34.1524 35.6826H29.4459C29.3653 35.6824 29.2875 35.7126 29.2281 35.7672C29.1688 35.8218 29.1322 35.8968 29.1258 35.9772" fill="white"/>
<path fill-rule="evenodd" clip-rule="evenodd" d="M30.1182 27.7213V35.0642C30.0371 35.0916 29.9673 35.1451 29.9198 35.2164C29.8723 35.2876 29.8497 35.3726 29.8557 35.4581H31.0051C30.9634 35.2659 30.9314 35.1122 30.7425 35.0642V27.7213C30.957 27.606 30.9474 27.5836 31.0051 27.3242H29.8428C29.8397 27.4113 29.8649 27.497 29.9145 27.5685C29.9641 27.6401 30.0356 27.6937 30.1182 27.7213Z" fill="white"/>
<path fill-rule="evenodd" clip-rule="evenodd" d="M31.4887 27.7213V35.0642C31.4075 35.0919 31.3377 35.1454 31.2897 35.2165C31.2418 35.2876 31.2183 35.3724 31.2229 35.4581H32.3755C32.3307 35.2659 32.3019 35.1122 32.113 35.0642V27.7213C32.3275 27.606 32.3179 27.5836 32.3755 27.3242H31.2229C31.2197 27.41 31.2436 27.4946 31.2913 27.5659C31.3391 27.6372 31.4081 27.6916 31.4887 27.7213Z" fill="white"/>
<path fill-rule="evenodd" clip-rule="evenodd" d="M32.8686 27.7213V35.0642C32.7881 35.0925 32.719 35.1462 32.6716 35.2173C32.6243 35.2883 32.6013 35.3728 32.6061 35.4581H33.7587C33.7139 35.2659 33.6851 35.1122 33.4962 35.0642V27.7213C33.7107 27.606 33.6979 27.5836 33.7587 27.3242H32.6061C32.6026 27.4096 32.6261 27.4939 32.6732 27.5652C32.7203 27.6365 32.7887 27.6911 32.8686 27.7213Z" fill="white"/>
<path fill-rule="evenodd" clip-rule="evenodd" d="M29.1578 32.365H27.0734V27.2414L29.1578 32.365ZM27.2367 27.0332L29.4043 32.3554L29.4331 32.3778C29.8845 33.1912 27.3552 33.4858 27.051 33.4858C26.5292 33.4858 24.4352 33.2425 24.5953 32.4611C24.6004 32.4338 24.6134 32.4085 24.6328 32.3886C24.6522 32.3686 24.677 32.3549 24.7042 32.349L26.8653 27.0332H27.2367ZM26.9582 27.2253L26.9166 32.349H24.8803L26.9582 27.2253Z" fill="white"/>
<path fill-rule="evenodd" clip-rule="evenodd" d="M38.7309 32.365H36.6626V27.2414L38.7309 32.365ZM36.7939 27.0332L38.9614 32.3554L38.9902 32.3778C39.4417 33.1912 36.9123 33.4858 36.6082 33.4858C36.0863 33.4858 33.9924 33.2425 34.1557 32.4611C34.1594 32.4332 34.172 32.4073 34.1916 32.3871C34.2112 32.3669 34.2368 32.3536 34.2645 32.349L36.4225 27.0332H36.7939ZM36.5153 27.2253L36.4737 32.349H34.4694L36.5153 27.2253Z" fill="white"/>
<path d="M45.0991 21.8838H41.6957V19.9624H44.5773C44.7544 19.9712 44.9279 19.9103 45.0607 19.7927C45.1209 19.7338 45.168 19.6628 45.1989 19.5845C45.2298 19.5061 45.2438 19.4221 45.24 19.338V18.1852H41.7181V16.331H45.24V15.2006C45.2555 15.0923 45.2456 14.9818 45.2111 14.878C45.1765 14.7742 45.1182 14.6798 45.0408 14.6024C44.9635 14.5251 44.8691 14.4668 44.7653 14.4322C44.6615 14.3976 44.5511 14.3877 44.4428 14.4032H40.4086L41.8526 12.5459H44.9743C45.9028 12.5459 46.5783 12.7594 47.001 13.1864C47.4204 13.6027 47.6413 14.2687 47.6413 15.191V19.3828C47.6413 20.241 47.4364 20.8751 47.0298 21.2786C46.6232 21.6821 45.9828 21.8838 45.1088 21.8838" fill="white"/>
<path d="M37.0307 21.8837C36.162 21.8837 35.5216 21.682 35.1097 21.2785C34.6999 20.875 34.4982 20.2409 34.4982 19.3827V15.1749C34.4982 14.2526 34.7095 13.5737 35.1385 13.1702C35.5675 12.7668 36.2335 12.5298 37.162 12.5298H41.5067L40.0788 14.3871H37.6935C37.5855 14.3717 37.4754 14.3816 37.3718 14.416C37.2683 14.4504 37.1742 14.5084 37.0969 14.5854C37.0196 14.6624 36.9612 14.7563 36.9264 14.8597C36.8916 14.9631 36.8813 15.0732 36.8963 15.1813V19.3027C36.8914 19.3915 36.9051 19.4804 36.9366 19.5637C36.968 19.6469 37.0164 19.7227 37.0787 19.7862C37.1425 19.848 37.2184 19.8958 37.3016 19.9267C37.3849 19.9576 37.4736 19.9708 37.5622 19.9655H39.5601H41.8653V21.8613C40.3765 21.8613 38.5195 21.8613 37.0307 21.8613" fill="white"/>
<path d="M29.4331 19.7864C29.436 20.3423 29.2224 20.8776 28.8376 21.2787C28.6622 21.4619 28.4499 21.6058 28.2148 21.7007C27.9796 21.7957 27.727 21.8396 27.4736 21.8295H26.9742H21.5601L22.9816 20.0362H26.6444C26.7222 20.0434 26.8007 20.0347 26.8751 20.0104C26.9494 19.9862 27.018 19.947 27.0766 19.8953C27.1935 19.7198 27.2558 19.5137 27.2559 19.3029L27.3071 12.5332H34.1844V21.8199H31.7927V14.3937H29.5003L29.4331 19.7864Z" fill="white"/>
<path d="M18.368 17.1831C18.3524 17.2914 18.3624 17.4019 18.3969 17.5057C18.4315 17.6095 18.4898 17.7039 18.5671 17.7812C18.6445 17.8586 18.7388 17.9169 18.8427 17.9515C18.9465 17.9861 19.0569 17.996 19.1652 17.9805H20.3594V14.4067H19.1652C19.0569 14.3912 18.9465 14.4011 18.8427 14.4357C18.7388 14.4702 18.6445 14.5285 18.5671 14.6059C18.4898 14.6833 18.4315 14.7776 18.3969 14.8815C18.3624 14.9853 18.3524 15.0957 18.368 15.2041V17.1831ZM24.4768 15.2041C24.4924 15.0957 24.4825 14.9853 24.4479 14.8815C24.4133 14.7776 24.355 14.6833 24.2777 14.6059C24.2003 14.5285 24.106 14.4702 24.0022 14.4357C23.8984 14.4011 23.7879 14.3912 23.6796 14.4067H22.4854V17.9805H23.6796C23.7879 17.996 23.8984 17.9861 24.0022 17.9515C24.106 17.9169 24.2003 17.8586 24.2777 17.7812C24.355 17.7039 24.4133 17.6095 24.4479 17.5057C24.4825 17.4019 24.4924 17.2914 24.4768 17.1831V15.2041ZM26.8653 17.1831C26.8653 18.1118 26.6572 18.7842 26.225 19.2101C25.7928 19.636 25.13 19.8506 24.2015 19.8506H22.6006V20.0459L21.1727 21.8424H20.2122V19.841H18.6113C17.6796 19.841 17.0104 19.6296 16.5846 19.2005C16.1588 18.7714 15.9443 18.1053 15.9443 17.1735V15.2041C15.9443 14.2754 16.1577 13.5997 16.5846 13.177C17.0072 12.7575 17.6796 12.5365 18.6113 12.5365H20.2122V12.3252H22.6038V12.5365H24.2047C25.1332 12.5365 25.8077 12.75 26.2282 13.177C26.6508 13.5997 26.8685 14.2754 26.8685 15.2041L26.8653 17.1831Z" fill="white"/>
</g>
<defs>
<clipPath id="clip0">
<rect width="62.6017" height="43.3944" fill="white" transform="translate(0.656738 0.252441)"/>
</clipPath>
</defs>
</svg>
