<svg width="44" height="44" viewBox="0 0 44 44" fill="none" xmlns="http://www.w3.org/2000/svg">
<g clip-path="url(#clip0)">
<path d="M2.90709 26.3206L5.79613 25.2856L6.03889 25.9658L3.58467 26.8488L4.62238 29.7379L7.07927 28.8575L7.32202 29.5378L4.28625 30.6288L2.75237 26.3766L2.90709 26.3206ZM39.4537 26.5634L38.7467 28.6255C38.6734 28.7867 38.6404 28.9634 38.6507 29.1403C38.672 29.2257 38.7494 29.2897 38.9015 29.3404C38.9525 29.3686 39.0099 29.3835 39.0682 29.3835C39.1265 29.3835 39.1839 29.3686 39.2349 29.3404C39.3663 29.2026 39.4584 29.0322 39.5017 28.8469L40.1979 26.8221L39.451 26.5554L39.4537 26.5634ZM37.7864 25.8191L37.9678 25.2856L41.0089 26.3366L40.1152 28.9322C40.0166 29.3073 39.8152 29.6473 39.5337 29.9139C39.405 30.0107 39.2527 30.0712 39.0927 30.089C38.9327 30.1069 38.7708 30.0814 38.624 30.0153C38.4713 29.9823 38.3316 29.9054 38.2221 29.794C38.1126 29.6826 38.0381 29.5416 38.0078 29.3884C37.98 29.0089 38.0441 28.6282 38.1945 28.2787L38.8534 26.3606L37.7197 25.9712L37.7731 25.8191H37.7864ZM40.7661 23.605L40.8355 21.9297C40.8676 21.6943 40.8353 21.4546 40.7421 21.2361C40.6931 21.171 40.6279 21.1198 40.5531 21.0876C40.4783 21.0553 40.3963 21.043 40.3153 21.052L39.3896 21.012C39.1709 21.012 39.0348 21.044 38.9602 21.1507C38.8497 21.3655 38.7991 21.606 38.8134 21.847L38.7467 23.5223C38.7094 23.7599 38.7371 24.0033 38.8268 24.2265C38.8908 24.3252 39.0242 24.3599 39.2483 24.3679L40.1793 24.4079C40.4087 24.4079 40.5474 24.3839 40.6248 24.2852C40.7341 24.076 40.783 23.8404 40.7661 23.605ZM38.1252 23.5036L38.1972 21.8257C38.1787 21.4125 38.2806 21.0029 38.4906 20.6466C38.6001 20.5133 38.742 20.4104 38.9027 20.3478C39.0634 20.2852 39.2375 20.265 39.4083 20.2891L40.3126 20.3265C40.4865 20.3148 40.6605 20.346 40.8195 20.4171C40.9786 20.4883 41.1178 20.5973 41.225 20.7346C41.401 21.0014 41.4704 21.3828 41.4464 21.9617L41.377 23.6343C41.3963 24.0255 41.3038 24.4142 41.1103 24.7547C40.9129 25.0215 40.6061 25.1469 40.1232 25.1282L39.2216 25.0908C38.7467 25.0722 38.4613 24.9468 38.2932 24.6694C38.1252 24.3919 38.1038 24.0425 38.1252 23.5036ZM41.201 19.4595L40.7608 19.5662L40.31 17.7522L37.7784 18.3791L37.605 17.6775L40.1366 17.0586L39.6911 15.2553L40.2913 15.1059C40.647 16.5464 41.0027 17.9869 41.3584 19.4275L41.1983 19.4675L41.201 19.4595ZM37.7864 14.2843L38.4613 12.9745L37.0074 12.8277L37.8077 14.2843H37.7864ZM35.2815 11.9501L38.8748 12.3209L39.2456 13.0065L37.4609 16.4744L37.0368 15.7248L37.4449 14.9458L36.2445 12.7344L35.3695 12.649L34.9747 11.9127L35.2815 11.9447V11.9501ZM34.2144 8.64222L35.6976 10.2428C35.8058 10.3851 35.948 10.4979 36.1111 10.5709C36.1938 10.5923 36.2872 10.5522 36.4046 10.4429C36.5219 10.3335 36.5726 10.2428 36.5593 10.1468C36.5011 9.96627 36.3951 9.80493 36.2525 9.67993L34.7906 8.10869L34.2144 8.64222ZM32.7712 9.75996L32.3898 9.34914L34.7533 7.15101L36.6206 9.15974C36.909 9.41743 37.1189 9.7512 37.2262 10.1228C37.2517 10.282 37.2337 10.4451 37.1741 10.5949C37.1145 10.7448 37.0154 10.8756 36.8874 10.9737C36.7865 11.0938 36.6526 11.1815 36.5022 11.2261C36.3519 11.2707 36.1918 11.2701 36.0418 11.2245C35.6909 11.0747 35.3816 10.8422 35.1401 10.5469L33.7716 9.0557L32.894 9.872L32.7819 9.75195L32.7712 9.75996ZM32.219 6.08129L30.7759 5.22765C30.5829 5.08883 30.3563 5.0041 30.1196 4.98223C29.9809 4.98223 29.8529 5.07826 29.7541 5.27033L29.282 6.07062C29.2324 6.13223 29.1991 6.20532 29.1851 6.28315C29.1711 6.36099 29.1769 6.4411 29.202 6.51612C29.338 6.71116 29.5217 6.86818 29.7355 6.97228L31.1813 7.82326C31.3741 7.9679 31.6012 8.05984 31.8402 8.09002C31.9576 8.09002 32.051 7.97531 32.1657 7.78324L32.6352 6.98295C32.7526 6.78288 32.7899 6.64416 32.7392 6.53212C32.6885 6.42008 32.5071 6.26536 32.2057 6.08663L32.219 6.08129ZM30.8852 8.35678L29.442 7.50848C29.0673 7.32931 28.753 7.04468 28.5377 6.68951C28.4717 6.52814 28.4486 6.35246 28.4706 6.17951C28.4925 6.00656 28.5589 5.84224 28.6631 5.70249L29.1193 4.92621C29.1921 4.76639 29.3032 4.62701 29.4428 4.52044C29.5824 4.41388 29.7462 4.34342 29.9195 4.31532C30.2317 4.28064 30.6078 4.40602 31.104 4.69946L32.5472 5.54777C32.9009 5.71691 33.1982 5.98462 33.4035 6.31871C33.5475 6.62015 33.5128 6.95094 33.2674 7.36442L32.8086 8.14337C32.5685 8.55152 32.3257 8.74359 32.0083 8.76226C31.6909 8.78094 31.3627 8.63155 30.8986 8.35678H30.8852ZM25.4859 5.15562L26.4676 5.34503C26.6975 5.41298 26.941 5.42033 27.1745 5.36637C27.2973 5.31835 27.3666 5.19564 27.4093 4.97956L27.484 4.60342C27.51 4.526 27.5157 4.44323 27.5008 4.36294C27.4859 4.28265 27.4507 4.2075 27.3986 4.14459C27.2083 4.00382 26.9833 3.91718 26.7477 3.89383L25.766 3.70443L25.4993 5.15562H25.4859ZM25.0538 3.55504L24.0774 3.36564C23.8479 3.29957 23.605 3.29497 23.3732 3.3523C23.2451 3.40566 23.1678 3.53104 23.1251 3.74711L23.0531 4.12325C23.0104 4.33933 23.0317 4.48071 23.1277 4.57141C23.3249 4.71214 23.5561 4.79777 23.7973 4.8195L24.7737 5.0089L25.0404 3.55504H25.0538ZM25.9021 2.98951L25.8834 3.08554L26.8598 3.27227C27.428 3.38432 27.7908 3.53904 27.9988 3.8058C28.1043 3.93885 28.1765 4.09515 28.2095 4.26171C28.2424 4.42828 28.2352 4.6003 28.1882 4.76348L28.1216 5.11561C28.1077 5.28944 28.0487 5.45665 27.9504 5.60074C27.8522 5.74482 27.7181 5.8608 27.5614 5.93724C27.1659 6.06054 26.743 6.06518 26.3449 5.95058L25.3659 5.76384L25.3125 6.03061L24.6029 5.89456L24.6563 5.62779L23.6799 5.43839C23.267 5.39474 22.8758 5.23158 22.5542 4.96889C22.4375 4.83728 22.3574 4.67736 22.3218 4.5051C22.2862 4.33285 22.2965 4.15427 22.3515 3.9872L22.4182 3.63507C22.4321 3.46219 22.488 3.29532 22.5809 3.1489C22.6739 3.00248 22.8012 2.88093 22.9517 2.79477C23.2425 2.65338 23.6373 2.65338 24.2028 2.75742L25.1792 2.94682L25.2298 2.6934L25.9394 2.83212L25.9101 2.98951H25.9021ZM18.2006 4.17927L20.3641 3.8965C20.5414 3.89051 20.7145 3.84104 20.8683 3.75245C20.935 3.69643 20.9563 3.60039 20.935 3.44034C20.9136 3.28028 20.8709 3.18691 20.7856 3.14423C20.6045 3.08538 20.4108 3.07708 20.2254 3.12022L18.0913 3.38698L18.1926 4.1686L18.2006 4.17927ZM18.2753 6.00393L17.7205 6.07596L17.3016 2.8748L20.0226 2.52C20.4025 2.43919 20.7975 2.46787 21.1617 2.6027C21.3058 2.67477 21.4278 2.78447 21.5147 2.92019C21.6015 3.0559 21.6501 3.21258 21.6552 3.37364C21.6942 3.52509 21.6879 3.68463 21.6371 3.83254C21.5864 3.98046 21.4935 4.11027 21.3698 4.20595C21.0446 4.39633 20.6789 4.50695 20.3027 4.52873L18.2807 4.78749L18.4354 5.97725L18.2753 5.9986V6.00393ZM12.876 4.56874L16.1626 3.20825L16.3973 3.78179L13.631 4.92621L13.8711 5.51042L16.568 4.39802L16.8055 4.96889L14.1058 6.08396L14.3886 6.76421L17.1576 5.61979L17.3923 6.19333L13.9564 7.60985L12.732 4.6301L12.8814 4.56874H12.876ZM11.809 5.281L13.6977 7.69788L13.1268 8.1407L11.5262 6.08663L9.10133 7.98865L10.7019 10.0454L10.131 10.4909L8.14899 7.9353L11.7103 5.15296L11.809 5.281ZM4.55035 12.9691L7.48475 12.7024L6.47905 9.85599L7.07126 8.93833L9.78158 10.683L9.39211 11.2912L7.1753 9.85599L8.2877 12.9985L8.09297 13.3239L4.76376 13.5907L6.9859 15.0232L6.59643 15.6394L3.87811 13.8948L4.46232 12.9771H4.54235L4.55035 12.9691ZM3.66203 16.8078L3.28322 18.4404C3.20878 18.6659 3.19589 18.9072 3.24588 19.1394C3.2939 19.2701 3.41394 19.3528 3.63002 19.4061L4.53434 19.6169C4.74776 19.6675 4.88647 19.6515 4.98251 19.5582C5.12851 19.3682 5.22066 19.1425 5.24927 18.9046L5.63074 17.2693C5.71148 17.0437 5.72991 16.8004 5.68409 16.5651C5.63874 16.4557 5.51337 16.397 5.29195 16.3463L4.38762 16.1356C4.16354 16.0849 4.01949 16.0903 3.92612 16.1729C3.78083 16.3582 3.68862 16.5795 3.65936 16.8132L3.66203 16.8078ZM6.23629 17.4001L5.85482 19.0326C5.79711 19.4436 5.61993 19.8286 5.3453 20.1397C5.2118 20.2512 5.05159 20.326 4.88042 20.3569C4.70925 20.3878 4.53299 20.3736 4.36895 20.3158L3.4913 20.113C3.31786 20.092 3.15224 20.0287 3.00898 19.9287C2.86572 19.8287 2.7492 19.6951 2.66967 19.5395C2.54162 19.2514 2.54963 18.8566 2.66967 18.2964L3.04847 16.6611C3.10462 16.2736 3.27134 15.9105 3.52865 15.6154C3.7714 15.3887 4.09685 15.322 4.56636 15.4313L5.44668 15.6368C5.90818 15.7435 6.16427 15.9195 6.27898 16.221C6.39368 16.5224 6.34567 16.8745 6.22296 17.4001H6.23629ZM3.91012 24.3813L3.7794 22.2018C3.78358 22.024 3.74324 21.8479 3.66203 21.6896C3.61134 21.6176 3.51531 21.5909 3.35525 21.6016C3.19519 21.6122 3.08849 21.6469 3.04581 21.7296C2.976 21.9067 2.95482 22.0992 2.98445 22.2872L3.1125 24.4213L3.91279 24.3759L3.91012 24.3813ZM5.73478 24.4346L5.76679 24.9921L2.54429 25.1842L2.38156 22.4446C2.33029 22.0641 2.38666 21.6769 2.54429 21.3268C2.62641 21.1888 2.74389 21.0753 2.88458 20.9979C3.02527 20.9205 3.18408 20.8821 3.34458 20.8867C3.49723 20.8609 3.65407 20.8799 3.79612 20.9414C3.93817 21.003 4.05931 21.1044 4.14487 21.2334C4.31375 21.5739 4.39881 21.9498 4.39296 22.3298L4.513 24.3519L5.72411 24.2612V24.4266L5.73478 24.4346Z" fill="white"/>
<path d="M21.8925 36.9408C24.5021 36.9391 27.066 36.2557 29.3302 34.9582C31.5944 33.6606 33.4804 31.7941 34.8012 29.5435H8.99719C10.3176 31.7945 12.2035 33.6613 14.4678 34.9589C16.732 36.2564 19.2961 36.9396 21.9059 36.9408H21.8925Z" fill="white"/>
<path d="M21.8926 18.4189L15.3729 23.9943L8.9386 29.4683L8.95727 29.4976L21.8926 25.4962L34.8253 29.4976C34.8331 29.4883 34.8402 29.4785 34.8466 29.4683L28.4123 23.9943L21.8926 18.4189Z" fill="white"/>
<path d="M6.90308 21.9479C6.90234 24.577 7.5972 27.1595 8.91714 29.4333L21.8925 6.9585C17.9171 6.9585 14.1044 8.53774 11.2934 11.3488C8.48232 14.1599 6.90308 17.9725 6.90308 21.9479Z" fill="white"/>
<path d="M21.8926 6.95851L28.4123 18.2506L34.8733 29.4333C36.1917 27.1557 36.8866 24.5709 36.8878 21.9392C36.8891 19.3075 36.1968 16.722 34.8806 14.4431C33.5643 12.1642 31.6708 10.2725 29.3906 8.95849C27.1105 7.6445 24.5242 6.95468 21.8926 6.95851Z" fill="white"/>
<path d="M6.27637 32.1035C6.27637 31.9452 6.3233 31.7905 6.41124 31.6589C6.49918 31.5273 6.62417 31.4247 6.7704 31.3641C6.91663 31.3036 7.07755 31.2877 7.23279 31.3186C7.38803 31.3495 7.53063 31.4257 7.64255 31.5376C7.75447 31.6495 7.83069 31.7921 7.86157 31.9474C7.89245 32.1026 7.8766 32.2635 7.81603 32.4098C7.75546 32.556 7.65288 32.681 7.52127 32.7689C7.38967 32.8569 7.23494 32.9038 7.07666 32.9038C6.86441 32.9038 6.66085 32.8195 6.51077 32.6694C6.36068 32.5193 6.27637 32.3158 6.27637 32.1035Z" fill="white"/>
<path d="M36.0709 31.9087C36.0709 31.7504 36.1179 31.5957 36.2058 31.4641C36.2937 31.3325 36.4187 31.2299 36.565 31.1693C36.7112 31.1087 36.8721 31.0929 37.0273 31.1238C37.1826 31.1547 37.3252 31.2309 37.4371 31.3428C37.549 31.4547 37.6252 31.5973 37.6561 31.7526C37.687 31.9078 37.6712 32.0687 37.6106 32.2149C37.55 32.3612 37.4474 32.4862 37.3158 32.5741C37.1842 32.662 37.0295 32.709 36.8712 32.709C36.659 32.709 36.4554 32.6247 36.3053 32.4746C36.1552 32.3245 36.0709 32.1209 36.0709 31.9087Z" fill="white"/>
<path fill-rule="evenodd" clip-rule="evenodd" d="M7.80471 35.313L9.83478 33.0215L11.7608 34.7288C11.8674 34.8239 11.9689 34.9245 12.0649 35.0302C12.1451 35.1182 12.2166 35.2138 12.2783 35.3157C12.3311 35.4027 12.3706 35.4971 12.3957 35.5958C12.4128 35.6901 12.4128 35.7868 12.3957 35.8812C12.3796 35.9747 12.3481 36.0648 12.3023 36.148C12.2509 36.2446 12.1872 36.3343 12.1129 36.4147C12.0427 36.4959 11.963 36.5685 11.8755 36.6308C11.795 36.6855 11.7043 36.7236 11.6088 36.7428C11.5207 36.7599 11.4301 36.7599 11.342 36.7428C11.2491 36.7233 11.1593 36.691 11.0752 36.6468C10.9741 36.5914 10.8769 36.529 10.7845 36.4601C10.6671 36.3769 10.554 36.2879 10.4457 36.1933L8.99714 34.9022L8.19685 35.8092L7.73535 35.401L7.81538 35.313H7.80471ZM9.3466 34.5127L10.8992 35.8865C10.9739 35.9532 11.0405 36.0092 11.1019 36.0546C11.1507 36.0925 11.2024 36.1264 11.2566 36.156C11.2907 36.175 11.3277 36.1885 11.366 36.196C11.3933 36.2014 11.4214 36.2014 11.4487 36.196C11.4815 36.1853 11.5121 36.169 11.5394 36.148C11.5855 36.1146 11.6267 36.0751 11.6621 36.0306C11.7207 35.9703 11.7677 35.8997 11.8008 35.8225C11.8219 35.7719 11.8292 35.7167 11.8222 35.6624C11.8069 35.5966 11.7778 35.5348 11.7368 35.481C11.6736 35.3943 11.6002 35.3155 11.5181 35.2463L9.93615 33.8458L9.34393 34.5154L9.3466 34.5127ZM16.053 38.3648C16.0863 38.2907 16.1131 38.214 16.1331 38.1353C16.1455 38.0811 16.1508 38.0255 16.1491 37.9699C16.1457 37.9288 16.1339 37.8889 16.1144 37.8526C16.0914 37.8099 16.0606 37.7719 16.0237 37.7405C15.9655 37.6934 15.904 37.6506 15.8396 37.6125C15.7478 37.5606 15.6535 37.5134 15.5569 37.4711L14.1003 36.7989C14.0094 36.7571 13.9159 36.7214 13.8202 36.6922C13.7482 36.6684 13.674 36.6514 13.5988 36.6415C13.5459 36.632 13.4917 36.632 13.4388 36.6415C13.3929 36.6518 13.3494 36.6708 13.3107 36.6975C13.2649 36.7292 13.2244 36.7679 13.1907 36.8122C13.1453 36.8731 13.106 36.9384 13.0733 37.0069L12.6918 37.8632C12.6688 37.9171 12.6492 37.9723 12.6331 38.0286C12.6206 38.074 12.6126 38.1204 12.6091 38.1674C12.6051 38.2019 12.6051 38.2368 12.6091 38.2714C12.6164 38.3043 12.6291 38.3359 12.6465 38.3648C12.6673 38.3981 12.6924 38.4286 12.7212 38.4555C12.756 38.4906 12.7944 38.5219 12.8359 38.5488C12.887 38.592 12.9414 38.6313 12.9986 38.6662C13.0626 38.7009 13.1346 38.7356 13.2173 38.7729L14.6739 39.4211C14.7738 39.4676 14.8762 39.5085 14.9806 39.5438C15.0525 39.5694 15.1267 39.5882 15.2021 39.5999C15.2479 39.6081 15.2949 39.6081 15.3408 39.5999C15.3773 39.5927 15.4113 39.5762 15.4395 39.5519C15.4809 39.5175 15.5169 39.477 15.5462 39.4318C15.5916 39.3573 15.6317 39.2798 15.6662 39.1997L16.0477 38.3434L16.053 38.3648ZM16.2344 39.4745C16.1928 39.5662 16.1456 39.6553 16.093 39.7413C16.0481 39.8136 15.9963 39.8815 15.9383 39.944C15.8857 40.0018 15.8245 40.0513 15.7569 40.0907C15.6927 40.1286 15.6222 40.1548 15.5488 40.1681C15.4744 40.1842 15.3981 40.1896 15.3221 40.1841C15.2384 40.1777 15.1554 40.1643 15.074 40.1441C14.9835 40.1197 14.8945 40.0903 14.8072 40.056C14.7077 40.0222 14.5983 39.9769 14.4791 39.92L13.0226 39.2718C12.9052 39.2184 12.7985 39.1677 12.7052 39.1144C12.612 39.0683 12.5228 39.0148 12.4384 38.9543C12.366 38.9035 12.2989 38.8454 12.2383 38.7809C12.183 38.7236 12.1347 38.6601 12.0943 38.5915C12.0578 38.5251 12.03 38.4542 12.0116 38.3808C11.9946 38.3055 11.9883 38.2283 11.9929 38.1513C11.9966 38.0683 12.0101 37.9859 12.0329 37.9059C12.0568 37.8146 12.088 37.7254 12.1263 37.6392C12.2063 37.5031 12.4437 36.9562 12.4997 36.7989C12.5391 36.7121 12.5845 36.6283 12.6358 36.5481C12.6802 36.4777 12.7311 36.4116 12.7878 36.3507C12.842 36.2952 12.9029 36.2468 12.9692 36.2066C13.0352 36.1672 13.106 36.1367 13.18 36.1159C13.2585 36.0964 13.3391 36.0865 13.4201 36.0866C13.5097 36.0865 13.599 36.0954 13.6868 36.1133C13.7881 36.1345 13.8879 36.1621 13.9856 36.196C14.0897 36.2307 14.2017 36.276 14.3244 36.3294L15.7809 36.9803C15.9134 37.039 16.0425 37.1049 16.1677 37.1777C16.2696 37.2375 16.366 37.3063 16.4558 37.3831C16.5349 37.4529 16.6024 37.5349 16.6559 37.6258C16.7063 37.7157 16.739 37.8144 16.752 37.9166C16.7649 38.0288 16.7595 38.1423 16.7359 38.2527C16.7069 38.3825 16.6659 38.5094 16.6132 38.6315C16.4721 38.9029 16.3457 39.1816 16.2344 39.4665V39.4745ZM19.8731 41.2485L18.2885 41.0617C18.1366 41.044 17.986 41.0164 17.8377 40.979C17.7157 40.9516 17.5974 40.9095 17.4855 40.8537C17.3869 40.8077 17.2968 40.7455 17.2188 40.6696C17.1448 40.5974 17.0859 40.5113 17.0454 40.4162C17.0028 40.3161 16.9767 40.2098 16.968 40.1014C16.9561 39.9763 16.9561 39.8503 16.968 39.7252C16.968 39.6185 17.0454 38.973 17.0721 38.8716C17.0875 38.7456 17.1152 38.6214 17.1548 38.5008C17.1909 38.3975 17.2412 38.2996 17.3042 38.21C17.3666 38.1259 17.4444 38.0544 17.5336 37.9993C17.627 37.9423 17.7287 37.9 17.835 37.8739C17.9585 37.846 18.0846 37.8317 18.2111 37.8312C18.3628 37.8289 18.5143 37.8378 18.6646 37.8579L20.2492 38.0473C20.6151 38.0671 20.9682 38.1891 21.2683 38.3994C21.383 38.4889 21.4713 38.6079 21.5234 38.7438C21.5756 38.8796 21.5898 39.0271 21.5644 39.1704L21.5484 39.2878L20.9455 39.1997V39.0823C20.9522 39.0399 20.9522 38.9967 20.9455 38.9543C20.9409 38.9185 20.9291 38.884 20.9108 38.8529C20.8922 38.821 20.8678 38.793 20.8388 38.7702C20.7948 38.7362 20.7463 38.7083 20.6947 38.6875C20.6255 38.6559 20.553 38.6317 20.4786 38.6155C20.3818 38.5936 20.2838 38.5766 20.1852 38.5648L18.6006 38.3781C18.4944 38.3654 18.3875 38.3583 18.2805 38.3568C18.2026 38.356 18.1249 38.3631 18.0484 38.3781C17.9956 38.3874 17.9449 38.4064 17.899 38.4341C17.8599 38.459 17.8263 38.4917 17.8003 38.5302C17.7682 38.5798 17.743 38.6337 17.7256 38.6902C17.7022 38.7704 17.6862 38.8525 17.6776 38.9356L17.5763 39.7866C17.5714 39.8488 17.5714 39.9112 17.5763 39.9733C17.5757 40.0218 17.5811 40.0702 17.5923 40.1174C17.5994 40.1538 17.612 40.1888 17.6296 40.2214C17.6461 40.2509 17.6668 40.2778 17.691 40.3015C17.7211 40.329 17.7542 40.3532 17.7897 40.3735C17.8331 40.3972 17.8786 40.4169 17.9257 40.4322C17.9877 40.4523 18.051 40.4683 18.1151 40.4802C18.1845 40.4802 18.2645 40.5069 18.3552 40.5175L19.9398 40.7069C20.0786 40.7255 20.2187 40.7318 20.3586 40.7256C20.45 40.7267 20.5407 40.7095 20.6254 40.6749C20.6786 40.6532 20.7241 40.616 20.7561 40.5682C20.7911 40.5127 20.8122 40.4496 20.8174 40.3842V40.2641L21.431 40.3388V40.4562C21.4193 40.5532 21.3951 40.6482 21.359 40.739C21.3237 40.8236 21.2751 40.9019 21.2149 40.971C21.1503 41.0405 21.0734 41.0975 20.9882 41.1391C20.8951 41.1842 20.7964 41.2165 20.6947 41.2351C20.5733 41.2577 20.45 41.2684 20.3266 41.2671C20.1794 41.2672 20.0323 41.2574 19.8864 41.2378L19.8731 41.2485ZM25.4458 41.0511L23.8612 41.2405C23.7099 41.26 23.5576 41.2698 23.405 41.2698C23.2795 41.2688 23.1544 41.2554 23.0316 41.2298C22.9261 41.2078 22.8251 41.1681 22.7328 41.1124C22.6444 41.0586 22.5666 40.9889 22.5034 40.907C22.4398 40.8192 22.3903 40.722 22.3566 40.6189C22.3161 40.5002 22.2875 40.3778 22.2713 40.2534C22.2446 40.1494 22.1699 39.5038 22.1699 39.3971C22.1567 39.2721 22.1567 39.146 22.1699 39.021C22.1793 38.9113 22.2045 38.8035 22.2446 38.7009C22.2857 38.6022 22.3445 38.5118 22.418 38.4341C22.4956 38.3557 22.5858 38.2908 22.6848 38.242C22.7985 38.1871 22.9173 38.1433 23.0396 38.1113C23.1871 38.0745 23.3368 38.0468 23.4877 38.0286L25.0723 37.8419C25.4305 37.7769 25.7998 37.812 26.1394 37.9433C26.2707 38.0037 26.3833 38.0987 26.465 38.218C26.5467 38.3373 26.5946 38.4765 26.6035 38.6208V38.7382L25.99 38.8129V38.6929C25.9853 38.6506 25.9745 38.6093 25.958 38.5702C25.9435 38.5375 25.9246 38.507 25.9019 38.4795C25.8759 38.4527 25.8451 38.431 25.8112 38.4154C25.7613 38.392 25.7083 38.3758 25.6538 38.3674C25.5791 38.3538 25.5031 38.3475 25.4271 38.3487C25.3272 38.3501 25.2274 38.3573 25.1283 38.3701L23.5464 38.5595C23.4396 38.5705 23.3335 38.5883 23.229 38.6128C23.1528 38.63 23.0786 38.655 23.0075 38.6875C22.9588 38.7095 22.9145 38.7403 22.8768 38.7782C22.845 38.8115 22.8197 38.8504 22.8021 38.8929C22.7834 38.949 22.7726 39.0073 22.7701 39.0663C22.7624 39.1498 22.7624 39.2337 22.7701 39.3171L22.8715 40.1681C22.879 40.2301 22.8906 40.2916 22.9062 40.3521C22.9181 40.3988 22.9341 40.4444 22.9542 40.4882C22.9702 40.522 22.9909 40.5534 23.0156 40.5816C23.0398 40.6058 23.0666 40.6272 23.0956 40.6456C23.1313 40.6644 23.1689 40.6795 23.2076 40.6909C23.2559 40.7026 23.3049 40.7106 23.3543 40.7149C23.4192 40.719 23.4842 40.719 23.5491 40.7149C23.6211 40.7149 23.7011 40.7149 23.7918 40.6963L25.3764 40.5069C25.5154 40.4918 25.6528 40.465 25.7872 40.4268C25.8713 40.4044 25.9507 40.3674 26.022 40.3175C26.0676 40.2834 26.1027 40.2372 26.1233 40.1841C26.144 40.1213 26.1494 40.0546 26.1394 39.9893V39.8693L26.7502 39.7973L26.7662 39.9146C26.7783 40.0121 26.7783 40.1106 26.7662 40.2081C26.7523 40.301 26.7234 40.3911 26.6809 40.4749C26.6351 40.5581 26.5735 40.6315 26.4995 40.6909C26.4192 40.7589 26.3293 40.8146 26.2327 40.8563C26.1211 40.9062 26.0049 40.9455 25.8859 40.9737C25.7418 41.0075 25.5957 41.0325 25.4484 41.0484L25.4458 41.0511ZM30.6717 35.8945L31.9388 38.6662L31.3759 38.933L30.2662 36.4814L28.7696 40.1121L28.0574 40.4322L26.7449 37.5325L27.3078 37.2657L28.3748 39.6239L29.8047 36.1453L30.621 35.7745L30.669 35.8839L30.6717 35.8945ZM35.8442 35.5771L35.4627 35.8972L34.6838 34.9662L33.422 36.0332L33.3099 37.7112L32.6457 38.2687L32.8164 36.5214C32.6365 36.6502 32.4258 36.7294 32.2055 36.7508C32.0705 36.7555 31.9364 36.7274 31.8147 36.6688C31.693 36.6103 31.5872 36.5231 31.5066 36.4147C31.4365 36.3333 31.3765 36.2437 31.3279 36.148C31.2815 36.0608 31.2517 35.9658 31.2399 35.8678C31.2294 35.772 31.2375 35.6751 31.2639 35.5824C31.2915 35.488 31.3329 35.3981 31.3866 35.3157C31.4515 35.2204 31.5247 35.1312 31.6053 35.0489C31.704 34.9446 31.8091 34.8465 31.9201 34.7554L33.8915 33.0988L35.9349 35.5344L35.8442 35.6118V35.5771ZM34.3397 34.5474L33.7634 33.8645L32.1469 35.2196C32.0887 35.2688 32.0334 35.3213 31.9815 35.377C31.9431 35.4194 31.9083 35.4649 31.8774 35.5131C31.857 35.5487 31.8426 35.5874 31.8347 35.6278C31.8281 35.663 31.8281 35.6992 31.8347 35.7345C31.8452 35.7769 31.8604 35.8181 31.8801 35.8572C31.936 35.9596 32.0111 36.0502 32.1015 36.1239C32.1289 36.1469 32.1607 36.1642 32.1949 36.1746C32.222 36.1814 32.2504 36.1814 32.2776 36.1746C32.3155 36.1685 32.3524 36.1568 32.3869 36.1399C32.4413 36.1102 32.4939 36.0772 32.5443 36.0412C32.6084 35.9959 32.6777 35.9425 32.7524 35.8785L34.353 34.5447L34.3397 34.5474Z" fill="white"/>
<path d="M0.194115 21.9495C0.194857 16.9302 1.93592 12.0664 5.12066 8.18682C8.3054 4.30724 12.7368 1.65192 17.6598 0.673263C22.5828 -0.305393 27.6928 0.453167 32.1192 2.8197C36.5457 5.18624 40.0146 9.01433 41.935 13.6517C43.8555 18.2892 44.1086 23.449 42.6512 28.2521C41.1939 33.0552 38.1162 37.2044 33.9426 39.9928C29.7691 42.7812 24.7578 44.0362 19.7627 43.5441C14.7675 43.0519 10.0976 40.843 6.54842 37.2938C4.53039 35.281 2.93013 32.8892 1.83963 30.2559C0.749128 27.6226 0.189906 24.7997 0.194115 21.9495ZM6.8632 6.92275C3.38601 10.4011 1.22248 14.9775 0.74126 19.8722C0.260036 24.7669 1.49089 29.677 4.2241 33.7659C6.95731 37.8549 11.0238 40.8696 15.7305 42.2964C20.4373 43.7232 25.4932 43.4738 30.0368 41.5907C34.5803 39.7077 38.3304 36.3074 40.6479 31.9694C42.9655 27.6314 43.7072 22.624 42.7466 17.8004C41.7861 12.9768 39.1827 8.63549 35.3801 5.51621C31.5775 2.39693 26.8109 0.692673 21.8926 0.693826C19.1006 0.690694 16.3355 1.23938 13.7563 2.30835C11.177 3.37732 8.83444 4.9455 6.8632 6.92275Z" fill="white"/>
</g>
<defs>
<clipPath id="clip0">
<rect width="43.3944" height="43.3944" fill="white" transform="translate(0.194092 0.252441)"/>
</clipPath>
</defs>
</svg>
