<svg width="120" height="28" viewBox="0 0 120 28" fill="none" xmlns="http://www.w3.org/2000/svg">
<g clip-path="url(#clip0)">
<path d="M38.8956 8.01231C38.8884 7.68178 38.9996 7.35958 39.2092 7.10392C39.322 7.00526 39.4534 6.93005 39.5955 6.88265C39.7377 6.83526 39.8879 6.81665 40.0373 6.82789H45.8867C46.6462 6.82789 47.0268 7.22604 47.0284 8.02235V18.9958C47.0284 19.1263 47.0033 19.2116 46.9557 19.2468C46.8732 19.2901 46.7799 19.3084 46.6872 19.2995H45.1815C45.0946 19.3053 45.0078 19.287 44.9306 19.2468C44.8754 19.2116 44.8503 19.1263 44.8503 18.9958V8.72497H40.9106L40.8002 10.2783C40.7082 11.6166 40.6111 12.8052 40.5091 13.8441C40.4329 14.7685 40.2579 15.6821 39.9871 16.5693C39.7783 17.2792 39.4091 17.9317 38.9081 18.4764C38.367 19.0187 37.6915 19.4076 36.9508 19.6031C36.854 19.6305 36.7515 19.6305 36.6547 19.6031C36.6077 19.5769 36.5668 19.5409 36.5348 19.4976C36.5028 19.4544 36.4803 19.4048 36.469 19.3522L36.0951 18.2982C36.0728 18.211 36.0728 18.1195 36.0951 18.0322C36.1102 17.9595 36.1854 17.8942 36.3159 17.8365C36.7645 17.657 37.1649 17.3751 37.4853 17.0134C37.7942 16.6196 38.0157 16.1645 38.1352 15.6784C38.3098 14.9911 38.4256 14.2901 38.4815 13.5831C38.5601 12.7467 38.6438 11.7095 38.7325 10.4715L38.9081 8.0098" fill="white"/>
<path d="M57.4349 14.5745C57.4349 16.1554 57.0702 17.3708 56.3408 18.2206C55.6114 19.0704 54.524 19.4954 53.0786 19.4954C51.6416 19.4954 50.5684 19.0822 49.8591 18.2557C49.1498 17.4293 48.7934 16.2215 48.7901 14.6322C48.7772 13.9239 48.8859 13.2186 49.1113 12.5469C49.3008 11.9805 49.6039 11.4588 50.0021 11.0137C50.38 10.5987 50.8454 10.273 51.3647 10.0601C51.9223 9.8338 52.5195 9.72118 53.1213 9.72889C54.5365 9.72889 55.6097 10.1597 56.3408 11.0212C57.0718 11.8828 57.4365 13.0689 57.4349 14.5795V14.5745ZM55.3144 14.6322C55.3167 14.2244 55.2831 13.8171 55.2141 13.4152C55.1598 13.0639 55.0461 12.7245 54.8778 12.4114C54.7241 12.1254 54.4961 11.8862 54.2179 11.7188C53.8932 11.5409 53.5264 11.4541 53.1564 11.4679C52.8056 11.4624 52.4596 11.5489 52.1526 11.7188C51.8682 11.8799 51.6244 12.1039 51.44 12.3738C51.2395 12.6732 51.0973 13.0078 51.0209 13.3599C50.9299 13.766 50.8853 14.181 50.8879 14.5971C50.8879 15.5874 51.0477 16.367 51.3672 16.9358C51.6909 17.5054 52.2605 17.789 53.0811 17.789C53.4299 17.8046 53.7762 17.7242 54.0824 17.5565C54.3886 17.3888 54.6429 17.1402 54.8176 16.8379C54.9998 16.5277 55.1263 16.188 55.1915 15.8342C55.2734 15.4388 55.3146 15.036 55.3144 14.6322Z" fill="white"/>
<path d="M76.9628 14.5744C76.9628 16.1553 76.5981 17.3707 75.8688 18.2206C75.1394 19.0704 74.052 19.4953 72.6066 19.4953C71.1679 19.4953 70.0947 19.0821 69.387 18.2557C68.6794 17.4293 68.3231 16.2214 68.318 14.6322C68.3069 13.9241 68.4146 13.2193 68.6367 12.5469C68.828 11.9808 69.1319 11.4592 69.5301 11.0136C69.9084 10.5992 70.3737 10.2735 70.8927 10.0601C71.4504 9.83421 72.0475 9.72161 72.6492 9.72884C74.0662 9.72884 75.1394 10.1596 75.8688 11.0212C76.5981 11.8827 76.9628 13.0688 76.9628 14.5795V14.5744ZM74.8449 14.6322C74.8455 14.2245 74.8127 13.8175 74.7471 13.4151C74.6888 13.0642 74.5735 12.7251 74.4058 12.4114C74.252 12.1254 74.024 11.8861 73.7458 11.7188C73.4219 11.5411 73.056 11.4544 72.6869 11.4678C72.3361 11.4623 71.99 11.5489 71.6831 11.7188C71.3989 11.8792 71.1558 12.1034 70.973 12.3737C70.7707 12.6725 70.6275 13.0072 70.5514 13.3599C70.4604 13.7659 70.4158 14.1809 70.4184 14.597C70.4184 15.5874 70.579 16.367 70.9002 16.9358C71.2214 17.5046 71.7919 17.7889 72.6116 17.7889C72.9794 17.8051 73.3444 17.7181 73.6655 17.538C73.947 17.3676 74.1822 17.1306 74.3506 16.8479C74.5317 16.5372 74.6581 16.1977 74.7245 15.8442C74.8062 15.4454 74.8466 15.0392 74.8449 14.6322Z" fill="white"/>
<path d="M80.0443 19.2995C79.9044 19.3156 79.7627 19.3032 79.6277 19.2631C79.4927 19.223 79.3673 19.156 79.2588 19.0661C79.0995 18.849 79.0237 18.5817 79.0455 18.3133V8.0299C79.0455 7.22188 79.4245 6.81787 80.1873 6.81787H86.9074C87.0379 6.81787 87.1207 6.84547 87.1583 6.89817C87.2018 6.98329 87.2201 7.07905 87.211 7.1742V8.38874C87.2205 8.47585 87.202 8.56371 87.1583 8.63967C87.1232 8.68735 87.0404 8.70994 86.9074 8.70994H81.2362V11.4702H84.1647C84.7467 11.4587 85.3276 11.5271 85.8911 11.6735C86.3192 11.7894 86.7258 11.9732 87.0956 12.218C87.3991 12.4216 87.6649 12.6763 87.881 12.9709C88.0702 13.2364 88.2198 13.5281 88.3252 13.8366C88.4222 14.1137 88.4887 14.4007 88.5234 14.6923C88.551 14.9658 88.5661 15.2092 88.5661 15.425C88.5735 15.9613 88.4621 16.4927 88.2399 16.9808C88.0264 17.4478 87.7208 17.8668 87.3415 18.2129C86.9502 18.5623 86.4964 18.8348 86.004 19.0159C85.4782 19.2072 84.9225 19.3033 84.3629 19.2995H80.0443ZM86.3026 15.2845C86.3105 14.7631 86.1152 14.2592 85.7581 13.8792C85.55 13.678 85.302 13.5227 85.0301 13.4233C84.7582 13.3239 84.4685 13.2826 84.1797 13.3021H81.2362V17.3397H84.1446C84.5062 17.3523 84.8659 17.2819 85.196 17.1339C85.4485 17.0144 85.6733 16.8434 85.856 16.632C86.0192 16.4387 86.1375 16.2116 86.2023 15.967C86.2665 15.7485 86.3002 15.5222 86.3026 15.2945V15.2845Z" fill="white"/>
<path d="M97.9812 18.2805C97.9922 18.4017 97.9656 18.5233 97.905 18.6289C97.8443 18.7344 97.7527 18.8187 97.6425 18.8702C97.3685 18.9944 97.0848 19.0959 96.7943 19.1739C96.4867 19.2586 96.1741 19.324 95.8583 19.3696C95.5415 19.4182 95.2224 19.4509 94.9022 19.4675C94.5886 19.4875 94.29 19.4951 94.0039 19.4951C93.345 19.5107 92.6874 19.4304 92.0516 19.2567C91.6019 19.1295 91.1832 18.9108 90.822 18.6143C90.529 18.3624 90.3103 18.0353 90.1896 17.6682C89.9404 16.902 89.9492 16.0752 90.2147 15.3145C90.3543 14.9316 90.5831 14.5875 90.8822 14.3107C91.2318 13.9964 91.6416 13.7565 92.0867 13.6056C92.67 13.4131 93.282 13.3223 93.896 13.3371H95.9035V13.0359C95.9057 12.8256 95.8821 12.6157 95.8332 12.4111C95.7875 12.2217 95.6912 12.0482 95.5547 11.9092C95.3987 11.7545 95.2062 11.6414 94.9951 11.5805C94.6942 11.4948 94.3819 11.4559 94.0691 11.4651C93.6272 11.4679 93.186 11.5031 92.7492 11.5705C92.3559 11.6233 91.9674 11.7072 91.5874 11.8214C91.4965 11.8545 91.398 11.8606 91.3038 11.839C91.2436 11.8139 91.2034 11.7486 91.1808 11.6407L90.9299 10.637C90.8814 10.4463 90.9341 10.3208 91.088 10.2606C91.6178 10.064 92.1685 9.92932 92.7291 9.85908C93.2849 9.78563 93.8448 9.74708 94.4054 9.74365C95.6417 9.74365 96.5476 10.0172 97.123 10.5642C97.6985 11.1113 97.9879 11.9076 97.9913 12.9531V18.2805H97.9812ZM95.8859 14.913H94.1745C93.9738 14.913 93.7555 14.9255 93.5246 14.9481C93.2938 14.9732 93.0695 15.0395 92.8621 15.1438C92.6535 15.2516 92.4762 15.4115 92.3477 15.6081C92.197 15.8606 92.1253 16.1525 92.1419 16.4462C92.1419 16.9481 92.3151 17.3144 92.6564 17.5152C93.0739 17.7326 93.541 17.8372 94.0114 17.8188C94.0942 17.8188 94.2097 17.8188 94.3577 17.8188C94.5165 17.8138 94.6748 17.7995 94.832 17.7762C94.9976 17.7511 95.1733 17.7209 95.3564 17.6858C95.528 17.6556 95.6961 17.6086 95.8583 17.5453L95.8859 14.913Z" fill="white"/>
<path d="M102.277 19.2369C102.185 19.2867 102.081 19.3085 101.976 19.2996H100.686C100.583 19.3061 100.481 19.2807 100.393 19.2268C100.357 19.1898 100.329 19.1451 100.313 19.096C100.296 19.0469 100.291 18.9947 100.297 18.9433V10.2784C100.292 10.2293 100.297 10.1796 100.314 10.133C100.33 10.0864 100.357 10.0443 100.393 10.0099C100.481 9.95603 100.583 9.93062 100.686 9.93713H101.976C102.08 9.9295 102.185 9.95124 102.277 9.99987C102.338 10.0425 102.365 10.1329 102.365 10.2784V13.4503H106.307V10.2784C106.301 10.2291 106.306 10.1789 106.323 10.1321C106.34 10.0854 106.368 10.0435 106.405 10.0099C106.493 9.95492 106.596 9.92942 106.699 9.93713H107.999C108.104 9.92547 108.21 9.94743 108.302 9.99987C108.362 10.0795 108.388 10.1796 108.375 10.2784V18.9433C108.375 19.0988 108.35 19.1942 108.302 19.2369C108.21 19.2893 108.104 19.3113 107.999 19.2996H106.699C106.596 19.3073 106.493 19.2818 106.405 19.2268C106.368 19.1907 106.339 19.1462 106.322 19.0969C106.305 19.0476 106.3 18.9949 106.307 18.9433V15.134H102.365V18.9433C102.365 19.0988 102.338 19.1942 102.277 19.2369Z" fill="white"/>
<path d="M119.263 18.9711L116.252 14.3363L118.975 10.2937C118.998 10.2647 119.014 10.2297 119.019 10.1925C119.024 10.1554 119.02 10.1175 119.005 10.0829C118.99 10.0479 118.965 10.0181 118.934 9.99709C118.902 9.97611 118.865 9.96494 118.827 9.96498H116.977C116.949 9.96499 116.921 9.97104 116.896 9.98273C116.87 9.99443 116.848 10.0115 116.829 10.0327L114.438 13.4881H112.751V10.226C112.751 10.0955 112.729 10.0152 112.681 9.97502C112.603 9.93684 112.517 9.92037 112.43 9.92734H111.002C110.916 9.92133 110.83 9.93775 110.751 9.97502C110.699 10.0026 110.674 10.0829 110.674 10.226V19.0088C110.674 19.1367 110.699 19.217 110.751 19.2597C110.831 19.2935 110.917 19.3082 111.002 19.3024H112.43C112.516 19.3091 112.602 19.2944 112.681 19.2597C112.729 19.2271 112.751 19.1468 112.751 19.0088V15.1092H114.322L117.068 19.2246C117.086 19.2477 117.109 19.2665 117.136 19.2795C117.162 19.2925 117.191 19.2995 117.221 19.2998H119.105C119.143 19.3003 119.181 19.2896 119.213 19.2691C119.245 19.2486 119.27 19.2191 119.286 19.1844C119.301 19.1496 119.306 19.1112 119.301 19.0735C119.296 19.0359 119.28 19.0004 119.256 18.9711" fill="white"/>
<path d="M67.791 18.9707L64.7672 14.3359L67.4874 10.2933C67.5131 10.2653 67.5298 10.2302 67.5351 10.1926C67.5405 10.155 67.5344 10.1166 67.5175 10.0825C67.503 10.0473 67.4783 10.0173 67.4465 9.99627C67.4147 9.97525 67.3774 9.96422 67.3394 9.96459H65.4925C65.4644 9.96492 65.4368 9.97111 65.4113 9.98278C65.3858 9.99445 65.363 10.0113 65.3444 10.0323L62.9505 13.4877H61.2692V10.2256C61.2692 10.0951 61.2441 10.0148 61.1939 9.97463C61.1161 9.93621 61.0294 9.91973 60.943 9.92695H59.5176C59.4313 9.92094 59.3448 9.93736 59.2667 9.97463C59.214 10.0022 59.1864 10.0825 59.1864 10.2256V19.0084C59.1864 19.1363 59.214 19.2166 59.2667 19.2593C59.3457 19.2934 59.4318 19.3081 59.5176 19.302H60.943C61.0289 19.309 61.1151 19.2943 61.1939 19.2593C61.2441 19.2258 61.2692 19.1422 61.2692 19.0084V15.1088H62.8375L65.5978 19.2242C65.6154 19.2476 65.6381 19.2665 65.6642 19.2796C65.6904 19.2927 65.7192 19.2995 65.7484 19.2995H67.653C67.6904 19.2995 67.727 19.2886 67.7582 19.2681C67.7894 19.2476 67.8139 19.2184 67.8287 19.184C67.844 19.1495 67.8498 19.1115 67.8453 19.0739C67.8409 19.0364 67.8265 19.0008 67.8036 18.9707" fill="white"/>
<path d="M21.7428 27.224H5.73304C4.25705 27.222 2.84201 26.6352 1.79785 25.592C0.753698 24.5487 0.16555 23.1342 0.162231 21.6582L0.162231 5.64844C0.164223 4.17159 0.751785 2.75579 1.79608 1.71149C2.84038 0.667191 4.25618 0.0796284 5.73304 0.0776367L21.7428 0.0776367C23.2197 0.0796284 24.6355 0.667191 25.6798 1.71149C26.7241 2.75579 27.3116 4.17159 27.3136 5.64844V21.6582C27.3103 23.1342 26.7222 24.5487 25.678 25.592C24.6339 26.6352 23.2188 27.222 21.7428 27.224ZM5.73304 0.471608C4.36046 0.472937 3.04449 1.01878 2.07393 1.98934C1.10337 2.95989 0.557532 4.27587 0.556203 5.64844V21.6582C0.558859 23.0299 1.10529 24.3446 2.0757 25.3141C3.04611 26.2836 4.36133 26.8287 5.73304 26.8301H21.7428C23.1135 26.8267 24.427 26.2808 25.3962 25.3116C26.3654 24.3424 26.9113 23.0289 26.9146 21.6582V5.64844C26.9133 4.27674 26.3682 2.96152 25.3987 1.99111C24.4292 1.02069 23.1145 0.474265 21.7428 0.471608H5.73304Z" fill="white"/>
<path d="M12.334 4.03021C12.7343 3.79761 13.1862 3.66825 13.6489 3.65381C13.1697 3.66804 12.702 3.80463 12.2905 4.05059C11.8789 4.29656 11.5371 4.64372 11.2976 5.05906L3.17227 19.1166C2.79958 19.7615 2.69833 20.528 2.8908 21.2475C3.08328 21.9671 3.55371 22.5807 4.1986 22.9534C4.8435 23.3261 5.61004 23.4273 6.32958 23.2349C7.04913 23.0424 7.66274 22.572 8.03543 21.9271L13.7342 12.0702L11.3077 7.85701C11.1231 7.53789 11.0033 7.18554 10.955 6.82009C10.9067 6.45463 10.9309 6.08325 11.0262 5.72715C11.1215 5.37106 11.2861 5.03724 11.5105 4.74478C11.7349 4.45232 12.0147 4.20694 12.334 4.02269" fill="white"/>
<path d="M24.2887 19.1164L16.1709 5.06394C15.9312 4.64876 15.5893 4.30173 15.1778 4.05579C14.7663 3.80985 14.2988 3.67316 13.8196 3.65869C14.3027 3.67548 14.7734 3.81673 15.1859 4.06876C15.5985 4.3208 15.939 4.67509 16.1745 5.09733C16.41 5.51956 16.5324 5.99544 16.53 6.47889C16.5276 6.96234 16.4005 7.43699 16.1608 7.85687L13.7343 12.0701L19.4255 21.9269C19.7982 22.5718 20.4118 23.0422 21.1314 23.2347C21.8509 23.4272 22.6174 23.3259 23.2623 22.9533C23.9072 22.5806 24.3777 21.9669 24.5701 21.2474C24.7626 20.5279 24.6614 19.7613 24.2887 19.1164Z" fill="white"/>
<path d="M15.1344 4.03021C14.7338 3.79829 14.2821 3.66898 13.8195 3.65381H13.6489C13.165 3.67013 12.6935 3.81131 12.2803 4.06362C11.867 4.31593 11.526 4.6708 11.2904 5.09379C11.0548 5.51677 10.9326 5.99349 10.9356 6.47766C10.9386 6.96182 11.0668 7.43699 11.3076 7.85701L13.7342 12.0627L16.1607 7.85701C16.3453 7.53789 16.4651 7.18554 16.5134 6.82009C16.5617 6.45463 16.5375 6.08325 16.4422 5.72715C16.3469 5.37106 16.1823 5.03724 15.9579 4.74478C15.7335 4.45232 15.4537 4.20694 15.1344 4.02269" fill="white"/>
<path d="M16.6249 20.5394C16.6239 21.1109 16.4535 21.6693 16.1352 22.144C15.817 22.6188 15.3652 22.9885 14.8368 23.2065C14.3085 23.4246 13.7274 23.4811 13.167 23.369C12.6066 23.2569 12.092 22.9812 11.6882 22.5767C11.2844 22.1722 11.0096 21.6571 10.8984 21.0965C10.7873 20.5359 10.8448 19.9549 11.0638 19.4269C11.2827 18.899 11.6533 18.4478 12.1285 18.1304C12.6038 17.813 13.1625 17.6436 13.7341 17.6436C14.1142 17.6432 14.4907 17.7179 14.8419 17.8634C15.1931 18.0089 15.5121 18.2223 15.7807 18.4913C16.0492 18.7603 16.2621 19.0797 16.4069 19.4312C16.5518 19.7826 16.6258 20.1592 16.6249 20.5394Z" fill="white"/>
</g>
<defs>
<clipPath id="clip0">
<rect width="119.157" height="27.1464" fill="white" transform="translate(0.157471 0.0776367)"/>
</clipPath>
</defs>
</svg>
