<svg width="12" height="12" viewBox="0 0 12 12" fill="none" xmlns="http://www.w3.org/2000/svg">
<path d="M4.23913 6.29793C4.23913 6.15535 4.12347 6.03983 3.98078 6.03983H3.07923C2.9367 6.03983 2.82102 6.15535 2.82102 6.29793V7.19936C2.82102 7.34212 2.9367 7.45768 3.07923 7.45768H3.98078C4.12347 7.45768 4.23913 7.34212 4.23913 7.19936V6.29793Z" fill="black"/>
<path d="M6.49218 6.29793C6.49218 6.15535 6.37651 6.03983 6.23409 6.03983H5.33244C5.1899 6.03983 5.07423 6.15535 5.07423 6.29793V7.19936C5.07423 7.34212 5.1899 7.45768 5.33244 7.45768H6.23409C6.37651 7.45768 6.49218 7.34212 6.49218 7.19936V6.29793Z" fill="black"/>
<path d="M8.74541 6.29793C8.74541 6.15535 8.62973 6.03983 8.4872 6.03983H7.58565C7.44296 6.03983 7.3273 6.15535 7.3273 6.29793V7.19936C7.3273 7.34212 7.44296 7.45768 7.58565 7.45768H8.4872C8.62973 7.45768 8.74541 7.34212 8.74541 7.19936V6.29793Z" fill="black"/>
<path d="M4.23913 8.55119C4.23913 8.40837 4.12347 8.29295 3.98078 8.29295H3.07923C2.9367 8.29295 2.82102 8.40837 2.82102 8.55119V9.45245C2.82102 9.59513 2.9367 9.71066 3.07923 9.71066H3.98078C4.12347 9.71066 4.23913 9.5951 4.23913 9.45245V8.55119Z" fill="black"/>
<path d="M6.49218 8.55119C6.49218 8.40837 6.37651 8.29295 6.23409 8.29295H5.33244C5.1899 8.29295 5.07423 8.40837 5.07423 8.55119V9.45245C5.07423 9.59513 5.1899 9.71066 5.33244 9.71066H6.23409C6.37651 9.71066 6.49218 9.5951 6.49218 9.45245V8.55119Z" fill="black"/>
<path d="M8.74541 8.55119C8.74541 8.40837 8.62973 8.29295 8.48731 8.29295H7.58565C7.44296 8.29295 7.3273 8.40837 7.3273 8.55119V9.45245C7.3273 9.59513 7.44296 9.71066 7.58565 9.71066H8.48731C8.62973 9.71066 8.74541 9.5951 8.74541 9.45245V8.55119Z" fill="black"/>
<path d="M10.3575 1.28584V2.66269C10.3575 3.28502 9.85261 3.78652 9.23037 3.78652H8.51938C7.8971 3.78652 7.38555 3.28502 7.38555 2.66269V1.2809H4.18089V2.66269C4.18089 3.28502 3.66937 3.78652 3.04718 3.78652H2.33605C1.71384 3.78652 1.20901 3.28502 1.20901 2.66269V1.28584C0.665189 1.30223 0.218323 1.75222 0.218323 2.30532V10.3743C0.218323 10.9378 0.675052 11.4006 1.23855 11.4006H10.3279C10.8906 11.4006 11.3481 10.9369 11.3481 10.3743V2.30532C11.3481 1.75222 10.9013 1.30223 10.3575 1.28584ZM10.0272 9.87187C10.0272 10.1154 9.82978 10.313 9.58616 10.313H1.96086C1.71724 10.313 1.5198 10.1154 1.5198 9.87187V5.70393C1.5198 5.46031 1.71722 5.26275 1.96086 5.26275H9.58614C9.82976 5.26275 10.0272 5.46031 10.0272 5.70393L10.0272 9.87187Z" fill="black"/>
<path d="M2.33357 3.04833H3.03685C3.25031 3.04833 3.42339 2.87551 3.42339 2.66204V0.404862C3.42339 0.191373 3.25031 0.0184326 3.03685 0.0184326H2.33357C2.12008 0.0184326 1.94702 0.191373 1.94702 0.404862V2.66204C1.94702 2.87551 2.12008 3.04833 2.33357 3.04833Z" fill="black"/>
<path d="M8.51033 3.04833H9.21361C9.42694 3.04833 9.60002 2.87551 9.60002 2.66204V0.404862C9.60004 0.191373 9.42696 0.0184326 9.21361 0.0184326H8.51033C8.29689 0.0184326 8.12381 0.191373 8.12381 0.404862V2.66204C8.12381 2.87551 8.29689 3.04833 8.51033 3.04833Z" fill="black"/>
</svg>
