<svg width="16" height="10" viewBox="0 0 16 10" fill="none" xmlns="http://www.w3.org/2000/svg">
<path d="M8.00798 0.152588C5.15371 0.152588 2.56532 1.71418 0.655343 4.25063C0.499489 4.45843 0.499489 4.74875 0.655343 4.95655C2.56532 7.49606 5.15371 9.05765 8.00798 9.05765C10.8622 9.05765 13.4506 7.49606 15.3606 4.95961C15.5165 4.7518 15.5165 4.46149 15.3606 4.25368C13.4506 1.71418 10.8622 0.152588 8.00798 0.152588ZM8.21273 7.74053C6.31803 7.85971 4.75338 6.29812 4.87256 4.40037C4.97036 2.83572 6.23858 1.5675 7.80323 1.46971C9.69792 1.35052 11.2626 2.91212 11.1434 4.80987C11.0425 6.37146 9.77432 7.63969 8.21273 7.74053ZM8.11799 6.29201C7.0973 6.35618 6.25386 5.5158 6.32109 4.49511C6.37304 3.65166 7.05757 2.97018 7.90102 2.91517C8.92171 2.851 9.76515 3.69139 9.69792 4.71208C9.64291 5.55858 8.95838 6.24006 8.11799 6.29201Z" fill="white"/>
</svg>
