<svg width="16" height="10" viewBox="0 0 16 10" fill="none" xmlns="http://www.w3.org/2000/svg">
<path d="M8.184 0.152954C5.32974 0.152954 2.74134 1.71455 0.831368 4.25099C0.675514 4.4588 0.675514 4.74912 0.831368 4.95692C2.74134 7.49642 5.32974 9.05802 8.184 9.05802C11.0383 9.05802 13.6267 7.49642 15.5366 4.95998C15.6925 4.75217 15.6925 4.46186 15.5366 4.25405C13.6267 1.71455 11.0383 0.152954 8.184 0.152954ZM8.38875 7.7409C6.49406 7.86008 4.92941 6.29849 5.04859 4.40074C5.14638 2.83609 6.4146 1.56786 7.97925 1.47007C9.87395 1.35089 11.4386 2.91248 11.3194 4.81023C11.2186 6.37183 9.95035 7.64005 8.38875 7.7409ZM8.29402 6.29237C7.27333 6.35655 6.42988 5.51616 6.49711 4.49547C6.54907 3.65203 7.2336 2.97055 8.07704 2.91554C9.09773 2.85137 9.94118 3.69175 9.87395 4.71244C9.81894 5.55895 9.13441 6.24042 8.29402 6.29237Z" fill="black"/>
</svg>
