<svg width="21" height="20" fill="none" xmlns="http://www.w3.org/2000/svg"><path d="M7.382 19.703c.828 0 1.499-.664 1.499-1.483 0-.819-.671-1.483-1.5-1.483a1.49 1.49 0 00-1.498 1.483c0 .82.67 1.483 1.499 1.483zm9.108 0a1.49 1.49 0 001.498-1.483 1.49 1.49 0 00-1.499-1.483c-.828 0-1.499.664-1.499 1.483 0 .82.671 1.483 1.5 1.483zm4.05-17.564a.665.665 0 00-.513-.244h-1.96a.66.66 0 100 1.318h1.087l-1.779 6.933H7.382L4.337 1.585a.658.658 0 00-.44-.429L1.165.326a.676.676 0 00-.51.048.656.656 0 00-.278.895.668.668 0 00.395.322l2.392.726 3.058 8.58-1.092.883-.087.086A1.743 1.743 0 004.99 14.1a1.83 1.83 0 001.506.659h11.12a.67.67 0 00.47-.193.656.656 0 000-.933.67.67 0 00-.47-.193H6.388a.45.45 0 01-.374-.225.438.438 0 010-.434l1.606-1.318h10.287a.671.671 0 00.426-.14.658.658 0 00.24-.374l2.113-8.251a.652.652 0 00-.147-.56z" fill="#2A5275"/><path fill-rule="evenodd" clip-rule="evenodd" d="M20.027 1.895a.672.672 0 01.513.244.657.657 0 01.147.56l-2.112 8.25a.658.658 0 01-.24.376.671.671 0 01-.427.139H7.621l-1.605 1.318a.438.438 0 00.156.595.45.45 0 00.217.064h11.226a.67.67 0 01.471.193.655.655 0 010 .933.67.67 0 01-.47.193H6.495a1.849 1.849 0 01-1.506-.66 1.741 1.741 0 01.053-2.234l.087-.086 1.092-.883-3.058-8.58L.772 1.59a.668.668 0 01-.394-.322.656.656 0 01.278-.895.674.674 0 01.51-.048l2.731.83a.668.668 0 01.44.429l3.045 8.56h9.993l1.78-6.932h-1.089a.66.66 0 010-1.318h1.961zM18.78 3.51h-.717a.956.956 0 110-1.912h1.966a.975.975 0 01.951 1.16v.006l-2.113 8.25M18.78 3.51l-1.645 6.339H7.601L4.623 1.495v-.001a.954.954 0 00-.638-.621L1.254.043a.979.979 0 00-.739.069.95.95 0 00-.403 1.296.974.974 0 00.572.467l2.242.68 2.95 8.24-.948.765-.104.104-.007.008a2.038 2.038 0 00-.063 2.612l.004.005a2.13 2.13 0 001.745.767h11.112c.257 0 .502-.1.683-.28a.95.95 0 000-1.351.972.972 0 00-.683-.28H6.395a.148.148 0 01-.119-.074.144.144 0 01-.014-.105L7.73 11.76h10.175a.973.973 0 00.614-.201.955.955 0 00.348-.544M9.181 18.22A1.79 1.79 0 017.38 20a1.79 1.79 0 01-1.798-1.78c0-.983.805-1.78 1.799-1.78a1.79 1.79 0 011.799 1.78zm9.107 0A1.79 1.79 0 0116.49 20a1.79 1.79 0 01-1.799-1.78c0-.983.806-1.78 1.8-1.78a1.79 1.79 0 011.798 1.78zM7.382 19.703c.828 0 1.499-.664 1.499-1.483 0-.819-.671-1.483-1.5-1.483a1.49 1.49 0 00-1.498 1.483c0 .82.67 1.483 1.499 1.483zm9.107 0c.828 0 1.5-.664 1.5-1.483 0-.819-.672-1.483-1.5-1.483s-1.499.664-1.499 1.483c0 .82.671 1.483 1.5 1.483z" fill="#2A5275"/></svg>