<svg width="184" height="60" fill="none" xmlns="http://www.w3.org/2000/svg"><path fill-rule="evenodd" clip-rule="evenodd" d="M165.443 31.223h6.147l5.755 11.534h-4.189l-1.096-1.941h-7.126l-1.096 1.941h-4.189l5.794-11.534zm-30.027 2.719v8.815h3.602V31.223h-5.872l-6.147 8.544a1.16 1.16 0 01-.156.31v-8.853h-3.602v11.533h5.872l6.147-8.543c.078-.078.117-.194.156-.272zm33.394-.117h-.548l-1.957 4h4.423l-1.918-4zm-25.76-2.602h3.602v4.04h1.879l4.072-4.04h4.932l-5.833 5.515 6.577 6.058h-5.207l-4.541-4.505h-1.879v4.505h-3.602V31.223zm-38.053 0h3.602v4.04h7.752v-4.04h3.601v11.534h-3.601v-4.505h-7.752v4.505h-3.602V31.223zm-18.126-.038l5.325 5.67-5.325 5.902h4.816l3.523-3.883 3.524 3.883h4.815l-5.324-5.902 5.324-5.67h-4.972l-3.367 3.728-3.367-3.728h-4.972zM72.386 42.757V31.185h12.567v2.796h-8.965v1.63h8.574v2.797h-8.574V40h8.965v2.796H72.386v-.039zm-16.011-8.582v-2.99h13.858v2.99h-5.128v8.582h-3.602v-8.582h-5.129z" fill="#2A5275"/><path fill-rule="evenodd" clip-rule="evenodd" d="M156.674 14.058V9.554h20.71v4.466h-7.673v12.815h-5.364V14.02h-7.673v.04zM78.259 9.631v17.282h5.363V14.796l7.047 12.117h4.385l6.577-12.117v12.117h4.697l2.075-7.457-1.8-.038 2.074-9.787H97.872l-4.58 9.67h-.822l-4.58-9.67h-9.631zm-11.667 13.36c2.584 0 4.072-.04 4.463-.117.392-.078.627-.388.627-.932 0-.66-.274-1.087-.862-1.243-.587-.155-1.996-.272-4.228-.272-4.463 0-7.281-.31-8.456-.97-1.174-.66-1.762-2.253-1.762-4.777 0-2.37.744-3.845 2.271-4.505 1.175-.505 3.758-.738 7.79-.738 3.602 0 5.873.078 6.813.272 1.8.35 2.897 1.63 3.249 3.883H66.436c-2.428 0-3.798.04-4.19.117-.39.078-.547.427-.547.97 0 .583.313.972.94 1.166.626.194 1.918.272 3.914.272 4.424 0 7.243.35 8.535 1.048 1.292.7 1.918 2.291 1.918 4.777 0 2.291-.705 3.767-2.153 4.427-1.253.544-3.993.816-8.339.816-3.328 0-5.48-.078-6.46-.233-1.526-.233-2.583-.738-3.132-1.593-.352-.543-.587-1.32-.743-2.369h10.413zm48.976-13.36h9.395l8.613 17.243h-6.264l-1.644-2.913h-10.609l-1.645 2.913h-6.263l.039-.078 7.125-9.825-3.249-.194 4.502-7.146zm5.167 3.884h-.822l-2.897 5.98h6.616l-2.897-5.98zm13.546-3.961h15.581c1.918 0 3.289.349 4.072 1.048.861.738 1.292 2.097 1.292 4 0 1.476-.196 2.602-.549 3.301-.352.7-.978 1.243-1.879 1.592.979.427 1.605.855 1.919 1.243.313.427.469 1.165.469 2.252v3.884h-5.363v-3.107c0-.466-.118-.815-.352-1.126-.314-.388-.783-.621-1.371-.621h-8.456v4.815h-5.363V9.554zm5.324 4.504v3.534h8.613c.587 0 1.018-.116 1.253-.388.234-.233.391-.699.391-1.36 0-.66-.117-1.125-.391-1.397s-.666-.389-1.253-.389h-8.613zM10.14 13.36l6.811-3.884 9.24-5.282 9.239 5.282 9.239 5.281v6.136l-5.363-3.068-13.115-7.534-10.688 6.136-5.363-3.068zm-2.428 4.155v6.291l18.792 10.757 5.246-3.3L7.712 17.514z" fill="#4878A6"/><path fill-rule="evenodd" clip-rule="evenodd" d="M42.242 37.282l-6.812 3.883-9.24 5.282-9.239-5.282-9.239-5.281v-6.136l5.364 3.068L26.19 40.31l10.687-6.136 5.364 3.107zm-11.55-18.486l-4.384-2.524-5.168 2.951 3.289 1.903L43.22 31.884l1.488.854v-5.942l-1.488-.854-12.527-7.146z" fill="#2A5275"/><path fill-rule="evenodd" clip-rule="evenodd" d="M12.684 51.03l-.352.892a3.455 3.455 0 00-1.644-.427c-.588 0-1.057.156-1.37.427-.353.272-.51.66-.51 1.127 0 .505.196.893.549 1.203.391.311.86.467 1.487.467.705 0 1.292-.195 1.84-.544v1.048a4.305 4.305 0 01-1.879.428c-.9 0-1.644-.233-2.192-.7a2.356 2.356 0 01-.861-1.864c0-.737.274-1.32.822-1.786.548-.466 1.252-.699 2.153-.699.626 0 1.292.155 1.957.427zm1.37.465h3.641v.855h-2.662v.699H17.5l-.353.854h-2.114v.738h2.858v.854h-3.876v-4h.04zm4.66 0h4.227v.894h-1.605v3.106h-1.018V52.39h-1.605v-.894zm5.245 0h1.018v3.146h1.566a.839.839 0 00.47-.117c.117-.077.156-.194.156-.35 0-.154-.039-.271-.156-.349a.847.847 0 00-.47-.116h-1.292l.352-.855h.94c.509 0 .9.117 1.175.35.273.233.43.544.43.97 0 .428-.157.739-.43.972-.275.233-.666.35-1.175.35h-2.584v-4zm8.104 0h1.174l1.527 2.33 1.488-2.33h1.174v4.04h-1.018V52.97L35 55.107h-.587l-1.41-2.097v2.563h-.978v-4.078h.039zm7.438 4.04h-1.057l2.036-4h1.175l2.035 4h-1.096l-.391-.739h-2.35l-.352.738zm1.527-3.185l-.822 1.63h1.644l-.822-1.63zm3.68-.855h3.21v.855h-2.192v3.145h-1.018v-4zm4.306 4.04h-1.056l2.035-4h1.175l2.035 4h-1.096l-.391-.739h-2.35l-.352.738zm1.527-3.185l-.822 1.63h1.644l-.822-1.63zm3.485-.583a5.71 5.71 0 012.035-.388c.627 0 1.096.116 1.41.31a.933.933 0 01.509.855.893.893 0 01-.548.854v.039c.43.194.665.505.665.97 0 .39-.196.7-.548.933-.352.233-.9.31-1.566.31-.587 0-1.174-.116-1.8-.31v-1.01c.234.117.508.233.86.31.314.079.666.117.98.117.312 0 .547-.038.743-.116.196-.078.274-.194.274-.35 0-.271-.313-.388-.94-.388h-1.526l.352-.854H56.1c.588 0 .9-.117.9-.389 0-.271-.312-.427-.939-.427-.587 0-1.135.117-1.683.35l-.352-.816zm5.363-.272h1.018v2.68l2.388-2.68h1.018v4.04h-1.018v-2.68l-2.388 2.68h-1.018v-4.04zm6.068 0h1.018v1.515h2.388v-1.515h1.018v4.04h-1.018v-1.632h-2.388v1.631h-1.018v-4.039zm8.378-.077c.783 0 1.448.194 1.918.582.47.389.744.893.744 1.515 0 .621-.235 1.165-.744 1.553-.47.388-1.135.583-1.918.583-.783 0-1.449-.195-1.918-.583-.47-.388-.705-.893-.705-1.553 0-.622.235-1.127.705-1.515.508-.388 1.135-.582 1.918-.582zm-1.175 1.165c-.313.233-.43.543-.43.932 0 .388.156.699.43.932.314.233.705.35 1.175.35.47 0 .861-.117 1.174-.35.314-.233.47-.544.47-.932 0-.389-.156-.66-.47-.894-.313-.233-.704-.349-1.174-.349-.47-.039-.861.078-1.175.31zm5.207-1.088h2.74c.51 0 .862.078 1.136.272.274.155.392.427.392.738 0 .35-.157.66-.431.854v.04c.391.232.587.543.587.97 0 .388-.117.66-.43.854-.275.195-.666.311-1.175.311h-2.819v-4.039zm1.018.894v2.29h1.84a.707.707 0 00.43-.116c.118-.078.157-.155.157-.272 0-.116-.039-.233-.156-.271a.708.708 0 00-.43-.117h-1.567l.352-.854h1.214c.157 0 .235-.04.353-.078.078-.078.117-.155.117-.233 0-.117-.04-.194-.117-.233a.786.786 0 00-.353-.078h-1.84v-.038zm7.282-.894h2.74c.51 0 .862.078 1.136.272.274.155.391.427.391.738 0 .35-.156.66-.43.854v.04c.39.232.587.543.587.97 0 .388-.118.66-.431.854-.274.195-.665.311-1.174.311h-2.82v-4.039zm1.018.894v2.29h1.84a.707.707 0 00.43-.116c.118-.078.157-.155.157-.272 0-.116-.04-.233-.157-.271a.708.708 0 00-.43-.117h-1.566l.352-.854h1.214c.156 0 .235-.04.352-.078.078-.078.118-.155.118-.233 0-.117-.04-.194-.118-.233a.786.786 0 00-.352-.078h-1.84v-.038zm12.058-1.36l-.353.893a3.455 3.455 0 00-1.644-.427c-.587 0-1.057.156-1.37.427-.353.272-.51.66-.51 1.127 0 .505.197.893.549 1.203.391.311.861.467 1.488.467.704 0 1.291-.195 1.84-.544v1.048a4.305 4.305 0 01-1.88.428c-.9 0-1.644-.233-2.192-.7a2.356 2.356 0 01-.861-1.864c0-.737.274-1.32.822-1.786.548-.466 1.253-.699 2.153-.699.627 0 1.292.155 1.958.427zm1.8 4.505h-1.057l2.036-4h1.175l2.035 4h-1.096l-.391-.738h-2.349l-.353.738zm1.527-3.184l-.822 1.63h1.644l-.822-1.63zm3.68-.855h1.018v1.515h2.388v-1.515h1.018v4.04h-1.057v-1.632h-2.349v1.631h-1.018v-4.039zm9.044 0h1.174l-1.722 1.826 1.918 2.174h-1.292l-1.84-2.136 1.762-1.864zm-3.015 0h1.018v4.04h-1.018v-4.04zm4.815 0h4.229v.894h-1.606v3.106H118.7V52.39h-1.606v-.894zm4.503 2.214v-.777h2.583v.777h-2.583zm3.993-2.99h4.893v4.815h-1.057v-3.883h-2.818v3.883h-1.057V50.72h.039zm6.694.776h3.641v.855h-2.662v.699h2.466l-.352.854h-2.114v.738h2.858v.854h-3.876v-4h.039zm4.659 0h4.228v.894h-1.605v3.106h-1.018V52.39h-1.605v-.894zm5.246 0h3.641v.855h-2.662v.699h2.466l-.352.854h-2.114v.738h2.858v.854h-3.876v-4h.039zm5.285 0h2.584c.509 0 .9.117 1.174.35.274.233.431.582.431.97 0 .428-.157.739-.431.971-.274.233-.665.35-1.174.35h-1.292l.391-.854h1.018c.157 0 .274-.04.353-.117.078-.078.117-.194.117-.35 0-.155-.039-.271-.156-.349-.079-.078-.235-.116-.392-.116h-1.605v3.145h-1.018v-4zm5.481 0h3.876v.855h-2.858v2.29h1.84c.391 0 .626-.116.626-.388a.352.352 0 00-.156-.31.841.841 0 00-.47-.117h-1.566l.352-.854h1.175c.509 0 .9.117 1.174.35.274.233.431.543.431.931 0 .389-.157.7-.431.933-.274.233-.665.35-1.174.35h-2.819v-4.04zm7.595 4.04h-1.057l.861-1.515-.509.077-1.722-2.563h1.135l1.331 2.02 1.135-2.02h1.096l-2.27 4zm3.249-4.04h2.584c.509 0 .9.117 1.174.35.275.233.431.582.431.97 0 .428-.156.739-.431.971-.274.233-.665.35-1.174.35h-1.292l.392-.854h1.017c.157 0 .274-.04.353-.117.078-.078.117-.194.117-.35 0-.155-.039-.271-.156-.349-.079-.078-.235-.116-.392-.116h-1.605v3.145h-1.018v-4zm5.481 0h3.21v.855h-2.192v3.145h-1.018v-4zm4.228 0h3.641v.855h-2.662v.699h2.466l-.352.854h-2.114v.738h2.858v.854h-3.876v-4h.039z" fill="#4878A6"/></svg>