<svg width="24" height="24" fill="none" xmlns="http://www.w3.org/2000/svg"><path d="M1 13a1 1 0 100-2 1 1 0 000 2zm21.724-2H6.276C5.57 11 5 11.42 5 11.94v.12c0 .52.571.94 1.276.94h16.448c.705 0 1.276-.42 1.276-.94v-.12c0-.52-.571-.94-1.276-.94zm.023 6H1.253C.561 17 0 17.42 0 17.94v.12c0 .52.561.94 1.253.94h21.494c.692 0 1.253-.42 1.253-.94v-.12c0-.52-.561-.94-1.253-.94zm0-12H1.253C.561 5 0 5.42 0 5.94v.12C0 6.58.561 7 1.253 7h21.494C23.439 7 24 6.58 24 6.06v-.12c0-.52-.561-.94-1.253-.94z" fill="#fff"/></svg>