<svg width="24" height="24" fill="none" xmlns="http://www.w3.org/2000/svg"><path d="M12.59 1.41h0a.832.832 0 00-1.173 0h0l-10 10h0l-.009.01a.832.832 0 001.173 1.172h0l.009-.009L12 3.173l9.41 9.417h0l.01.009a.831.831 0 001.172-1.173h0l-.009-.01L12.59 1.41z" fill="#BFCBD6" stroke="#BFCBD6" stroke-width=".33"/><path d="M18.502 21.168h-2.169a.835.835 0 01-.835-.835v-4.666c0-.644-.521-1.165-1.165-1.165H9.667c-.644 0-1.165.521-1.165 1.164v4.667a.835.835 0 01-.835.835H5.498V13.61a.832.832 0 00-1.663 0v7.724a1.498 1.498 0 001.498 1.498H9c.643 0 1.165-.521 1.165-1.165V17c0-.461.374-.835.835-.835h2c.461 0 .835.374.835.835v4.666c0 .644.522 1.165 1.165 1.165h3.667a1.498 1.498 0 001.498-1.498V13.45a.832.832 0 10-1.663 0v7.72z" fill="#BFCBD6" stroke="#BFCBD6" stroke-width=".33"/></svg>