<svg width="17" height="17" fill="none" xmlns="http://www.w3.org/2000/svg"><path d="M14.58 0H2.42C1.045 0 0 1.046 0 2.42v12.16C0 15.955 1.046 17 2.42 17h12.16c1.374 0 2.42-1.046 2.42-2.42V2.42C17 1.045 15.954 0 14.58 0zM8.5 13.6c2.812 0 5.1-2.223 5.1-4.904 0-.458-.065-.98-.196-1.373h1.438v6.93a.655.655 0 01-.654.655H2.813a.655.655 0 01-.654-.654V7.258h1.504a4.964 4.964 0 00-.197 1.373C3.4 11.377 5.688 13.6 8.5 13.6zm0-1.961c-1.83 0-3.27-1.439-3.27-3.204 0-1.766 1.44-3.204 3.27-3.204s3.27 1.438 3.27 3.204c0 1.83-1.44 3.204-3.27 3.204zm6.277-6.997c0 .393-.327.72-.72.72h-1.83a.726.726 0 01-.72-.72V2.877c0-.392.328-.72.72-.72h1.83c.393 0 .72.328.72.72v1.765z" fill="#4878A6"/></svg>