<svg width="21" height="13" fill="none" xmlns="http://www.w3.org/2000/svg"><path d="M20.806 11.115c0-.083-.083-.083-.083-.166-.332-.664-1.08-1.494-2.075-2.407-.498-.416-.748-.748-.914-.914-.249-.332-.249-.58-.166-.913.083-.249.415-.664.997-1.411.332-.415.498-.665.747-.914 1.245-1.66 1.826-2.74 1.66-3.237l-.083-.084c-.083-.083-.166-.166-.332-.166-.166-.083-.415-.083-.664 0h-3.736l-.083.083c-.083.083-.083.083-.083.167-.332.913-.747 1.66-1.162 2.49-.25.415-.498.83-.748 1.163-.249.332-.415.58-.58.747-.167.166-.333.249-.416.415-.083.083-.249.166-.249.083-.083 0-.166 0-.166-.083l-.25-.25c-.082-.082-.082-.248-.165-.414V1.153c0-.084-.083-.25-.083-.333l-.25-.249c-.082-.083-.248-.083-.331-.166A7.446 7.446 0 0010.096.24c-1.328 0-2.241.083-2.573.25-.166.082-.332.165-.416.331-.166.166-.166.25-.083.25.416.083.748.249.914.498l.083.166c.083.083.083.249.166.498s.083.498.083.83V4.39c0 .416-.083.665-.083.914s-.083.415-.166.498c-.083.166-.083.249-.166.249 0 0 0 .083-.083.083s-.166.083-.332.083c-.083 0-.25-.083-.333-.166a1 1 0 01-.415-.415c-.166-.166-.332-.415-.498-.747-.166-.333-.415-.665-.58-1.163l-.167-.332c-.083-.166-.25-.498-.415-.913-.166-.415-.332-.747-.498-1.162a1.146 1.146 0 00-.25-.333h-.082S4.119.903 4.036.903 3.87.82 3.786.82H.799C.466.82.3.903.217.986l-.083.083v.167c0 .083 0 .166.083.332.415.996.913 1.992 1.411 2.988.498.914.996 1.744 1.328 2.325.415.581.748 1.162 1.163 1.66.415.499.664.83.747.997l.332.332.249.249c.166.166.415.415.747.664.332.25.747.498 1.163.747.415.25.913.415 1.41.582.582.166 1.08.249 1.578.166h1.246a.747.747 0 00.58-.25l.084-.083c0-.082.083-.082.083-.166v-.332c0-.332 0-.58.083-.83.083-.249.083-.415.166-.581.083-.166.166-.25.25-.332l.165-.166h.083c.166-.083.415 0 .581.166.25.166.498.415.665.664.165.25.415.498.747.83.332.332.58.581.747.665l.249.165c.166.083.332.167.581.25.25.083.415.083.581.083l2.823-.083c.25 0 .498-.083.664-.167.166-.083.25-.166.25-.332v-.332c-.167-.166-.167-.249-.167-.332z" fill="#4878A6"/></svg>