<?xml version="1.0" ?><svg style="enable-background:new 0 0 24 24;" version="1.1" viewBox="0 0 24 24" xml:space="preserve" xmlns="http://www.w3.org/2000/svg" xmlns:xlink="http://www.w3.org/1999/xlink"><style type="text/css">
	.st0{display:none;}
</style><g class="st0" id="grid"/><g id="icon"><path d="M5.528,10.33c-0.21,0.18-0.235,0.495-0.057,0.705l7.082,8.314c0.096,0.111,0.234,0.176,0.381,0.176c0.005,0,0.01,0,0.016,0   c0.151-0.005,0.293-0.078,0.384-0.199L23.899,5.275c0.166-0.221,0.122-0.534-0.099-0.7c-0.222-0.166-0.535-0.124-0.7,0.099   L12.91,18.226l-6.677-7.839C6.053,10.176,5.736,10.151,5.528,10.33z"/><path d="M12.028,13.945l6.519-8.67c0.166-0.221,0.122-0.534-0.099-0.7c-0.222-0.167-0.535-0.12-0.7,0.099l-6.519,8.67   c-0.166,0.221-0.122,0.534,0.099,0.7c0.091,0.068,0.196,0.101,0.301,0.101C11.78,14.145,11.931,14.075,12.028,13.945z"/><path d="M0.176,10.33c-0.21,0.18-0.235,0.495-0.057,0.705l7.082,8.314c0.096,0.111,0.234,0.176,0.381,0.176c0.005,0,0.01,0,0.016,0   c0.151-0.005,0.293-0.078,0.384-0.199l0.967-1.285c0.166-0.221,0.122-0.534-0.099-0.7c-0.219-0.166-0.535-0.123-0.7,0.099   l-0.592,0.786l-6.677-7.839C0.7,10.176,0.385,10.151,0.176,10.33z"/></g></svg>