<svg width="320" height="74" viewBox="0 0 320 74" fill="none" xmlns="http://www.w3.org/2000/svg">
<path d="M55.2705 42.7043L56.1072 31.7021L46.5942 27.5187L55.2705 42.7043ZM27.3424 27.4434L17.7542 31.7021L18.5072 42.9553L27.3424 27.4434ZM28.0536 60.0736L36.8135 66.2817L45.5819 60.0736H28.0536ZM36.8135 23.26L46.6361 27.5605L36.9641 10.5426L27.3424 27.4434L36.8135 23.26ZM54.3836 53.8404L45.5819 60.0736H65.16L55.2705 42.7043L54.3836 53.8404ZM19.2434 53.8404L18.5072 42.9637L8.76831 60.0736H28.0118L19.2434 53.8404ZM36.8135 0.979492C36.8135 0.979492 0.987272 22.4317 0 64.7004C10.7847 73.7699 33.6509 74.046 36.8135 73.9958C39.9762 73.9456 62.8424 73.7532 73.6271 64.7004C72.6314 22.4317 36.8135 0.979492 36.8135 0.979492ZM54.5008 71.4021L36.8135 66.2817L19.1179 71.4021L8.76831 60.0736L3.94072 45.1557L17.7542 31.7021L21.469 14.4499L36.9641 10.5426L52.1497 14.4499L56.149 31.7021L69.6863 45.1557L65.1516 60.0736L54.5008 71.4021Z" fill="#FFC700"/>
<path d="M102.775 24.338H105.204C106.505 24.3682 107.806 24.2782 109.09 24.0692C109.785 23.9101 110.441 23.6156 111.018 23.2032C111.658 22.7295 112.178 22.1161 112.536 21.4113C112.967 20.5381 113.176 19.5745 113.143 18.6041C113.203 17.336 112.829 16.0846 112.081 15.0503C111.423 14.1751 110.48 13.548 109.409 13.2734C107.962 13.0658 106.497 13.0008 105.037 13.0793H99.0404V31.2664H102.775V24.338ZM102.775 16.0806H104.581C105.479 16.0595 106.377 16.0995 107.268 16.2001C107.854 16.2872 108.391 16.5723 108.786 17.0064C109.188 17.4603 109.4 18.0474 109.378 18.6489C109.406 19.1789 109.257 19.7033 108.953 20.1421C108.668 20.5498 108.259 20.8582 107.784 21.0231C106.825 21.2756 105.831 21.3764 104.839 21.3217H102.775V16.0806ZM113.31 44.2219H100.528V46.1481C100.537 48.7318 100.4 51.3141 100.118 53.8829C99.9253 55.7607 99.4121 57.5931 98.6001 59.3032H97.082V66.3212H100.194V62.3493H111.838V66.3212H114.874V59.3032H113.31V44.2219ZM109.591 59.3032H102.562C103.574 56.7647 104.08 52.7331 104.08 47.2083H109.591V59.3032ZM174.975 31.5053C176.177 31.5589 177.377 31.3647 178.499 30.9353C179.62 30.5059 180.638 29.8507 181.487 29.0117C183.066 27.0417 183.924 24.6065 183.924 22.0982C183.924 19.59 183.066 17.1547 181.487 15.1847C180.631 14.3464 179.608 13.692 178.482 13.2627C177.355 12.8335 176.151 12.6389 174.944 12.6911C173.578 12.6654 172.221 12.9091 170.952 13.4078C170.054 13.7928 169.243 14.3514 168.568 15.0503C167.84 15.7779 167.248 16.6274 166.823 17.5589C166.215 19.0375 165.926 20.6237 165.972 22.2177C165.905 23.4561 166.088 24.6954 166.51 25.8641C166.932 27.0328 167.585 28.1076 168.432 29.0266C169.287 29.8645 170.311 30.5177 171.438 30.9444C172.564 31.3712 173.769 31.5623 174.975 31.5053ZM171.24 17.3946C171.72 16.9028 172.297 16.5115 172.935 16.2442C173.572 15.9768 174.259 15.839 174.952 15.839C175.645 15.839 176.331 15.9768 176.969 16.2442C177.607 16.5115 178.183 16.9028 178.664 17.3946C179.693 18.733 180.189 20.3951 180.06 22.0683C180.193 23.7697 179.685 25.4596 178.633 26.8167C178.167 27.3183 177.599 27.7188 176.967 27.9928C176.334 28.2669 175.651 28.4084 174.959 28.4084C174.268 28.4084 173.585 28.2669 172.952 27.9928C172.32 27.7188 171.752 27.3183 171.286 26.8167C170.35 25.4261 169.851 23.7955 169.851 22.1281C169.851 20.4606 170.35 18.83 171.286 17.4394L171.24 17.3946ZM301.279 13.0793H297.544V31.2664H301.279V13.0793ZM254.962 30.7289C255.857 30.3686 256.623 29.7554 257.163 28.9669C257.817 28.0388 258.152 26.9298 258.12 25.8013C258.14 25.0854 258.017 24.3725 257.756 23.7037C257.496 23.0349 257.103 22.4233 256.602 21.9041C255.906 21.3058 255.093 20.853 254.214 20.5732C253.334 20.2934 252.406 20.1924 251.486 20.2765H246.476V13.0793H242.681V31.2664H251.425C252.627 31.2931 253.824 31.1111 254.962 30.7289ZM246.415 28.1457V23.3226H250.226C251.297 23.2425 252.371 23.4434 253.338 23.905C253.643 24.1039 253.889 24.3785 254.052 24.701C254.214 25.0234 254.288 25.3824 254.264 25.7416C254.29 26.2909 254.094 26.8279 253.717 27.2348C253.408 27.612 252.981 27.8794 252.503 27.9963C251.698 28.1454 250.878 28.2055 250.059 28.1755L246.415 28.1457ZM264.936 23.233H272.253V31.1918H275.988V13.0793H272.253V20.2317H264.936V13.0793H261.202V31.2664H264.936V23.233ZM312.649 12.0789C313.652 12.1238 314.633 11.7808 315.382 11.1232C316.118 10.4232 316.553 9.47171 316.596 8.46533H314.866C314.842 8.97864 314.613 9.4619 314.228 9.8092C313.789 10.1245 313.253 10.2826 312.71 10.2572C312.167 10.2802 311.632 10.1223 311.192 9.8092C310.818 9.45569 310.595 8.97497 310.57 8.46533H308.839C308.883 9.46856 309.311 10.4182 310.038 11.1232C310.759 11.7482 311.689 12.0887 312.649 12.0789ZM130.48 28.1307H120.005V23.1733H129.296V20.1123H120.005V16.0657H129.994V13.0793H116.331V31.2664H130.404L130.48 28.1307ZM190.717 23.233H198.034V31.1918H201.769V13.0793H197.898V20.2317H190.581V13.0793H186.846V31.2664H190.581L190.717 23.233ZM159.566 19.3209V31.1918H163.058V13.0793H159.202L151.733 25.1145V13.0793H148.241V31.2664H151.976L159.566 19.3209ZM137.433 16.0657H146.237V13.0793H133.698V31.2664H137.433V16.0657ZM218.118 31.2067H222.187L214.779 13.0793H210.832L203.621 31.2664H207.583L209.101 27.1303H216.509L218.118 31.2067ZM210.255 24.0095L212.76 17.2603L215.31 24.0095H210.255ZM294.432 28.9968C295.055 28.0575 295.387 26.9602 295.387 25.8387C295.387 24.7171 295.055 23.6198 294.432 22.6806C293.862 21.8256 293.034 21.1677 292.064 20.7991C290.978 20.422 289.83 20.2448 288.679 20.2765H283.684V13.0793H279.95V31.2664H288.679C289.869 31.3193 291.06 31.1729 292.201 30.8334C293.116 30.4574 293.895 29.817 294.432 28.9968ZM291.017 27.2049C290.699 27.58 290.268 27.8466 289.787 27.9665C288.987 28.1158 288.172 28.1759 287.358 28.1457H283.715V23.3226H287.51C288.6 23.2296 289.695 23.4418 290.667 23.9348C290.96 24.1398 291.194 24.4147 291.348 24.7334C291.502 25.0522 291.571 25.4043 291.548 25.7565C291.552 26.2915 291.351 26.8084 290.986 27.2049H291.017ZM282.713 51.3146H275.396V44.2219H271.661V62.424H275.396V54.4652H282.713V62.424H286.447V44.2219H282.713V51.3146ZM258.272 54.301H267.562V51.3146H258.272V47.2083H268.261V44.2219H254.598V62.424H268.625V59.4376H258.287L258.272 54.301ZM121.083 54.301H130.374V51.3146H121.053V47.2083H131.041V44.2219H117.379V62.424H131.391V59.4376H121.053L121.083 54.301ZM250.529 44.2219H246.795V59.3032H239.554V44.2219H235.819V62.424H248.966V66.3959H252.002V59.3778H250.484L250.529 44.2219ZM316.414 19.3955V31.2664H319.906V13.0793H316.186L308.687 25.1891V13.0793H305.195V31.2664H308.93L316.414 19.3955ZM288.831 47.2083H294.311V62.3194H298.045V47.2083H303.541V44.2219H288.846L288.831 47.2083ZM318.904 46.178C318.246 45.3028 317.303 44.6757 316.232 44.4011C314.768 44.1561 313.283 44.061 311.799 44.1174H305.803V62.3194H309.613V55.4507H312.057C313.353 55.4839 314.649 55.3989 315.928 55.1969C316.621 55.0312 317.275 54.7372 317.856 54.3308C318.5 53.8612 319.021 53.2468 319.374 52.539C319.813 51.6625 320.027 50.6935 319.997 49.7169C320.04 48.4601 319.655 47.2251 318.904 46.2078V46.178ZM315.685 51.2101C315.409 51.6293 314.997 51.9449 314.516 52.106C313.556 52.3522 312.562 52.4479 311.571 52.3897H309.613V47.2083H311.42C312.317 47.1787 313.216 47.2187 314.107 47.3277C314.693 47.4149 315.229 47.7 315.625 48.1341C315.964 48.5533 316.162 49.066 316.192 49.6011C316.222 50.1362 316.082 50.6671 315.792 51.1205L315.685 51.2101ZM160.614 43.8486C159.252 43.8229 157.9 44.0666 156.636 44.5653C155.73 44.9446 154.914 45.5037 154.238 46.2078C153.516 46.9288 152.934 47.7741 152.522 48.7015C151.915 50.1801 151.626 51.7663 151.672 53.3603C151.532 55.8614 152.405 58.3152 154.101 60.1842C154.961 61.0243 155.99 61.6787 157.122 62.1055C158.254 62.5323 159.464 62.7222 160.674 62.6629C161.877 62.7164 163.077 62.5222 164.198 62.0928C165.32 61.6634 166.338 61.0082 167.187 60.1692C168.77 58.2015 169.632 55.7654 169.632 53.2557C169.632 50.7461 168.77 48.31 167.187 46.3422C166.331 45.4948 165.304 44.8347 164.171 44.405C163.038 43.9752 161.826 43.7856 160.614 43.8486ZM164.318 57.9294C163.865 58.4436 163.303 58.8524 162.67 59.1262C162.037 59.3999 161.35 59.5318 160.659 59.5122C159.964 59.53 159.273 59.3975 158.636 59.124C157.999 58.8505 157.43 58.4427 156.97 57.9294C155.886 56.608 155.345 54.9354 155.452 53.2408C155.323 51.5559 155.825 49.8827 156.864 48.5372C157.336 48.0371 157.914 47.6443 158.556 47.3864C159.198 47.1285 159.89 47.0117 160.583 47.044C161.274 47.0098 161.965 47.1258 162.605 47.3839C163.245 47.642 163.82 48.0358 164.287 48.5372C165.214 49.9365 165.708 51.5707 165.708 53.2408C165.708 54.9109 165.214 56.5451 164.287 57.9444L164.318 57.9294ZM184.402 52.6883C185.182 52.3461 185.842 51.7851 186.3 51.0757C186.764 50.38 187.008 49.5637 186.998 48.7313C187.01 47.9875 186.816 47.2544 186.436 46.611C186.084 46.0115 185.596 45.5004 185.009 45.1178C184.433 44.7265 183.774 44.4711 183.081 44.3712C182 44.23 180.908 44.1801 179.817 44.2219H172.409V62.424H178.709C181.093 62.424 182.595 62.424 183.263 62.3045C184.157 62.2203 185.017 61.9231 185.768 61.4384C186.434 60.9536 186.957 60.3046 187.286 59.557C187.673 58.8124 187.875 57.9889 187.878 57.153C187.901 56.1619 187.58 55.1928 186.967 54.4055C186.328 53.571 185.426 52.9674 184.402 52.6883ZM176.144 47.2083H178.299C180.06 47.2083 181.123 47.2083 181.487 47.2083C182.022 47.2462 182.524 47.4745 182.899 47.8504C183.226 48.2336 183.394 48.7242 183.37 49.2241C183.381 49.4846 183.338 49.7447 183.244 49.9885C183.15 50.2323 183.007 50.4549 182.823 50.6426C182.409 51.0269 181.873 51.2589 181.305 51.2996C180.956 51.2996 180.06 51.2996 178.603 51.2996H176.144V47.2083ZM183.521 58.4819C183.169 58.8675 182.691 59.1208 182.17 59.1987C181.32 59.304 180.462 59.3439 179.605 59.3181H176.144V54.4503H179.18C180.289 54.3975 181.401 54.4828 182.489 54.7041C182.958 54.8553 183.367 55.1479 183.658 55.5403C183.94 55.9492 184.084 56.4352 184.068 56.929C184.082 57.4854 183.887 58.0275 183.521 58.4521V58.4819ZM135.748 54.5697V57.6607C135.748 58.467 135.611 58.9747 135.353 59.1539C134.888 59.3996 134.361 59.5085 133.835 59.4674H133V62.3045C134.154 62.3941 134.943 62.4389 135.383 62.4389C136.36 62.5148 137.332 62.2506 138.131 61.6923C138.732 61.1544 139.119 60.4242 139.224 59.6317C139.413 58.0861 139.49 56.5292 139.452 54.9729V47.2083H145.023V62.3194H148.697V44.2219H135.748V54.5697ZM217.724 41.4445C217.178 41.4694 216.641 41.3056 216.206 40.9817C216.018 40.8117 215.866 40.6067 215.759 40.3786C215.652 40.1505 215.592 39.9037 215.583 39.6527H213.762C213.808 40.6553 214.236 41.6039 214.961 42.3106C215.716 42.9574 216.693 43.2988 217.693 43.2662C218.695 43.3049 219.674 42.9627 220.426 42.3106C221.155 41.6054 221.588 40.657 221.64 39.6527H219.91C219.898 39.9046 219.835 40.1518 219.726 40.3799C219.617 40.608 219.462 40.8125 219.272 40.9817C218.818 41.3112 218.256 41.4652 217.693 41.4147L217.724 41.4445ZM213.837 56.3018V44.2219H210.346V62.424H214.08L221.565 50.4784V62.424H225.056V44.2219H221.306L213.837 56.3018ZM198.505 43.8784C197.144 43.8527 195.791 44.0965 194.528 44.5952C193.622 44.9744 192.805 45.5336 192.129 46.2377C191.404 46.9513 190.813 47.7854 190.383 48.7015C189.776 50.1801 189.487 51.7663 189.533 53.3603C189.463 54.6 189.643 55.8411 190.063 57.0122C190.482 58.1832 191.133 59.2612 191.977 60.1842C193.766 61.7832 196.096 62.6693 198.512 62.6693C200.929 62.6693 203.259 61.7832 205.048 60.1842C206.631 58.2164 207.493 55.7803 207.493 53.2707C207.493 50.761 206.631 48.3249 205.048 46.3572C204.194 45.5071 203.167 44.8441 202.034 44.4118C200.901 43.9795 199.688 43.7876 198.475 43.8486L198.505 43.8784ZM202.209 57.9593C201.757 58.4735 201.194 58.8823 200.561 59.156C199.928 59.4298 199.241 59.5617 198.55 59.5421C197.855 59.5599 197.165 59.4273 196.527 59.1538C195.89 58.8803 195.321 58.4726 194.862 57.9593C193.93 56.5643 193.434 54.932 193.434 53.2632C193.434 51.5944 193.93 49.9621 194.862 48.5671C195.334 48.067 195.911 47.6742 196.553 47.4163C197.196 47.1584 197.888 47.0415 198.581 47.0739C199.272 47.0396 199.962 47.1557 200.602 47.4138C201.243 47.6719 201.817 48.0657 202.285 48.5671C203.212 49.9664 203.705 51.6005 203.705 53.2707C203.705 54.9408 203.212 56.5749 202.285 57.9742L202.209 57.9593ZM238.795 31.2216V13.0793H225.8V26.5181C225.8 27.3244 225.663 27.8221 225.39 28.0113C224.927 28.262 224.398 28.3712 223.872 28.3248H223.083V31.1619C224.236 31.2515 225.026 31.2963 225.466 31.2963C226.443 31.3723 227.415 31.108 228.214 30.5497C228.815 30.0118 229.202 29.2816 229.307 28.4891C229.496 26.9436 229.572 25.3866 229.534 23.8303V16.0657H235.106V31.1769L238.795 31.2216Z" fill="#FFC700"/>
</svg>
