<svg width="18" height="18" viewBox="0 0 18 18" fill="none" xmlns="http://www.w3.org/2000/svg">
<path d="M14.5744 3.00892C12.9619 1.3964 10.8179 0.508331 8.5375 0.508331C6.25705 0.508331 4.11307 1.3964 2.50055 3.00892C0.888034 4.62144 0 6.76539 0 9.04583C0 11.3263 0.888034 13.4703 2.50055 15.0827C4.11307 16.6952 6.25705 17.5833 8.5375 17.5833C10.8179 17.5833 12.9619 16.6953 14.5744 15.0827C16.187 13.4702 17.075 11.3263 17.075 9.04583C17.075 6.76539 16.187 4.62141 14.5744 3.00892ZM8.5375 15.9076C4.75389 15.9076 1.67575 12.8294 1.67575 9.04583C1.67575 9.03963 1.67595 9.03349 1.67598 9.02736C1.67598 9.02579 1.67575 9.02429 1.67575 9.02272C1.67575 9.02009 1.67608 9.01755 1.67615 9.01495C1.69279 5.27669 4.71383 2.23531 8.44425 2.18528C8.45206 2.18492 8.4598 2.18412 8.4677 2.18412C8.47243 2.18412 8.47704 2.18468 8.48174 2.18482C8.50035 2.18468 8.51889 2.18412 8.53753 2.18412C12.3211 2.18412 15.3993 5.26229 15.3993 9.04587C15.3993 12.8294 12.3211 15.9076 8.5375 15.9076Z" fill="#FFC700"/>
<path d="M13.7506 9.45811C13.4716 9.45811 13.2454 9.23193 13.2454 8.95293C13.2454 8.67393 13.4716 8.44775 13.7506 8.44775H14.3595C14.0735 5.64385 11.7995 3.41953 8.97382 3.21069V3.74079C8.97382 4.01979 8.74765 4.24597 8.46864 4.24597C8.18964 4.24597 7.96346 4.01979 7.96346 3.74079V3.22277C5.17957 3.49557 2.96206 5.72739 2.71117 8.51755H3.2565C3.5355 8.51755 3.76168 8.74373 3.76168 9.02273C3.76168 9.30173 3.5355 9.52791 3.2565 9.52791H2.70703C2.93931 12.363 5.20128 14.6319 8.0333 14.8753V14.2348C8.0333 13.9558 8.25947 13.7297 8.53848 13.7297C8.81748 13.7297 9.04366 13.9558 9.04366 14.2348V14.8753C11.8989 14.6299 14.1746 12.3256 14.3752 9.45811H13.7506ZM10.5835 7.71533L8.89572 9.40312C8.80097 9.49786 8.67251 9.55109 8.53851 9.55109C8.40455 9.55109 8.27602 9.49786 8.1813 9.40312L5.24344 6.46525C5.04614 6.26799 5.04614 5.94813 5.24344 5.75083C5.4407 5.55354 5.76055 5.55354 5.95785 5.75083L8.53854 8.33149L9.86913 7.00091C10.0664 6.80361 10.3862 6.80361 10.5835 7.00091C10.7808 7.19817 10.7808 7.51806 10.5835 7.71533Z" fill="#FFC700"/>
</svg>
