<svg width="18" height="18" viewBox="0 0 18 18" fill="none" xmlns="http://www.w3.org/2000/svg">
<path d="M9.7666 17.4638C11.0723 17.2783 12.217 15.9155 12.9373 13.9029C11.896 13.6697 10.8335 13.5446 9.7666 13.5297V17.4638Z" fill="#FFC700"/>
<path d="M11.8523 17.1437C11.9295 17.1213 12.0063 17.0988 12.0826 17.0741C12.147 17.0534 12.2105 17.031 12.274 17.0088C12.3491 16.9829 12.4239 16.9562 12.4984 16.9279C12.5618 16.9038 12.6247 16.8781 12.6877 16.8525C12.7605 16.822 12.833 16.7916 12.9048 16.761C12.9676 16.7335 13.0299 16.7046 13.0921 16.6755C13.1626 16.6423 13.2328 16.6084 13.3024 16.5733C13.3635 16.5421 13.4244 16.5104 13.4855 16.4778C13.5539 16.4411 13.6218 16.4037 13.6893 16.3653C13.7504 16.3307 13.8093 16.296 13.8687 16.2602C13.9349 16.2195 14.0008 16.1789 14.0662 16.1382C14.1247 16.1009 14.1831 16.0631 14.2408 16.0241C14.3052 15.9807 14.3687 15.9355 14.4318 15.8904C14.4886 15.8497 14.5451 15.8092 14.6005 15.7684C14.6616 15.7213 14.7242 15.6725 14.7854 15.6237C14.8398 15.5803 14.894 15.5373 14.9475 15.4927C15.0085 15.442 15.0669 15.3896 15.126 15.3371C15.1779 15.2911 15.2301 15.2455 15.2807 15.1983C15.339 15.1439 15.3957 15.0876 15.4525 15.0317C15.5017 14.9831 15.5515 14.9353 15.5996 14.8855C15.6085 14.8763 15.617 14.8663 15.6263 14.8567C14.9607 14.513 14.2596 14.2431 13.5353 14.0521C13.1586 15.2534 12.4882 16.342 11.585 17.2191C11.6097 17.2127 11.6344 17.2074 11.6592 17.201C11.7244 17.1827 11.7885 17.1626 11.8523 17.1437Z" fill="#FFC700"/>
<path d="M17.9997 9.24841H14.3407C14.3269 10.6771 14.1196 12.0972 13.7246 13.4703C14.5301 13.6855 15.3075 13.9948 16.0406 14.3919C17.2442 12.9412 17.9332 11.1324 17.9997 9.24841Z" fill="#FFC700"/>
<path d="M9.7666 8.63829H13.7297C13.7142 7.26015 13.512 5.8905 13.1289 4.56659C12.0254 4.81826 10.8983 4.95266 9.7666 4.96756V8.63829Z" fill="#FFC700"/>
<path d="M9.7666 0.422913V4.35708C10.8335 4.34203 11.896 4.21702 12.9373 3.98382C12.217 1.97122 11.0723 0.608423 9.7666 0.422913Z" fill="#FFC700"/>
<path d="M9.7666 12.9191C10.8983 12.9342 12.0254 13.0686 13.1289 13.3203C13.512 11.9964 13.7142 10.6266 13.7297 9.24841H9.7666V12.9191Z" fill="#FFC700"/>
<path d="M16.0406 3.49487C15.3075 3.89197 14.5301 4.2013 13.7246 4.41647C14.1196 5.78954 14.3269 7.20971 14.3407 8.63836H17.9997C17.9331 6.7545 17.2441 4.94573 16.0406 3.49487Z" fill="#FFC700"/>
<path d="M15.6287 3.0318C15.6197 3.02271 15.6112 3.01288 15.6024 3.00349C15.5542 2.95372 15.5041 2.90574 15.4549 2.85732C15.3983 2.80144 15.3418 2.74497 15.2834 2.69073C15.2329 2.64364 15.1806 2.59909 15.1288 2.55215C15.0696 2.49971 15.0104 2.44681 14.9496 2.39615C14.8969 2.35159 14.8428 2.30898 14.7892 2.26622C14.7281 2.21675 14.6655 2.16757 14.6026 2.12034C14.5475 2.07877 14.4916 2.03854 14.4354 1.9983C14.3717 1.95241 14.3076 1.90667 14.2426 1.86301C14.1855 1.82457 14.1276 1.78702 14.0696 1.75021C14.0036 1.70775 13.9378 1.66617 13.8706 1.62594C13.8117 1.59063 13.7522 1.55576 13.6926 1.52194C13.6244 1.4829 13.556 1.44505 13.487 1.4081C13.4259 1.37755 13.365 1.34432 13.3039 1.31378C13.2337 1.27831 13.1629 1.24419 13.0904 1.21067C13.0293 1.18161 12.9673 1.1533 12.9044 1.12573C12.8321 1.0937 12.7591 1.06479 12.6863 1.03425C12.6234 1.00862 12.5608 0.983286 12.4973 0.959147C12.4233 0.930836 12.3482 0.904313 12.2731 0.878386C12.2096 0.856036 12.1461 0.833834 12.0817 0.812973C12.0055 0.788239 11.9292 0.765739 11.8508 0.74309C11.7873 0.724465 11.7235 0.705541 11.6593 0.688555C11.6347 0.681849 11.6097 0.676634 11.585 0.670227C12.4882 1.54727 13.1585 2.63575 13.5353 3.83717C14.2603 3.64615 14.9625 3.37615 15.6287 3.0318Z" fill="#FFC700"/>
<path d="M0.923828 8.63836H4.58278C4.59664 7.20971 4.80391 5.78954 5.19877 4.41647C4.3934 4.20145 3.61604 3.89212 2.88294 3.49487C1.67928 4.94558 0.990284 6.7545 0.923828 8.63836Z" fill="#FFC700"/>
<path d="M9.15504 17.4638V13.5297C8.08817 13.5447 7.02562 13.6697 5.98438 13.9029C6.70451 15.9155 7.84932 17.2783 9.15504 17.4638Z" fill="#FFC700"/>
<path d="M9.15545 9.24841H5.19238C5.20788 10.6266 5.40993 11.9964 5.79317 13.3203C6.8967 13.0684 8.02362 12.934 9.15545 12.9191V9.24841Z" fill="#FFC700"/>
<path d="M9.15504 0.422913C7.84932 0.608423 6.70451 1.97122 5.98438 3.98382C7.02562 4.21717 8.08817 4.34218 9.15504 4.35708V0.422913Z" fill="#FFC700"/>
<path d="M9.15545 4.96756C8.02376 4.95266 6.8967 4.81826 5.79317 4.56659C5.40993 5.8905 5.20788 7.26015 5.19238 8.63829H9.15545V4.96756Z" fill="#FFC700"/>
<path d="M7.33729 0.669922C7.31256 0.676329 7.28782 0.681544 7.26309 0.687951C7.19842 0.705236 7.13464 0.724458 7.07027 0.743083C6.99369 0.765434 6.91769 0.787934 6.84081 0.81237C6.77599 0.83338 6.71222 0.855731 6.64844 0.877932C6.57379 0.904306 6.49899 0.930531 6.42508 0.958544C6.36131 0.98298 6.29843 1.00831 6.23525 1.03424C6.16269 1.06478 6.08997 1.09533 6.0183 1.12573C5.95542 1.15329 5.89328 1.1822 5.831 1.21126C5.76052 1.24448 5.69034 1.27831 5.62075 1.31347C5.55966 1.34461 5.49857 1.3765 5.43763 1.40898C5.36923 1.44564 5.30144 1.48319 5.23409 1.52163C5.173 1.55575 5.11295 1.59077 5.05409 1.62653C4.98778 1.66646 4.92222 1.70774 4.85696 1.74857C4.79825 1.78612 4.73999 1.82396 4.68232 1.863C4.61795 1.90636 4.55448 1.95151 4.4913 1.99666C4.43453 2.03734 4.37805 2.07787 4.32248 2.11884C4.26004 2.16578 4.20044 2.21465 4.13756 2.26338C4.08332 2.30674 4.02864 2.3498 3.97559 2.39465C3.9145 2.44501 3.85654 2.49716 3.79768 2.54932C3.74553 2.59581 3.69293 2.64095 3.64197 2.68908C3.58401 2.74317 3.52753 2.79935 3.47091 2.85507C3.42174 2.90365 3.37168 2.95163 3.3234 3.00155C3.31461 3.01078 3.30611 3.02092 3.29688 3.0303C3.96233 3.37421 4.66355 3.64405 5.38786 3.83508C5.76454 2.6344 6.43447 1.54652 7.33729 0.669922Z" fill="#FFC700"/>
<path d="M3.46808 15.0297C3.52485 15.0855 3.58132 15.142 3.63959 15.1964C3.69025 15.2433 3.7424 15.2879 3.7944 15.3348C3.85356 15.3874 3.91271 15.4402 3.9735 15.4908C4.02625 15.5351 4.08004 15.5779 4.13398 15.6208C4.19507 15.6702 4.25602 15.7194 4.32069 15.7669C4.37567 15.8082 4.43154 15.8482 4.48742 15.8891C4.5512 15.9349 4.61557 15.9806 4.68053 16.0246C4.7376 16.063 4.79556 16.1006 4.85353 16.1375C4.91953 16.1798 4.98539 16.2214 5.0526 16.2616C5.11145 16.2971 5.17091 16.3318 5.23051 16.3658C5.29875 16.4048 5.36714 16.4427 5.43613 16.4795C5.49708 16.51 5.55817 16.5433 5.61926 16.5738C5.68944 16.6093 5.76022 16.6434 5.83278 16.6771C5.89388 16.7058 5.95586 16.7341 6.01874 16.7618C6.09101 16.7939 6.16387 16.8228 6.23688 16.8533C6.29976 16.879 6.36235 16.9043 6.42582 16.9284C6.49988 16.9569 6.57498 16.9834 6.65007 17.0093C6.71355 17.0315 6.77703 17.0539 6.8414 17.0746C6.91769 17.0993 6.99398 17.122 7.07235 17.1445C7.13583 17.1631 7.1996 17.182 7.26367 17.1992C7.28841 17.2059 7.31344 17.2111 7.33818 17.2175C6.43491 16.3403 5.76469 15.2518 5.38786 14.0504C4.66355 14.2416 3.96233 14.5114 3.29688 14.8555C3.30582 14.8646 3.31431 14.8744 3.32325 14.8838C3.36899 14.9333 3.41831 14.9812 3.46808 15.0297Z" fill="#FFC700"/>
<path d="M2.88294 14.3919C3.61604 13.9948 4.3934 13.6855 5.19877 13.4703C4.80391 12.0972 4.59664 10.6771 4.58278 9.24841H0.923828C0.990433 11.1323 1.67928 12.9411 2.88294 14.3919Z" fill="#FFC700"/>
</svg>
