<svg width="18" height="18" viewBox="0 0 18 18" fill="none" xmlns="http://www.w3.org/2000/svg">
<path d="M13.9052 11.4059C13.3473 10.8551 12.6509 10.8551 12.0966 11.4059C11.6738 11.8251 11.251 12.2444 10.8353 12.6708C10.7216 12.7881 10.6256 12.8129 10.4871 12.7348C10.2135 12.5855 9.92211 12.4647 9.65918 12.3013C8.43334 11.5302 7.40648 10.5389 6.49688 9.42322C6.04563 8.86893 5.64412 8.27555 5.36342 7.60756C5.30657 7.47254 5.31723 7.38372 5.42738 7.27357C5.8502 6.86496 6.26237 6.44568 6.67809 6.02641C7.25725 5.4437 7.25725 4.76149 6.67453 4.17522C6.34409 3.84123 6.01365 3.51434 5.68321 3.18034C5.3421 2.83924 5.00455 2.49459 4.6599 2.15704C4.10206 1.6134 3.40564 1.6134 2.85135 2.16059C2.42497 2.57986 2.01636 3.00979 1.58288 3.42196C1.18137 3.80214 0.97884 4.26761 0.936202 4.81124C0.868693 5.69597 1.08543 6.53096 1.39101 7.34463C2.01636 9.02882 2.9686 10.5247 4.12337 11.8962C5.68321 13.751 7.54505 15.2184 9.72313 16.2772C10.7038 16.7534 11.72 17.1193 12.825 17.1797C13.5854 17.2224 14.2463 17.0305 14.7757 16.4371C15.1381 16.0321 15.5467 15.6625 15.9305 15.2753C16.499 14.6996 16.5025 14.0032 15.9376 13.4347C15.2625 12.7561 14.5838 12.081 13.9052 11.4059Z" fill="#FFC700"/>
<path d="M13.2266 8.574L14.5377 8.35015C14.3316 7.14563 13.7631 6.05482 12.8997 5.18785C11.9866 4.27469 10.8318 3.69908 9.55976 3.52142L9.375 4.83964C10.3592 4.97821 11.2546 5.42236 11.9617 6.12943C12.6297 6.79742 13.0667 7.64307 13.2266 8.574Z" fill="#FFC700"/>
<path d="M15.2775 2.87476C13.7638 1.36112 11.8487 0.405324 9.73457 0.110413L9.5498 1.42863C11.3761 1.68446 13.0319 2.51234 14.3395 3.81634C15.5795 5.05639 16.3932 6.62333 16.6881 8.34661L17.9992 8.12276C17.6545 6.12589 16.713 4.31379 15.2775 2.87476Z" fill="#FFC700"/>
</svg>
