<svg width="18" height="18" viewBox="0 0 18 18" fill="none" xmlns="http://www.w3.org/2000/svg">
<path d="M15.4983 3.2985C13.8858 1.68598 11.7418 0.797913 9.46133 0.797913C7.18088 0.797913 5.0369 1.68598 3.42438 3.2985C1.81186 4.91102 0.923828 7.05497 0.923828 9.33541C0.923828 11.6159 1.81186 13.7598 3.42438 15.3723C5.0369 16.9848 7.18088 17.8729 9.46133 17.8729C11.7418 17.8729 13.8858 16.9848 15.4983 15.3723C17.1108 13.7598 17.9988 11.6159 17.9988 9.33541C17.9988 7.05497 17.1108 4.91099 15.4983 3.2985ZM9.46133 16.1972C5.67771 16.1972 2.59958 13.119 2.59958 9.33541C2.59958 9.32921 2.59978 9.32307 2.59981 9.31694C2.59981 9.31537 2.59958 9.31387 2.59958 9.3123C2.59958 9.30967 2.59991 9.30713 2.59998 9.30453C2.61662 5.56627 5.63766 2.52489 9.36808 2.47486C9.37589 2.4745 9.38362 2.4737 9.39153 2.4737C9.39626 2.4737 9.40087 2.47426 9.40557 2.4744C9.42418 2.47426 9.44272 2.4737 9.46136 2.4737C13.245 2.4737 16.3231 5.55187 16.3231 9.33545C16.3231 13.119 13.2449 16.1972 9.46133 16.1972Z" fill="#FFC700"/>
<path d="M14.6744 9.74772C14.3954 9.74772 14.1692 9.52154 14.1692 9.24254C14.1692 8.96354 14.3954 8.73736 14.6744 8.73736H15.2833C14.9973 5.93346 12.7234 3.70914 9.89765 3.50031V4.0304C9.89765 4.3094 9.67147 4.53558 9.39247 4.53558C9.11347 4.53558 8.88729 4.3094 8.88729 4.0304V3.51238C6.1034 3.78518 3.88588 6.017 3.63499 8.80716H4.18033C4.45933 8.80716 4.68551 9.03334 4.68551 9.31234C4.68551 9.59134 4.45933 9.81752 4.18033 9.81752H3.63086C3.86314 12.6526 6.12511 14.9215 8.95713 15.1649V14.5245C8.95713 14.2455 9.1833 14.0193 9.46231 14.0193C9.74131 14.0193 9.96749 14.2455 9.96749 14.5245V15.1649C12.8227 14.9195 15.0984 12.6153 15.299 9.74772H14.6744ZM11.5073 8.00494L9.81955 9.69273C9.7248 9.78747 9.59634 9.8407 9.46234 9.8407C9.32837 9.8407 9.19984 9.78747 9.10513 9.69273L6.16726 6.75486C5.96997 6.5576 5.96997 6.23774 6.16726 6.04045C6.36453 5.84315 6.68438 5.84315 6.88168 6.04045L9.46237 8.6211L10.793 7.29052C10.9902 7.09323 11.3101 7.09323 11.5074 7.29052C11.7046 7.48778 11.7046 7.80767 11.5073 8.00494Z" fill="#FFC700"/>
</svg>
