<svg width="505" height="481" viewBox="0 0 505 481" fill="none" xmlns="http://www.w3.org/2000/svg">
<path d="M24.7326 196.238L0.745483 210.048" stroke="#434447" stroke-width="0.711383" stroke-miterlimit="10"/>
<path d="M166.138 114.822L152.638 122.593" stroke="#434447" stroke-width="0.711383" stroke-miterlimit="10"/>
<path d="M25.0891 210.822L0.73999 224.013" stroke="#434447" stroke-width="0.711383" stroke-miterlimit="10"/>
<path d="M136.13 150.67L125.387 156.491" stroke="#434447" stroke-width="0.711383" stroke-miterlimit="10"/>
<path d="M166.138 134.414L152.688 141.701" stroke="#434447" stroke-width="0.711383" stroke-miterlimit="10"/>
<path d="M24.816 225.751L0.734253 237.973" stroke="#434447" stroke-width="0.711383" stroke-miterlimit="10"/>
<path d="M136.637 168.986L125.359 174.713" stroke="#434447" stroke-width="0.711383" stroke-miterlimit="10"/>
<path d="M166.138 154.006L152.359 161.003" stroke="#434447" stroke-width="0.711383" stroke-miterlimit="10"/>
<path d="M25.0834 240.402L0.728699 251.934" stroke="#434447" stroke-width="0.711383" stroke-miterlimit="10"/>
<path d="M136.476 187.648L125.398 192.896" stroke="#434447" stroke-width="0.711383" stroke-miterlimit="10"/>
<path d="M166.138 173.604L152.482 180.066" stroke="#434447" stroke-width="0.711383" stroke-miterlimit="10"/>
<path d="M24.8105 255.31L0.723206 265.899" stroke="#434447" stroke-width="0.711383" stroke-miterlimit="10"/>
<path d="M136.247 206.332L125.398 211.1" stroke="#434447" stroke-width="0.711383" stroke-miterlimit="10"/>
<path d="M166.138 193.196L152.755 199.079" stroke="#434447" stroke-width="0.711383" stroke-miterlimit="10"/>
<path d="M24.6266 270.167L0.717529 279.859" stroke="#434447" stroke-width="0.711383" stroke-miterlimit="10"/>
<path d="M136.169 224.943L125.37 229.322" stroke="#434447" stroke-width="0.711383" stroke-miterlimit="10"/>
<path d="M166.138 212.788L152.838 218.181" stroke="#434447" stroke-width="0.711383" stroke-miterlimit="10"/>
<path d="M24.7382 284.901L0.712097 293.82" stroke="#434447" stroke-width="0.711383" stroke-miterlimit="10"/>
<path d="M136.509 243.388L125.32 247.544" stroke="#434447" stroke-width="0.711383" stroke-miterlimit="10"/>
<path d="M166.138 232.386L153.295 237.155" stroke="#434447" stroke-width="0.711383" stroke-miterlimit="10"/>
<path d="M24.8385 299.641L0.706604 307.785" stroke="#434447" stroke-width="0.711383" stroke-miterlimit="10"/>
<path d="M136.336 262.033L125.498 265.687" stroke="#434447" stroke-width="0.711383" stroke-miterlimit="10"/>
<path d="M166.138 251.978L153.49 256.245" stroke="#434447" stroke-width="0.711383" stroke-miterlimit="10"/>
<path d="M24.599 314.498L0.706604 321.746" stroke="#434447" stroke-width="0.711383" stroke-miterlimit="10"/>
<path d="M136.765 280.478L125.432 283.915" stroke="#434447" stroke-width="0.711383" stroke-miterlimit="10"/>
<path d="M166.138 271.57L153.295 275.464" stroke="#434447" stroke-width="0.711383" stroke-miterlimit="10"/>
<path d="M25.0221 329.16L0.700867 335.706" stroke="#434447" stroke-width="0.711383" stroke-miterlimit="10"/>
<path d="M136.553 299.129L125.342 302.148" stroke="#434447" stroke-width="0.711383" stroke-miterlimit="10"/>
<path d="M166.138 291.162L153.367 294.605" stroke="#434447" stroke-width="0.711383" stroke-miterlimit="10"/>
<path d="M24.8885 343.978L0.695312 349.666" stroke="#434447" stroke-width="0.711383" stroke-miterlimit="10"/>
<path d="M136.776 317.662L125.454 320.325" stroke="#434447" stroke-width="0.711383" stroke-miterlimit="10"/>
<path d="M166.138 310.76L154.197 313.568" stroke="#434447" stroke-width="0.711383" stroke-miterlimit="10"/>
<path d="M24.9332 358.752L0.68988 363.632" stroke="#434447" stroke-width="0.711383" stroke-miterlimit="10"/>
<path d="M136.57 336.302L125.454 338.536" stroke="#434447" stroke-width="0.711383" stroke-miterlimit="10"/>
<path d="M166.138 330.352L153.924 332.809" stroke="#434447" stroke-width="0.711383" stroke-miterlimit="10"/>
<path d="M25.2338 373.492L0.684204 377.592" stroke="#434447" stroke-width="0.711383" stroke-miterlimit="10"/>
<path d="M136.593 354.885L125.142 356.796" stroke="#434447" stroke-width="0.711383" stroke-miterlimit="10"/>
<path d="M166.138 349.944L154.225 351.939" stroke="#434447" stroke-width="0.711383" stroke-miterlimit="10"/>
<path d="M25.1392 388.298L0.678711 391.552" stroke="#434447" stroke-width="0.711383" stroke-miterlimit="10"/>
<path d="M137.239 373.386L124.88 375.029" stroke="#434447" stroke-width="0.711383" stroke-miterlimit="10"/>
<path d="M166.138 369.542L153.913 371.168" stroke="#434447" stroke-width="0.711383" stroke-miterlimit="10"/>
<path d="M7.94101 404.799L0.673035 405.517" stroke="#434447" stroke-width="0.711383" stroke-miterlimit="10"/>
<path d="M7.85748 419.01L0.66748 419.477" stroke="#434447" stroke-width="0.711383" stroke-miterlimit="10"/>
<path d="M137.01 410.62L132.811 410.893" stroke="#434447" stroke-width="0.711383" stroke-miterlimit="10"/>
<path d="M166.138 408.726L154.275 409.501" stroke="#434447" stroke-width="0.711383" stroke-miterlimit="10"/>
<path d="M7.62921 433.226L0.661987 433.438" stroke="#434447" stroke-width="0.711383" stroke-miterlimit="10"/>
<path d="M136.955 429.226L133.062 429.343" stroke="#434447" stroke-width="0.711383" stroke-miterlimit="10"/>
<path d="M166.138 428.324L154.398 428.686" stroke="#434447" stroke-width="0.711383" stroke-miterlimit="10"/>
<path d="M24.8272 180.618L0.745483 195.425" stroke="#434447" stroke-width="0.711383" stroke-miterlimit="10"/>
<path d="M135.785 112.388L125.537 118.694" stroke="#434447" stroke-width="0.711383" stroke-miterlimit="10"/>
<path d="M166.138 93.7261L152.448 102.143" stroke="#434447" stroke-width="0.711383" stroke-miterlimit="10"/>
<path d="M24.8329 164.29L0.73999 179.894" stroke="#434447" stroke-width="0.711383" stroke-miterlimit="10"/>
<path d="M136.086 92.2163L125.342 99.1741" stroke="#434447" stroke-width="0.711383" stroke-miterlimit="10"/>
<path d="M166.138 72.7468L152.181 81.7881" stroke="#434447" stroke-width="0.711383" stroke-miterlimit="10"/>
<path d="M24.7659 148.007L0.734253 164.362" stroke="#434447" stroke-width="0.711383" stroke-miterlimit="10"/>
<path d="M136.225 72.134L125.203 79.6322" stroke="#434447" stroke-width="0.711383" stroke-miterlimit="10"/>
<path d="M166.138 51.7676L152.265 61.2155" stroke="#434447" stroke-width="0.711383" stroke-miterlimit="10"/>
<path d="M136.242 52.1243L0.728699 148.837" stroke="#434447" stroke-width="0.711383" stroke-miterlimit="10"/>
<path d="M166.138 30.7939L152.047 40.849" stroke="#434447" stroke-width="0.711383" stroke-miterlimit="10"/>
<path d="M166.138 114.822L242.371 130.961" stroke="#434447" stroke-width="0.711383" stroke-miterlimit="10"/>
<path d="M166.138 134.414L242.371 149.572" stroke="#434447" stroke-width="0.711383" stroke-miterlimit="10"/>
<path d="M166.138 154.006L242.371 168.178" stroke="#434447" stroke-width="0.711383" stroke-miterlimit="10"/>
<path d="M166.138 173.604L242.371 186.79" stroke="#434447" stroke-width="0.711383" stroke-miterlimit="10"/>
<path d="M166.138 193.196L242.371 205.402" stroke="#434447" stroke-width="0.711383" stroke-miterlimit="10"/>
<path d="M166.138 212.788L242.371 224.013" stroke="#434447" stroke-width="0.711383" stroke-miterlimit="10"/>
<path d="M166.138 232.386L242.371 242.625" stroke="#434447" stroke-width="0.711383" stroke-miterlimit="10"/>
<path d="M166.138 251.978L242.371 261.237" stroke="#434447" stroke-width="0.711383" stroke-miterlimit="10"/>
<path d="M166.138 271.57L242.371 279.848" stroke="#434447" stroke-width="0.711383" stroke-miterlimit="10"/>
<path d="M166.138 291.162L242.371 298.46" stroke="#434447" stroke-width="0.711383" stroke-miterlimit="10"/>
<path d="M166.138 310.76L242.371 317.072" stroke="#434447" stroke-width="0.711383" stroke-miterlimit="10"/>
<path d="M166.138 330.352L242.371 335.683" stroke="#434447" stroke-width="0.711383" stroke-miterlimit="10"/>
<path d="M166.138 349.944L242.371 354.295" stroke="#434447" stroke-width="0.711383" stroke-miterlimit="10"/>
<path d="M166.138 369.542L242.371 372.906" stroke="#434447" stroke-width="0.711383" stroke-miterlimit="10"/>
<path d="M166.138 408.726L242.371 410.13" stroke="#434447" stroke-width="0.711383" stroke-miterlimit="10"/>
<path d="M166.138 428.324L242.371 428.742" stroke="#434447" stroke-width="0.711383" stroke-miterlimit="10"/>
<path d="M254.088 143.935L242.371 149.572" stroke="#434447" stroke-width="0.711383" stroke-miterlimit="10"/>
<path d="M290.507 126.415L273.42 134.632" stroke="#434447" stroke-width="0.711383" stroke-miterlimit="10"/>
<path d="M253.888 162.987L242.371 168.178" stroke="#434447" stroke-width="0.711383" stroke-miterlimit="10"/>
<path d="M290.523 146.475L273.147 154.307" stroke="#434447" stroke-width="0.711383" stroke-miterlimit="10"/>
<path d="M254.306 181.776L242.371 186.79" stroke="#434447" stroke-width="0.711383" stroke-miterlimit="10"/>
<path d="M254.59 181.654L254.306 181.776" stroke="#434447" stroke-width="0.711383" stroke-miterlimit="10"/>
<path d="M273.649 173.643L273.314 173.783" stroke="#434447" stroke-width="0.711383" stroke-miterlimit="10"/>
<path d="M290.54 166.541L273.648 173.643" stroke="#434447" stroke-width="0.711383" stroke-miterlimit="10"/>
<path d="M254.127 200.817L242.371 205.402" stroke="#434447" stroke-width="0.711383" stroke-miterlimit="10"/>
<path d="M290.562 186.606L273.754 193.163" stroke="#434447" stroke-width="0.711383" stroke-miterlimit="10"/>
<path d="M254.217 219.752L242.371 224.014" stroke="#434447" stroke-width="0.711383" stroke-miterlimit="10"/>
<path d="M290.579 206.672L273.503 212.816" stroke="#434447" stroke-width="0.711383" stroke-miterlimit="10"/>
<path d="M254.133 238.753L242.371 242.625" stroke="#434447" stroke-width="0.711383" stroke-miterlimit="10"/>
<path d="M290.595 226.738L273.442 232.386" stroke="#434447" stroke-width="0.711383" stroke-miterlimit="10"/>
<path d="M254.579 257.582L242.371 261.236" stroke="#434447" stroke-width="0.711383" stroke-miterlimit="10"/>
<path d="M290.612 246.803L273.481 251.928" stroke="#434447" stroke-width="0.711383" stroke-miterlimit="10"/>
<path d="M254.172 276.673L242.371 279.848" stroke="#434447" stroke-width="0.711383" stroke-miterlimit="10"/>
<path d="M290.634 266.869L273.191 271.559" stroke="#434447" stroke-width="0.711383" stroke-miterlimit="10"/>
<path d="M254.434 295.58L242.371 298.46" stroke="#434447" stroke-width="0.711383" stroke-miterlimit="10"/>
<path d="M290.651 286.934L273.175 291.107" stroke="#434447" stroke-width="0.711383" stroke-miterlimit="10"/>
<path d="M253.877 314.67L242.371 317.071" stroke="#434447" stroke-width="0.711383" stroke-miterlimit="10"/>
<path d="M290.668 306.994L273.269 310.626" stroke="#434447" stroke-width="0.711383" stroke-miterlimit="10"/>
<path d="M254.4 333.539L242.371 335.683" stroke="#434447" stroke-width="0.711383" stroke-miterlimit="10"/>
<path d="M290.685 327.06L273.754 330.085" stroke="#434447" stroke-width="0.711383" stroke-miterlimit="10"/>
<path d="M254.657 352.473L242.371 354.295" stroke="#434447" stroke-width="0.711383" stroke-miterlimit="10"/>
<path d="M290.701 347.125L273.213 349.721" stroke="#434447" stroke-width="0.711383" stroke-miterlimit="10"/>
<path d="M254.807 371.436L242.371 372.907" stroke="#434447" stroke-width="0.711383" stroke-miterlimit="10"/>
<path d="M290.724 367.191L273.72 369.202" stroke="#434447" stroke-width="0.711383" stroke-miterlimit="10"/>
<path d="M254.334 409.434L242.371 410.13" stroke="#434447" stroke-width="0.711383" stroke-miterlimit="10"/>
<path d="M290.757 407.322L273.47 408.325" stroke="#434447" stroke-width="0.711383" stroke-miterlimit="10"/>
<path d="M254.74 428.396L242.371 428.742" stroke="#434447" stroke-width="0.711383" stroke-miterlimit="10"/>
<path d="M290.774 427.388L273.308 427.872" stroke="#434447" stroke-width="0.711383" stroke-miterlimit="10"/>
<path d="M253.827 104.333L242.371 109.864" stroke="#434447" stroke-width="0.711383" stroke-miterlimit="10"/>
<path d="M290.468 86.6456L273.537 94.8178" stroke="#434447" stroke-width="0.711383" stroke-miterlimit="10"/>
<path d="M253.704 84.5012L242.371 90.4229" stroke="#434447" stroke-width="0.711383" stroke-miterlimit="10"/>
<path d="M290.473 65.2932L273.28 74.2732" stroke="#434447" stroke-width="0.711383" stroke-miterlimit="10"/>
<path d="M254.178 64.3409L242.371 70.9812" stroke="#434447" stroke-width="0.711383" stroke-miterlimit="10"/>
<path d="M273.648 53.3999L273.08 53.7176" stroke="#434447" stroke-width="0.711383" stroke-miterlimit="10"/>
<path d="M290.479 43.9406L273.648 53.3996" stroke="#434447" stroke-width="0.711383" stroke-miterlimit="10"/>
<path d="M253.598 44.782L242.371 51.5392" stroke="#434447" stroke-width="0.711383" stroke-miterlimit="10"/>
<path d="M290.484 22.5828L273.347 32.8941" stroke="#434447" stroke-width="0.711383" stroke-miterlimit="10"/>
<path d="M315.903 106.16L324.14 112.477" stroke="#434447" stroke-width="0.711383" stroke-miterlimit="10"/>
<path d="M290.467 86.6456L299.991 93.9488" stroke="#434447" stroke-width="0.711383" stroke-miterlimit="10"/>
<path d="M315.824 85.8323L323.989 92.4558" stroke="#434447" stroke-width="0.711383" stroke-miterlimit="10"/>
<path d="M290.473 65.2932L299.985 72.9975" stroke="#434447" stroke-width="0.711383" stroke-miterlimit="10"/>
<path d="M315.914 65.6498L323.716 72.3123" stroke="#434447" stroke-width="0.711383" stroke-miterlimit="10"/>
<path d="M290.478 43.9406L300.035 52.096" stroke="#434447" stroke-width="0.711383" stroke-miterlimit="10"/>
<path d="M290.484 22.5828L395.327 116.599" stroke="#434447" stroke-width="0.711383" stroke-miterlimit="10"/>
<path d="M437.397 178.512L395.327 182.122" stroke="#434447" stroke-width="0.711383" stroke-miterlimit="10"/>
<path d="M437.397 194.333L395.327 197.725" stroke="#434447" stroke-width="0.711383" stroke-miterlimit="10"/>
<path d="M437.397 210.154L395.327 213.323" stroke="#434447" stroke-width="0.711383" stroke-miterlimit="10"/>
<path d="M437.397 225.974L395.327 228.927" stroke="#434447" stroke-width="0.711383" stroke-miterlimit="10"/>
<path d="M437.397 241.795L395.327 244.53" stroke="#434447" stroke-width="0.711383" stroke-miterlimit="10"/>
<path d="M437.397 257.61L395.327 260.133" stroke="#434447" stroke-width="0.711383" stroke-miterlimit="10"/>
<path d="M437.397 273.431L395.327 275.732" stroke="#434447" stroke-width="0.711383" stroke-miterlimit="10"/>
<path d="M437.397 289.252L395.327 291.335" stroke="#434447" stroke-width="0.711383" stroke-miterlimit="10"/>
<path d="M437.397 305.072L395.327 306.938" stroke="#434447" stroke-width="0.711383" stroke-miterlimit="10"/>
<path d="M437.397 320.893L395.327 322.537" stroke="#434447" stroke-width="0.711383" stroke-miterlimit="10"/>
<path d="M437.397 336.714L395.327 338.14" stroke="#434447" stroke-width="0.711383" stroke-miterlimit="10"/>
<path d="M437.397 352.535L395.327 353.743" stroke="#434447" stroke-width="0.711383" stroke-miterlimit="10"/>
<path d="M437.397 368.35L395.327 369.341" stroke="#434447" stroke-width="0.711383" stroke-miterlimit="10"/>
<path d="M437.397 384.171L395.327 384.945" stroke="#434447" stroke-width="0.711383" stroke-miterlimit="10"/>
<path d="M437.397 415.812L395.327 416.146" stroke="#434447" stroke-width="0.711383" stroke-miterlimit="10"/>
<path d="M437.397 431.633L395.327 431.75" stroke="#434447" stroke-width="0.711383" stroke-miterlimit="10"/>
<path d="M437.397 163.226L395.327 167.103" stroke="#434447" stroke-width="0.711383" stroke-miterlimit="10"/>
<path d="M437.397 145.5L395.327 150.269" stroke="#434447" stroke-width="0.711383" stroke-miterlimit="10"/>
<path d="M437.397 127.78L395.327 133.434" stroke="#434447" stroke-width="0.711383" stroke-miterlimit="10"/>
<path d="M437.397 110.054L395.327 116.599" stroke="#434447" stroke-width="0.711383" stroke-miterlimit="10"/>
<path d="M437.397 178.512L445.495 184.879" stroke="#434447" stroke-width="0.711383" stroke-miterlimit="10"/>
<path d="M496.95 238.43L504.096 243.717" stroke="#434447" stroke-width="0.711383" stroke-miterlimit="10"/>
<path d="M437.397 194.333L446.024 200.722" stroke="#434447" stroke-width="0.711383" stroke-miterlimit="10"/>
<path d="M497.134 251.616L504.096 256.446" stroke="#434447" stroke-width="0.711383" stroke-miterlimit="10"/>
<path d="M437.397 210.154L445.768 215.964" stroke="#434447" stroke-width="0.711383" stroke-miterlimit="10"/>
<path d="M497.245 264.735L504.095 269.175" stroke="#434447" stroke-width="0.711383" stroke-miterlimit="10"/>
<path d="M437.397 225.974L445.802 231.417" stroke="#434447" stroke-width="0.711383" stroke-miterlimit="10"/>
<path d="M496.805 277.52L504.096 281.898" stroke="#434447" stroke-width="0.711383" stroke-miterlimit="10"/>
<path d="M437.397 241.795L445.996 246.965" stroke="#434447" stroke-width="0.711383" stroke-miterlimit="10"/>
<path d="M497.062 290.722L504.096 294.627" stroke="#434447" stroke-width="0.711383" stroke-miterlimit="10"/>
<path d="M437.397 257.61L445.323 262.011" stroke="#434447" stroke-width="0.711383" stroke-miterlimit="10"/>
<path d="M497.312 303.903L504.095 307.351" stroke="#434447" stroke-width="0.711383" stroke-miterlimit="10"/>
<path d="M437.397 273.431L445.941 277.776" stroke="#434447" stroke-width="0.711383" stroke-miterlimit="10"/>
<path d="M497.251 316.916L504.096 320.08" stroke="#434447" stroke-width="0.711383" stroke-miterlimit="10"/>
<path d="M437.397 289.252L445.841 293.157" stroke="#434447" stroke-width="0.711383" stroke-miterlimit="10"/>
<path d="M497.368 330.012L504.096 332.809" stroke="#434447" stroke-width="0.711383" stroke-miterlimit="10"/>
<path d="M437.397 305.072L445.729 308.537" stroke="#434447" stroke-width="0.711383" stroke-miterlimit="10"/>
<path d="M497.401 343.059L504.095 345.532" stroke="#434447" stroke-width="0.711383" stroke-miterlimit="10"/>
<path d="M437.397 320.893L445.746 323.979" stroke="#434447" stroke-width="0.711383" stroke-miterlimit="10"/>
<path d="M497.903 356.261L504.096 358.261" stroke="#434447" stroke-width="0.711383" stroke-miterlimit="10"/>
<path d="M437.397 336.714L445.367 339.288" stroke="#434447" stroke-width="0.711383" stroke-miterlimit="10"/>
<path d="M497.418 369.141L504.096 370.991" stroke="#434447" stroke-width="0.711383" stroke-miterlimit="10"/>
<path d="M437.397 352.535L445.924 354.891" stroke="#434447" stroke-width="0.711383" stroke-miterlimit="10"/>
<path d="M497.145 382.115L504.096 383.714" stroke="#434447" stroke-width="0.711383" stroke-miterlimit="10"/>
<path d="M437.397 368.35L445.696 370.266" stroke="#434447" stroke-width="0.711383" stroke-miterlimit="10"/>
<path d="M497.045 395.145L504.096 396.443" stroke="#434447" stroke-width="0.711383" stroke-miterlimit="10"/>
<path d="M437.397 384.171L445.891 385.736" stroke="#434447" stroke-width="0.711383" stroke-miterlimit="10"/>
<path d="M497.63 421.305L504.096 421.895" stroke="#434447" stroke-width="0.711383" stroke-miterlimit="10"/>
<path d="M437.397 415.812L445.651 416.564" stroke="#434447" stroke-width="0.711383" stroke-miterlimit="10"/>
<path d="M497.802 434.34L504.096 434.624" stroke="#434447" stroke-width="0.711383" stroke-miterlimit="10"/>
<path d="M437.397 431.633L445.506 431.995" stroke="#434447" stroke-width="0.711383" stroke-miterlimit="10"/>
<path d="M496.744 210.794L504.095 216.682" stroke="#434447" stroke-width="0.711383" stroke-miterlimit="10"/>
<path d="M437.397 163.226L445.829 169.983" stroke="#434447" stroke-width="0.711383" stroke-miterlimit="10"/>
<path d="M497.29 196.466L504.096 202.254" stroke="#434447" stroke-width="0.711383" stroke-miterlimit="10"/>
<path d="M437.397 145.5L445.712 152.575" stroke="#434447" stroke-width="0.711383" stroke-miterlimit="10"/>
<path d="M497.084 181.509L504.096 187.82" stroke="#434447" stroke-width="0.711383" stroke-miterlimit="10"/>
<path d="M437.397 127.78L445.774 135.317" stroke="#434447" stroke-width="0.711383" stroke-miterlimit="10"/>
<path d="M437.397 110.054L504.096 174.496" stroke="#434447" stroke-width="0.711383" stroke-miterlimit="10"/>
<path d="M426.882 404.52V447.27" stroke="#434447" stroke-width="0.711383" stroke-miterlimit="10"/>
<path d="M426.882 179.314V390.906" stroke="#434447" stroke-width="0.711383" stroke-miterlimit="10"/>
<path d="M426.882 94.1886V167.27" stroke="#434447" stroke-width="0.711383" stroke-miterlimit="10"/>
<path d="M416.362 405.016V447.353" stroke="#434447" stroke-width="0.711383" stroke-miterlimit="10"/>
<path d="M416.362 180.144V391.028" stroke="#434447" stroke-width="0.711383" stroke-miterlimit="10"/>
<path d="M416.362 96.0492V168.256" stroke="#434447" stroke-width="0.711383" stroke-miterlimit="10"/>
<path d="M405.847 405.389V447.353" stroke="#434447" stroke-width="0.711383" stroke-miterlimit="10"/>
<path d="M405.847 181.542V390.783" stroke="#434447" stroke-width="0.711383" stroke-miterlimit="10"/>
<path d="M405.847 97.9041V169.577" stroke="#434447" stroke-width="0.711383" stroke-miterlimit="10"/>
<path d="M231.788 125.722V379.686" stroke="#434447" stroke-width="0.711383" stroke-miterlimit="10"/>
<path d="M220.406 124.3V378.975" stroke="#434447" stroke-width="0.711383" stroke-miterlimit="10"/>
<path d="M209.735 122.166V378.975" stroke="#434447" stroke-width="0.711383" stroke-miterlimit="10"/>
<path d="M199.064 120.031V378.264" stroke="#434447" stroke-width="0.711383" stroke-miterlimit="10"/>
<path d="M187.682 118.609V377.552" stroke="#434447" stroke-width="0.711383" stroke-miterlimit="10"/>
<path d="M177.011 116.474V377.197" stroke="#434447" stroke-width="0.711383" stroke-miterlimit="10"/>
<path d="M231.477 396.577V447.911" stroke="#434447" stroke-width="0.711383" stroke-miterlimit="10"/>
<path d="M220.589 396.187V447.941" stroke="#434447" stroke-width="0.711383" stroke-miterlimit="10"/>
<path d="M209.701 395.797V447.941" stroke="#434447" stroke-width="0.711383" stroke-miterlimit="10"/>
<path d="M198.807 395.406V447.941" stroke="#434447" stroke-width="0.711383" stroke-miterlimit="10"/>
<path d="M187.919 395.016V447.972" stroke="#434447" stroke-width="0.711383" stroke-miterlimit="10"/>
<path d="M177.026 394.625V447.972" stroke="#434447" stroke-width="0.711383" stroke-miterlimit="10"/>
<path d="M12.1849 202.951V395.095" stroke="#434447" stroke-width="0.711383" stroke-miterlimit="10"/>
<path d="M12.1849 125.056V192.717" stroke="#434447" stroke-width="0.711383" stroke-miterlimit="10"/>
<path d="M278.46 393.134V447.353" stroke="#434447" stroke-width="0.711383" stroke-miterlimit="10"/>
<path d="M278.46 8.9458V376.177" stroke="#434447" stroke-width="0.711383" stroke-miterlimit="10"/>
<path d="M266.43 435.432V447.353" stroke="#434447" stroke-width="0.711383" stroke-miterlimit="10"/>
<path d="M254.4 435.22V447.721" stroke="#434447" stroke-width="0.711383" stroke-miterlimit="10"/>
<path d="M315.875 143.673L323.744 149.021" stroke="#434447" stroke-width="0.711383" stroke-miterlimit="10"/>
<path d="M290.506 126.415L299.991 132.866" stroke="#434447" stroke-width="0.711383" stroke-miterlimit="10"/>
<path d="M315.808 162.602L323.911 167.772" stroke="#434447" stroke-width="0.711383" stroke-miterlimit="10"/>
<path d="M290.523 146.475L299.802 152.397" stroke="#434447" stroke-width="0.711383" stroke-miterlimit="10"/>
<path d="M315.758 181.554L323.622 186.239" stroke="#434447" stroke-width="0.711383" stroke-miterlimit="10"/>
<path d="M290.54 166.541L299.79 172.05" stroke="#434447" stroke-width="0.711383" stroke-miterlimit="10"/>
<path d="M315.78 200.55L323.872 205.023" stroke="#434447" stroke-width="0.711383" stroke-miterlimit="10"/>
<path d="M290.562 186.606L299.623 191.62" stroke="#434447" stroke-width="0.711383" stroke-miterlimit="10"/>
<path d="M315.574 219.428L323.766 223.606" stroke="#434447" stroke-width="0.711383" stroke-miterlimit="10"/>
<path d="M290.579 206.672L300.125 211.54" stroke="#434447" stroke-width="0.711383" stroke-miterlimit="10"/>
<path d="M315.563 238.413L324.006 242.369" stroke="#434447" stroke-width="0.711383" stroke-miterlimit="10"/>
<path d="M290.596 226.738L299.718 231.005" stroke="#434447" stroke-width="0.711383" stroke-miterlimit="10"/>
<path d="M315.468 257.37L323.566 260.813" stroke="#434447" stroke-width="0.711383" stroke-miterlimit="10"/>
<path d="M290.612 246.803L299.919 250.758" stroke="#434447" stroke-width="0.711383" stroke-miterlimit="10"/>
<path d="M315.368 276.333L323.566 279.47" stroke="#434447" stroke-width="0.711383" stroke-miterlimit="10"/>
<path d="M290.635 266.869L299.69 270.334" stroke="#434447" stroke-width="0.711383" stroke-miterlimit="10"/>
<path d="M315.234 295.296L323.839 298.22" stroke="#434447" stroke-width="0.711383" stroke-miterlimit="10"/>
<path d="M290.651 286.934L299.557 289.965" stroke="#434447" stroke-width="0.711383" stroke-miterlimit="10"/>
<path d="M315.006 314.242L323.755 316.843" stroke="#434447" stroke-width="0.711383" stroke-miterlimit="10"/>
<path d="M290.668 306.994L299.323 309.574" stroke="#434447" stroke-width="0.711383" stroke-miterlimit="10"/>
<path d="M315.463 333.377L323.761 335.494" stroke="#434447" stroke-width="0.711383" stroke-miterlimit="10"/>
<path d="M290.685 327.06L299.434 329.294" stroke="#434447" stroke-width="0.711383" stroke-miterlimit="10"/>
<path d="M315.362 352.362L323.861 354.167" stroke="#434447" stroke-width="0.711383" stroke-miterlimit="10"/>
<path d="M290.701 347.125L299.679 349.031" stroke="#434447" stroke-width="0.711383" stroke-miterlimit="10"/>
<path d="M315.457 371.391L323.844 372.812" stroke="#434447" stroke-width="0.711383" stroke-miterlimit="10"/>
<path d="M290.724 367.191L299.657 368.706" stroke="#434447" stroke-width="0.711383" stroke-miterlimit="10"/>
<path d="M315.067 409.372L323.677 410.102" stroke="#434447" stroke-width="0.711383" stroke-miterlimit="10"/>
<path d="M290.757 407.322L299.802 408.085" stroke="#434447" stroke-width="0.711383" stroke-miterlimit="10"/>
<path d="M315.062 428.402L323.683 428.758" stroke="#434447" stroke-width="0.711383" stroke-miterlimit="10"/>
<path d="M290.774 427.388L299.629 427.755" stroke="#434447" stroke-width="0.711383" stroke-miterlimit="10"/>
<path d="M24.9721 114.984V142.018" stroke="#434447" stroke-width="0.711383" stroke-miterlimit="10"/>
<path d="M7.81302 447.426L0.656433 447.404" stroke="white" stroke-width="1.06708" stroke-miterlimit="10"/>
<path d="M242.371 396.359V447.476" stroke="white" stroke-width="1.06708" stroke-miterlimit="10"/>
<path d="M242.371 32.0977V379.998" stroke="white" stroke-width="1.06708" stroke-miterlimit="10"/>
<path d="M135.774 32.4818L0.728821 133.306" stroke="white" stroke-width="1.06708" stroke-miterlimit="10"/>
<path d="M166.138 9.8147L152.526 19.9756" stroke="white" stroke-width="1.06708" stroke-miterlimit="10"/>
<path d="M242.371 32.0974L166.138 9.8147L164.333 11.1684" stroke="white" stroke-width="1.06708" stroke-miterlimit="10"/>
<path d="M316.237 25.4294L395.327 99.7647" stroke="white" stroke-width="1.06708" stroke-miterlimit="10"/>
<path d="M290.49 1.23035L299.763 9.94847" stroke="white" stroke-width="1.06708" stroke-miterlimit="10"/>
<path d="M253.705 24.8278L242.371 32.0975L241.313 31.7855" stroke="white" stroke-width="1.06708" stroke-miterlimit="10"/>
<path d="M291.364 2.05481L290.49 1.23035L273.475 12.1433" stroke="white" stroke-width="1.06708" stroke-miterlimit="10"/>
<path d="M437.397 92.3278L504.096 158.953" stroke="white" stroke-width="1.06708" stroke-miterlimit="10"/>
<path d="M437.397 166.546V92.3278" stroke="white" stroke-width="1.06708" stroke-miterlimit="10"/>
<path d="M437.397 390.543V178.512" stroke="white" stroke-width="1.06708" stroke-miterlimit="10"/>
<path d="M437.397 474.46V404.364" stroke="white" stroke-width="1.06708" stroke-miterlimit="10"/>
<path d="M395.327 99.7646L437.397 92.3278L439.012 93.9321" stroke="white" stroke-width="1.06708" stroke-miterlimit="10"/>
<path d="M395.327 404.91V473.257" stroke="white" stroke-width="1.06708" stroke-miterlimit="10"/>
<path d="M395.327 182.45V391.212" stroke="white" stroke-width="1.06708" stroke-miterlimit="10"/>
<path d="M395.327 99.7645V170.239" stroke="white" stroke-width="1.06708" stroke-miterlimit="10"/>
<path d="M166.138 394.37V480.192" stroke="white" stroke-width="1.06708" stroke-miterlimit="10"/>
<path d="M166.138 376.544L166.127 9.8313" stroke="white" stroke-width="1.06708" stroke-miterlimit="10"/>
<path d="M0.723206 471.218L7.8965 471.775V474.75L120.926 480.193L121.605 480.226L133.134 475.575L165.971 480.193L242.371 474.583L290.49 480.193L395.327 473.257L437.397 474.461L504.096 468.394" stroke="white" stroke-width="1.06708" stroke-miterlimit="10"/>
<path d="M504.096 468.394V158.953L502.625 157.499" stroke="white" stroke-width="1.06708" stroke-miterlimit="10"/>
<path d="M290.49 1.25256V480.192" stroke="white" stroke-width="1.06708" stroke-miterlimit="10"/>
<path d="M2.2214 471.335L0.728821 471.218V133.306L2.16014 132.236" stroke="white" stroke-width="1.06708" stroke-miterlimit="10"/>
<path d="M24.8942 196.126V392.721" stroke="white" stroke-width="1.06708" stroke-miterlimit="10"/>
<path d="M125.382 123.54V71.0477L24.8942 141.355V185.108" stroke="white" stroke-width="1.06708" stroke-miterlimit="10"/>
<path d="M125.381 381.53V138.375" stroke="white" stroke-width="1.06708" stroke-miterlimit="10"/>
<path d="M395.165 170.445V116.471L323.883 52.525V116.326" stroke="white" stroke-width="1.06708" stroke-miterlimit="10"/>
<path d="M395.165 182.701V170.446" stroke="white" stroke-width="1.06708" stroke-miterlimit="10"/>
<path d="M395.165 391.457V182.701" stroke="white" stroke-width="1.06708" stroke-miterlimit="10"/>
<path d="M395.165 405.395V391.457" stroke="white" stroke-width="1.06708" stroke-miterlimit="10"/>
<path d="M323.883 131.974V430.274L395.165 433.237V405.395" stroke="white" stroke-width="1.06708" stroke-miterlimit="10"/>
<path d="M497.635 214.738V168.34L445.657 118.332V173.075" stroke="white" stroke-width="1.06708" stroke-miterlimit="10"/>
<path d="M497.635 400.927V225.835" stroke="white" stroke-width="1.06708" stroke-miterlimit="10"/>
<path d="M445.657 405.701V434.012L497.635 436.151V412.537" stroke="white" stroke-width="1.06708" stroke-miterlimit="10"/>
<path d="M445.657 184.796V391.697" stroke="white" stroke-width="1.06708" stroke-miterlimit="10"/>
<path d="M166.138 447.916L133.056 447.81" stroke="white" stroke-width="1.06708" stroke-miterlimit="10"/>
<path d="M166.138 447.916L242.371 447.353" stroke="white" stroke-width="1.06708" stroke-miterlimit="10"/>
<path d="M290.796 447.454L242.371 447.353" stroke="white" stroke-width="1.06708" stroke-miterlimit="10"/>
<path d="M437.397 447.454L395.327 447.353" stroke="white" stroke-width="1.06708" stroke-miterlimit="10"/>
<path d="M290.796 447.454L395.327 447.353" stroke="white" stroke-width="1.06708" stroke-miterlimit="10"/>
<path d="M437.397 447.454L504.096 447.353" stroke="white" stroke-width="1.06708" stroke-miterlimit="10"/>
<path d="M242.371 474.666V447.476" stroke="white" stroke-width="1.06708" stroke-miterlimit="10"/>
<path d="M137.094 435.304H154.42L152.226 17.1237L136.108 29.5351L137.094 435.304Z" stroke="#FFC700" stroke-width="1.06708" stroke-miterlimit="10"/>
<path d="M140.369 414.174L150.599 413.35" stroke="#FFC700" stroke-width="1.06708" stroke-miterlimit="10"/>
<path d="M140.307 395.156L150.527 394.014" stroke="#FFC700" stroke-width="1.06708" stroke-miterlimit="10"/>
<path d="M140.123 376.138L150.338 374.673" stroke="#FFC700" stroke-width="1.06708" stroke-miterlimit="10"/>
<path d="M140.346 357.12L150.549 355.331" stroke="#FFC700" stroke-width="1.06708" stroke-miterlimit="10"/>
<path d="M140.224 338.101L150.421 335.995" stroke="#FFC700" stroke-width="1.06708" stroke-miterlimit="10"/>
<path d="M140.274 319.083L150.46 316.654" stroke="#FFC700" stroke-width="1.06708" stroke-miterlimit="10"/>
<path d="M139.917 300.009L150.093 297.257" stroke="#FFC700" stroke-width="1.06708" stroke-miterlimit="10"/>
<path d="M140.085 281.046L150.254 277.977" stroke="#FFC700" stroke-width="1.06708" stroke-miterlimit="10"/>
<path d="M139.906 262.028L150.059 258.635" stroke="#FFC700" stroke-width="1.06708" stroke-miterlimit="10"/>
<path d="M139.839 243.009L149.987 239.299" stroke="#FFC700" stroke-width="1.06708" stroke-miterlimit="10"/>
<path d="M139.828 223.991L149.97 219.958" stroke="#FFC700" stroke-width="1.06708" stroke-miterlimit="10"/>
<path d="M139.589 204.917L149.719 200.561" stroke="#FFC700" stroke-width="1.06708" stroke-miterlimit="10"/>
<path d="M139.639 185.954L149.764 181.281" stroke="#FFC700" stroke-width="1.06708" stroke-miterlimit="10"/>
<path d="M139.578 166.825L149.686 161.822" stroke="#FFC700" stroke-width="1.06708" stroke-miterlimit="10"/>
<path d="M139.277 147.918L149.708 142.559" stroke="#FFC700" stroke-width="1.06708" stroke-miterlimit="10"/>
<path d="M139.271 128.899L149.708 123.195" stroke="#FFC700" stroke-width="1.06708" stroke-miterlimit="10"/>
<path d="M139.26 109.881L149.346 103.921" stroke="#FFC700" stroke-width="1.06708" stroke-miterlimit="10"/>
<path d="M139.255 90.8628L149.329 84.5791" stroke="#FFC700" stroke-width="1.06708" stroke-miterlimit="10"/>
<path d="M139.249 71.8443L149.313 65.243" stroke="#FFC700" stroke-width="1.06708" stroke-miterlimit="10"/>
<path d="M144.579 46.2974L145.904 430.937" stroke="#FFC700" stroke-width="1.06708" stroke-miterlimit="10"/>
<path d="M149.391 42.8656L139.093 50.2523L140.419 430.914H150.716L149.391 42.8656Z" stroke="#FFC700" stroke-width="1.06708" stroke-miterlimit="10"/>
<path d="M137.027 397.228L133.178 397.59V387.441L120.803 381.992L136.921 380.093" stroke="#FFC700" stroke-width="1.06708" stroke-miterlimit="10"/>
<path d="M154.091 378.071L165.971 376.672V394.493L154.297 395.596" stroke="#FFC700" stroke-width="1.06708" stroke-miterlimit="10"/>
<path d="M299.562 376.327L290.384 374.895L273.414 376.767" stroke="#FFC700" stroke-width="1.06708" stroke-miterlimit="10"/>
<path d="M315.184 395.284L395.327 405.1L437.241 404.275L504.068 413.188V401.635L437.241 390.243L395.165 391.234L315.24 378.773" stroke="#FFC700" stroke-width="1.06708" stroke-miterlimit="10"/>
<path d="M273.448 393.607L290.222 392.226L299.551 393.368" stroke="#FFC700" stroke-width="1.06708" stroke-miterlimit="10"/>
<path d="M255.041 378.795L242.532 380.176L165.971 376.672V394.493L242.203 396.186L254.991 395.134" stroke="#FFC700" stroke-width="1.06708" stroke-miterlimit="10"/>
<path d="M254.033 124.916L242.036 130.793L165.971 114.906L152.799 122.46" stroke="#FFC700" stroke-width="1.06708" stroke-miterlimit="10"/>
<path d="M299.913 114.516L289.894 107.358L273.598 115.335" stroke="#FFC700" stroke-width="1.06708" stroke-miterlimit="10"/>
<path d="M315.613 109.937L395.288 170.446L437.409 166.362L504.124 219.835V230.81L437.074 177.994L395.288 182.618L315.641 125.747" stroke="#FFC700" stroke-width="1.06708" stroke-miterlimit="10"/>
<path d="M273.458 98.6003L289.894 90.4003L299.896 97.9987" stroke="#FFC700" stroke-width="1.06708" stroke-miterlimit="10"/>
<path d="M152.782 106.5L165.971 98.4054L242.036 114.287L253.999 108.321" stroke="#FFC700" stroke-width="1.06708" stroke-miterlimit="10"/>
<path d="M136.258 116.644L0.728805 199.675L0.712097 209.619L136.219 131.969" stroke="#FFC700" stroke-width="1.06708" stroke-miterlimit="10"/>
<path d="M254.601 435.343H273.537V8.8457L253.916 21.636L254.601 435.343Z" stroke="#FFC700" stroke-width="1.06708" stroke-miterlimit="10"/>
<path d="M259.936 412.938L269.677 412.113" stroke="#FFC700" stroke-width="1.06708" stroke-miterlimit="10"/>
<path d="M259.847 393.529L269.577 392.382" stroke="#FFC700" stroke-width="1.06708" stroke-miterlimit="10"/>
<path d="M259.752 374.121L269.476 372.656" stroke="#FFC700" stroke-width="1.06708" stroke-miterlimit="10"/>
<path d="M259.658 354.713L269.371 352.925" stroke="#FFC700" stroke-width="1.06708" stroke-miterlimit="10"/>
<path d="M259.569 335.305L269.271 333.193" stroke="#FFC700" stroke-width="1.06708" stroke-miterlimit="10"/>
<path d="M259.474 315.891L269.17 313.462" stroke="#FFC700" stroke-width="1.06708" stroke-miterlimit="10"/>
<path d="M259.38 296.482L269.065 293.73" stroke="#FFC700" stroke-width="1.06708" stroke-miterlimit="10"/>
<path d="M259.285 277.074L269.593 274.116" stroke="#FFC700" stroke-width="1.06708" stroke-miterlimit="10"/>
<path d="M259.196 257.666L269.599 254.474" stroke="#FFC700" stroke-width="1.06708" stroke-miterlimit="10"/>
<path d="M259.101 238.258L269.577 234.882" stroke="#FFC700" stroke-width="1.06708" stroke-miterlimit="10"/>
<path d="M259.006 218.849L269.627 214.861" stroke="#FFC700" stroke-width="1.06708" stroke-miterlimit="10"/>
<path d="M258.912 199.436L269.638 195.118" stroke="#FFC700" stroke-width="1.06708" stroke-miterlimit="10"/>
<path d="M258.823 180.027L269.605 175.404" stroke="#FFC700" stroke-width="1.06708" stroke-miterlimit="10"/>
<path d="M258.728 160.619L269.655 155.639" stroke="#FFC700" stroke-width="1.06708" stroke-miterlimit="10"/>
<path d="M258.633 141.211L269.599 135.629" stroke="#FFC700" stroke-width="1.06708" stroke-miterlimit="10"/>
<path d="M258.538 121.803L269.71 115.669" stroke="#FFC700" stroke-width="1.06708" stroke-miterlimit="10"/>
<path d="M258.449 102.388L269.616 96.9459" stroke="#FFC700" stroke-width="1.06708" stroke-miterlimit="10"/>
<path d="M258.355 82.9803L269.616 77.3595" stroke="#FFC700" stroke-width="1.06708" stroke-miterlimit="10"/>
<path d="M258.26 63.5721L269.493 57.1212" stroke="#FFC700" stroke-width="1.06708" stroke-miterlimit="10"/>
<path d="M264.325 38.0748L265.138 429.555" stroke="#FFC700" stroke-width="1.06708" stroke-miterlimit="10"/>
<path d="M269.593 35.2283L258.171 42.0189L260.114 429.839H269.593V35.2283Z" stroke="#FFC700" stroke-width="1.06708" stroke-miterlimit="10"/>
<path d="M299.957 8.32764L299.634 436.502H315.134L316.125 23.3128L299.957 8.32764Z" stroke="#FFC700" stroke-width="1.06708" stroke-miterlimit="10"/>
<path d="M311.753 412.319L303.711 411.422" stroke="#FFC700" stroke-width="1.06708" stroke-miterlimit="10"/>
<path d="M311.787 392.961L303.705 391.68" stroke="#FFC700" stroke-width="1.06708" stroke-miterlimit="10"/>
<path d="M311.82 373.603L303.705 371.943" stroke="#FFC700" stroke-width="1.06708" stroke-miterlimit="10"/>
<path d="M311.848 354.245L303.705 352.2" stroke="#FFC700" stroke-width="1.06708" stroke-miterlimit="10"/>
<path d="M311.881 334.887L303.7 332.463" stroke="#FFC700" stroke-width="1.06708" stroke-miterlimit="10"/>
<path d="M308.183 38.9496L307.376 430.279" stroke="#FFC700" stroke-width="1.06708" stroke-miterlimit="10"/>
<path d="M311.915 315.529L303.7 312.727" stroke="#FFC700" stroke-width="1.06708" stroke-miterlimit="10"/>
<path d="M311.948 296.171L303.695 292.984" stroke="#FFC700" stroke-width="1.06708" stroke-miterlimit="10"/>
<path d="M311.976 276.812L303.695 273.247" stroke="#FFC700" stroke-width="1.06708" stroke-miterlimit="10"/>
<path d="M312.01 257.454L303.689 253.504" stroke="#FFC700" stroke-width="1.06708" stroke-miterlimit="10"/>
<path d="M312.394 238.096L303.689 233.768" stroke="#FFC700" stroke-width="1.06708" stroke-miterlimit="10"/>
<path d="M312.511 218.676L303.689 214.031" stroke="#FFC700" stroke-width="1.06708" stroke-miterlimit="10"/>
<path d="M312.511 199.285L303.683 194.288" stroke="#FFC700" stroke-width="1.06708" stroke-miterlimit="10"/>
<path d="M312.683 180.06L303.683 174.551" stroke="#FFC700" stroke-width="1.06708" stroke-miterlimit="10"/>
<path d="M312.745 160.48L303.678 154.809" stroke="#FFC700" stroke-width="1.06708" stroke-miterlimit="10"/>
<path d="M312.845 141.272L303.678 135.072" stroke="#FFC700" stroke-width="1.06708" stroke-miterlimit="10"/>
<path d="M312.951 122.003L303.672 115.329" stroke="#FFC700" stroke-width="1.06708" stroke-miterlimit="10"/>
<path d="M313.012 102.84L303.672 95.5924" stroke="#FFC700" stroke-width="1.06708" stroke-miterlimit="10"/>
<path d="M313.096 83.2198L303.672 75.8553" stroke="#FFC700" stroke-width="1.06708" stroke-miterlimit="10"/>
<path d="M313.135 64.179L303.667 56.1127" stroke="#FFC700" stroke-width="1.06708" stroke-miterlimit="10"/>
<path d="M303.578 34.3928L313.24 42.9884L311.592 430.279H303.578V34.3928Z" stroke="#FFC700" stroke-width="1.06708" stroke-miterlimit="10"/>
<path d="M120.926 381.87L133.134 387.212V475.597L121.45 480.287" stroke="#FFC700" stroke-width="1.06708" stroke-miterlimit="10"/>
<path d="M120.926 480.193V381.87L7.89642 395.607V474.75L120.926 480.193Z" stroke="#FFC700" stroke-width="1.06708" stroke-miterlimit="10"/>
<path d="M114.738 476.07L12.0233 471.736V409.968L114.738 399.941V476.07Z" stroke="#FFC700" stroke-width="1.06708" stroke-miterlimit="10"/>
<path d="M87.265 474.906L28.7314 472.26V393.078L87.265 385.959V474.906Z" stroke="#FFC700" stroke-width="1.06708" stroke-miterlimit="10"/>
<path d="M87.2649 474.906L114.738 476.071V471.213H87.2649V474.906Z" stroke="#FFC700" stroke-width="1.06708" stroke-miterlimit="10"/>
<path d="M114.733 465.319H94.4104V471.207H114.733V465.319Z" stroke="#FFC700" stroke-width="1.06708" stroke-miterlimit="10"/>
<path d="M114.733 459.592H100.876V465.319H114.733V459.592Z" stroke="#FFC700" stroke-width="1.06708" stroke-miterlimit="10"/>
<path d="M114.733 455.169H107.27V459.592H114.733V455.169Z" stroke="#FFC700" stroke-width="1.06708" stroke-miterlimit="10"/>
<path d="M12.0233 471.736L28.7313 472.26V469.553H12.0233V471.736Z" stroke="#FFC700" stroke-width="1.06708" stroke-miterlimit="10"/>
<path d="M28.7258 464.701H17.0914V469.553H28.7258V464.701Z" stroke="#FFC700" stroke-width="1.06708" stroke-miterlimit="10"/>
<path d="M28.7258 459.982H21.6806V464.701H28.7258V459.982Z" stroke="#FFC700" stroke-width="1.06708" stroke-miterlimit="10"/>
<path d="M28.7313 456.339H26.2195V459.982H28.7313V456.339Z" stroke="#FFC700" stroke-width="1.06708" stroke-miterlimit="10"/>
<path d="M33.5934 472.41L82.403 474.706L82.3974 470.433H33.5934V472.41Z" stroke="#FFC700" stroke-width="1.06708" stroke-miterlimit="10"/>
<path d="M82.403 464.829H44.0137V470.433H82.403V464.829Z" stroke="#FFC700" stroke-width="1.06708" stroke-miterlimit="10"/>
<path d="M82.3975 459.381H58.8949V464.829H82.3975V459.381Z" stroke="#FFC700" stroke-width="1.06708" stroke-miterlimit="10"/>
<path d="M82.3973 455.169H68.5074V459.381H82.3973V455.169Z" stroke="#FFC700" stroke-width="1.06708" stroke-miterlimit="10"/>
<path d="M82.403 474.705L33.5934 472.41V407.863L82.403 403.189V474.705Z" stroke="#FFC700" stroke-width="1.06708" stroke-miterlimit="10"/>
<path d="M242.371 379.998V396.359" stroke="#FFC700" stroke-width="1.06708" stroke-miterlimit="10"/>
<path d="M437.397 178.512V166.546" stroke="#FFC700" stroke-width="1.06708" stroke-miterlimit="10"/>
<path d="M437.397 404.364V390.544" stroke="#FFC700" stroke-width="1.06708" stroke-miterlimit="10"/>
<path d="M213.327 58.7702C213.494 56.6589 213.577 55.6005 213.745 53.4725C211.851 52.1467 210.899 51.4726 208.999 50.1301C210.732 53.6118 211.6 55.3275 213.327 58.7702ZM199.404 47.4673C197.488 47.8015 196.535 47.9687 194.619 48.3196C194.77 50.6092 194.848 51.7512 194.998 54.0351L199.404 47.4673ZM199.754 63.7671L204.126 67.9563C205.875 67.1764 206.749 66.792 208.498 66.0233C205.001 65.1208 203.252 64.664 199.754 63.7671V63.7671ZM204.126 46.6707C206.087 48.0689 207.061 48.7653 209.022 50.1524C207.095 46.2529 206.131 44.2809 204.199 40.2923C202.283 43.1779 201.319 44.6095 199.404 47.4673L204.126 46.6707ZM212.887 64.1014L208.498 66.0233C212.397 67.0316 214.357 67.5329 218.261 68.4967C216.29 64.6306 215.298 62.6864 213.327 58.7702C213.182 60.8982 213.065 61.9734 212.887 64.1014V64.1014ZM195.36 59.5446C195.21 57.3441 195.137 56.2467 194.993 54.0407C193.049 56.943 192.08 58.397 190.136 61.3383C193.973 62.2798 195.895 62.77 199.732 63.7616L195.36 59.5446ZM204.121 35.3956C192.86 39.8188 186.232 50.7039 185.742 62.6029C190.353 67.5051 197.722 70.179 204.121 71.7666C209.601 73.137 217.17 74.5074 222.5 71.7666C222.093 57.9513 213.967 44.6987 204.126 35.3956H204.121ZM212.937 72.7192C209.412 70.8308 207.646 69.8782 204.121 67.9619C200.59 68.0677 198.824 68.1234 195.293 68.2683L190.136 61.3439C189.173 58.1296 188.688 56.5197 187.73 53.2942C190.481 51.2777 191.863 50.2861 194.614 48.3252C195.355 45.0608 195.728 43.4286 196.468 40.1307C199.559 40.1864 201.102 40.2254 204.193 40.2978C207.223 41.9356 208.738 42.7545 211.767 44.37C212.564 48.0522 212.965 49.8738 213.761 53.4837C216.462 56.8261 217.81 58.4973 220.511 61.8063C219.609 64.4858 219.152 65.8227 218.25 68.4911L212.937 72.7192Z" fill="#FFC700"/>
<path d="M175.433 73.6438L176.101 73.7775C176.453 73.8545 176.811 73.8993 177.171 73.9111C177.365 73.9142 177.557 73.8662 177.728 73.7719C177.903 73.6712 178.047 73.5249 178.145 73.3485C178.267 73.111 178.324 72.8461 178.312 72.5798C178.323 72.2018 178.22 71.8294 178.017 71.5102C177.841 71.2263 177.588 70.9983 177.288 70.8528C176.897 70.7152 176.494 70.6163 176.085 70.5576L174.414 70.2345V75.4319L175.439 75.6269L175.433 73.6438ZM175.433 71.2874L175.929 71.3876C176.18 71.4279 176.428 71.4875 176.67 71.5659C176.835 71.631 176.98 71.741 177.087 71.8834C177.196 72.0276 177.253 72.2042 177.249 72.3848C177.26 72.5283 177.218 72.6709 177.132 72.7859C177.093 72.8365 177.044 72.8788 176.989 72.9104C176.933 72.942 176.872 72.9621 176.809 72.9697C176.537 72.9895 176.265 72.965 176.001 72.8973L175.444 72.7859L175.433 71.2874ZM178.329 78.273C176.926 77.9833 176.224 77.8441 174.815 77.5767V78.1337C174.821 78.878 174.783 79.622 174.704 80.362C174.655 80.8789 174.513 81.3827 174.286 81.8494L173.868 81.7714V83.8047L174.726 83.9662V82.7908C176.007 83.0359 176.647 83.1641 177.923 83.4203V84.5734L178.758 84.7406V82.7073L178.329 82.6181V78.273ZM177.31 82.412L175.377 82.0332C175.715 80.9299 175.856 79.7761 175.795 78.624L177.31 78.9248V82.412ZM195.277 80.0835C195.575 80.1822 195.893 80.2085 196.204 80.1601C196.515 80.1116 196.81 79.9899 197.064 79.8049C197.961 78.8746 197.961 77.2647 197.064 75.9055C196.611 75.3379 195.976 74.9443 195.266 74.7913C194.903 74.6899 194.523 74.6671 194.152 74.7245C193.913 74.7723 193.689 74.8775 193.5 75.0309C193.298 75.1892 193.134 75.3911 193.021 75.6213C192.849 76.0178 192.769 76.4484 192.787 76.8803C192.766 77.6333 193.004 78.3708 193.461 78.9693C193.916 79.5427 194.559 79.9372 195.277 80.0835V80.0835ZM194.246 75.8442C194.573 75.6466 194.963 75.5826 195.335 75.6657C195.708 75.7487 196.034 75.9723 196.246 76.2898L196.285 76.34C196.56 76.7569 196.694 77.2506 196.669 77.7494C196.69 77.9733 196.666 78.1992 196.599 78.4136C196.531 78.628 196.42 78.8265 196.274 78.9972C195.966 79.199 195.591 79.2723 195.23 79.2015C194.869 79.1308 194.55 78.9214 194.341 78.6184L194.257 78.5125C193.997 78.1194 193.858 77.6583 193.858 77.1867C193.858 76.7152 193.997 76.254 194.257 75.8609L194.246 75.8442ZM229.979 83.1418L228.954 82.9245V87.9381L229.979 88.1498V83.1418ZM217.253 85.1751C217.491 85.1345 217.706 85.01 217.86 84.8241C218.043 84.5913 218.135 84.3007 218.122 84.0052C218.123 83.5752 217.975 83.158 217.704 82.8242C217.336 82.4195 216.841 82.1522 216.301 82.0666L214.925 81.738V79.7437L213.884 79.4874V84.5512L216.284 85.1082C216.603 85.1878 216.933 85.2104 217.259 85.1751H217.253ZM214.903 83.8994V82.5513L215.95 82.802C216.26 82.8565 216.554 82.9824 216.808 83.1696C216.888 83.2384 216.952 83.3239 216.995 83.4202C217.038 83.5165 217.06 83.6211 217.058 83.7267C217.065 83.7968 217.056 83.8675 217.031 83.9333C217.006 83.9991 216.966 84.058 216.913 84.1055C216.87 84.149 216.817 84.1833 216.76 84.2062C216.703 84.2292 216.641 84.2404 216.579 84.2392C216.352 84.2285 216.126 84.193 215.905 84.1334L214.903 83.8994ZM219.993 83.7267L222.004 84.1891V86.4173L223.029 86.6457V81.6321L222.004 81.3982V83.3702L219.993 82.9078V80.9302L218.969 80.6907V85.7321L219.993 85.9717V83.7267ZM233.104 83.5039C233.23 83.539 233.362 83.5472 233.491 83.528C233.621 83.5088 233.745 83.4626 233.855 83.3925C233.958 83.3146 234.041 83.2145 234.099 83.0996C234.157 82.9847 234.188 82.8582 234.19 82.7295L233.716 82.6404C233.714 82.7054 233.697 82.769 233.666 82.8261C233.635 82.8832 233.591 82.9322 233.538 82.9691C233.408 83.0328 233.26 83.0467 233.12 83.0081C232.964 82.981 232.819 82.9094 232.703 82.802C232.603 82.6911 232.544 82.5497 232.535 82.4009L232.056 82.3062C232.075 82.5931 232.188 82.8659 232.377 83.0824C232.566 83.2988 232.822 83.447 233.104 83.5039V83.5039ZM183.041 76.3065C181.894 76.0559 181.314 75.9333 180.161 75.6938V74.2677C181.186 74.4794 181.699 74.5908 182.718 74.8247V73.9557L180.161 73.3986V72.2455C181.275 72.4795 181.832 72.5965 182.907 72.8416V71.9948C181.409 71.6606 180.679 71.499 179.153 71.1871V76.3734C180.702 76.6909 181.476 76.858 183.024 77.1923L183.041 76.3065ZM199.598 78.7911L201.609 79.2813V81.5096L202.634 81.7602V76.6742L201.57 76.4068V78.4123L199.559 77.922V75.9389L198.535 75.6882V80.8077L199.559 81.0583C199.582 80.1447 199.587 79.6935 199.604 78.7911H199.598ZM191.038 75.6269V78.9693L191.996 79.1922V74.0671L190.938 73.8164C190.114 74.9807 189.702 75.5656 188.883 76.7411V73.3318L187.925 73.109V78.273L188.95 78.507C189.791 77.3594 190.209 76.7801 191.044 75.6269H191.038ZM184.951 73.2984L187.374 73.8554V73.0087C185.993 72.6912 185.308 72.5352 183.926 72.2288V77.404L184.951 77.6268V73.2984ZM207.128 82.8744L208.242 83.1473L206.204 77.5767L205.118 77.3093C204.327 79.142 203.931 80.0612 203.135 81.9218L204.249 82.1836L204.667 81.1252L206.699 81.621L207.128 82.8744ZM204.967 80.323L205.652 78.6072C205.936 79.4261 206.076 79.8384 206.354 80.6684L204.967 80.323ZM228.102 87.1304C228.272 86.8703 228.363 86.5664 228.363 86.2558C228.363 85.9452 228.272 85.6412 228.102 85.3812C227.941 85.1127 227.718 84.8871 227.451 84.7239C227.16 84.5611 226.847 84.4446 226.521 84.3785L225.145 84.0777V82.0945L224.12 81.8661V86.8797L226.521 87.4034C226.835 87.4849 227.16 87.515 227.484 87.4925C227.729 87.4524 227.951 87.3235 228.108 87.1304H228.102ZM227.161 86.4341C227.069 86.5207 226.948 86.5686 226.821 86.5678C226.596 86.5628 226.371 86.531 226.153 86.4731L225.156 86.2558V84.9188L226.198 85.1472C226.512 85.1962 226.81 85.3204 227.066 85.5093C227.146 85.5781 227.208 85.6639 227.25 85.7604C227.291 85.8569 227.311 85.9615 227.306 86.0664C227.309 86.1349 227.297 86.2033 227.271 86.2668C227.245 86.3302 227.206 86.3873 227.155 86.4341H227.161ZM224.878 91.0522L222.867 90.6121V88.6233L221.842 88.3894V93.5255L222.867 93.7539V91.5257L224.878 91.9713V94.1996L225.908 94.4168V89.3085L224.878 89.0857V91.0522ZM218.194 90.3892L220.751 90.9463V90.1051C219.726 89.8767 219.219 89.7598 218.194 89.5202V88.3671L220.94 88.9966V88.1944C219.436 87.8546 218.712 87.6819 217.186 87.3309V92.4727C218.729 92.8292 219.498 93.0297 221.04 93.3528V92.5061L218.2 91.8599C218.194 91.2583 218.194 90.9797 218.194 90.3892ZM180.496 81.6098L183.046 82.1669V81.3035L180.485 80.7464V79.5654C181.598 79.7938 182.155 79.9108 183.23 80.1225V79.2813C181.726 78.9526 181.002 78.7966 179.476 78.4847V83.7378C181.014 84.0554 181.788 84.2169 183.325 84.5456V83.6821L180.485 83.0805L180.496 81.6098ZM216.039 87.0803L215.014 86.8407V91.1023L213.026 90.6344V86.3672L211.996 86.1221V91.2805L215.61 92.1273V93.2414L216.446 93.4308V91.4254L216.028 91.3307C216.034 89.6093 216.034 88.7515 216.039 87.0803ZM234.145 85.7377V89.0133L235.103 89.1971V84.1835L234.084 83.9885C233.259 85.1472 232.847 85.7321 232.023 86.902V83.5596L231.065 83.3646V88.3782L232.09 88.5843L234.145 85.7377ZM226.548 90.2667L228.058 90.5842V94.8402L229.082 95.0519V90.8015L230.592 91.1134V90.2778C228.977 89.9492 228.169 89.782 226.554 89.4311L226.548 90.2667ZM234.813 91.6594C234.634 91.38 234.379 91.1577 234.078 91.0187C233.683 90.8744 233.274 90.7699 232.858 90.7068L231.216 90.3781V95.4864L232.263 95.6981V93.7651L232.931 93.8932C233.28 93.9747 233.636 94.0214 233.995 94.0325C234.189 94.0267 234.379 93.9772 234.552 93.8876C234.73 93.7912 234.875 93.6438 234.969 93.4643C235.092 93.2312 235.152 92.97 235.142 92.7067C235.148 92.3389 235.043 91.9779 234.841 91.6705L234.813 91.6594ZM233.928 92.8961C233.89 92.9465 233.842 92.9888 233.788 93.0204C233.733 93.052 233.673 93.0722 233.61 93.0799C233.337 93.1008 233.062 93.0744 232.797 93.0019L232.24 92.8961V91.4477L232.736 91.5479C232.985 91.5889 233.231 91.6484 233.471 91.7262C233.638 91.7838 233.784 91.8906 233.889 92.0326C233.983 92.1506 234.038 92.2952 234.046 92.446C234.054 92.5969 234.015 92.7464 233.933 92.8738L233.928 92.8961ZM191.311 81.0249C190.948 80.928 190.568 80.9109 190.197 80.9748C189.954 81.0205 189.727 81.1301 189.54 81.2923C189.338 81.4535 189.176 81.6595 189.067 81.8939C188.897 82.301 188.817 82.74 188.833 83.1808C188.808 83.9419 189.044 84.6888 189.501 85.2976C189.95 85.8728 190.59 86.2681 191.306 86.4118C191.607 86.5071 191.928 86.5291 192.239 86.4758C192.551 86.4225 192.846 86.2955 193.099 86.1054C193.99 85.1528 193.99 83.5094 193.099 82.1446C192.66 81.5737 192.032 81.177 191.328 81.0249H191.311ZM192.33 85.2921C192.196 85.4132 192.032 85.4973 191.856 85.5364C191.679 85.5754 191.495 85.568 191.322 85.5149C190.929 85.416 190.584 85.1812 190.348 84.852C190.058 84.4285 189.913 83.9221 189.936 83.4092C189.911 83.1842 189.933 82.9567 189.999 82.7402C190.065 82.5238 190.174 82.3231 190.32 82.1502C190.462 82.0374 190.63 81.9612 190.809 81.9282C190.987 81.8952 191.171 81.9064 191.345 81.9608C191.756 82.0459 192.119 82.2826 192.364 82.6237C192.619 83.0271 192.754 83.4946 192.754 83.9718C192.754 84.449 192.619 84.9165 192.364 85.3199L192.33 85.2921ZM197.85 85.0915C198.06 85.0455 198.246 84.9248 198.373 84.7517C198.505 84.5731 198.572 84.355 198.563 84.1334C198.565 83.9102 198.511 83.69 198.407 83.4927C198.312 83.2962 198.179 83.1202 198.017 82.9747C197.865 82.8274 197.685 82.7118 197.488 82.6348C197.196 82.5239 196.896 82.4363 196.591 82.373L194.553 81.8884V87.0803L196.285 87.4869C196.696 87.601 197.115 87.6885 197.538 87.7487C197.771 87.7837 198.01 87.7548 198.228 87.6652C198.41 87.5667 198.554 87.4123 198.641 87.2251C198.748 87.0247 198.806 86.8009 198.808 86.5733C198.808 86.2728 198.721 85.9787 198.557 85.7266C198.385 85.4594 198.147 85.2407 197.866 85.0915H197.85ZM195.583 82.9858L196.173 83.1251L197.048 83.3368C197.202 83.3871 197.337 83.4821 197.438 83.6097C197.523 83.734 197.568 83.8821 197.566 84.0331C197.572 84.1019 197.561 84.1712 197.535 84.2351C197.509 84.2991 197.468 84.3558 197.415 84.4008C197.355 84.4424 197.287 84.4717 197.215 84.487C197.144 84.5023 197.07 84.5033 196.998 84.4899L196.257 84.3116L195.583 84.1556V82.9858ZM197.61 86.6903C197.559 86.7344 197.5 86.7675 197.436 86.7876C197.372 86.8078 197.304 86.8144 197.237 86.8073C196.998 86.7838 196.761 86.7391 196.53 86.6736L195.583 86.4508V85.0525L196.413 85.2531C196.728 85.313 197.034 85.4103 197.326 85.5427C197.457 85.6184 197.566 85.7257 197.644 85.8547C197.719 85.9852 197.759 86.133 197.761 86.2836C197.763 86.3571 197.751 86.4304 197.725 86.4992C197.7 86.5681 197.66 86.6311 197.61 86.6847V86.6903ZM184.478 82.5513V83.4426C184.478 83.6766 184.439 83.8158 184.372 83.8493C184.236 83.8939 184.09 83.8939 183.954 83.8493L183.726 83.7991V84.618L184.377 84.8018C184.627 84.8816 184.898 84.8637 185.135 84.7517C185.218 84.6884 185.288 84.6089 185.339 84.5179C185.391 84.4269 185.424 84.3264 185.436 84.2225C185.487 83.7807 185.507 83.3358 185.497 82.8911V80.6628L187.028 81.0082V85.3533L188.037 85.5817V80.3954L184.478 79.5988V82.5513ZM207.006 84.1111C206.847 84.0746 206.702 83.9934 206.588 83.8771C206.489 83.7593 206.43 83.6129 206.421 83.4593L205.92 83.3423C205.939 83.6468 206.054 83.9374 206.248 84.1724C206.447 84.3955 206.71 84.5528 207 84.6236C207.124 84.6634 207.256 84.676 207.386 84.6606C207.515 84.6452 207.64 84.6022 207.752 84.5344C207.853 84.4544 207.936 84.353 207.993 84.2374C208.051 84.1219 208.083 83.9951 208.086 83.866L207.613 83.7378C207.613 83.8033 207.597 83.8679 207.567 83.9261C207.537 83.9843 207.494 84.0344 207.44 84.0721C207.371 84.1012 207.297 84.1162 207.223 84.1162C207.148 84.1162 207.074 84.1012 207.006 84.0721V84.1111ZM205.942 88.0607V84.6347L204.978 84.4008V89.5815L206.009 89.8266C206.827 88.6568 207.24 88.0774 208.064 86.9187V90.3224L209.022 90.5508V85.409L207.991 85.1584C207.189 86.2948 206.777 86.8853 205.942 88.0607ZM201.726 83.515C201.363 83.4146 200.983 83.3937 200.612 83.4537C200.369 83.499 200.141 83.6043 199.949 83.7601C199.75 83.9193 199.587 84.1186 199.47 84.345C199.3 84.748 199.22 85.1835 199.236 85.6207C199.214 86.3807 199.452 87.1254 199.91 87.732C200.93 88.9241 202.483 89.2974 203.503 88.5899C204.399 87.6485 204.399 86.0218 203.503 84.6514C203.056 84.0667 202.417 83.6599 201.698 83.5039L201.726 83.515ZM202.745 87.771C202.609 87.8888 202.445 87.97 202.268 88.007C202.092 88.0441 201.909 88.0357 201.737 87.9827C201.326 87.881 200.966 87.6336 200.723 87.2864C200.466 86.8869 200.329 86.4218 200.329 85.9466C200.329 85.4714 200.466 85.0063 200.723 84.6069C200.865 84.4933 201.034 84.4174 201.213 84.3863C201.392 84.3551 201.576 84.3697 201.748 84.4286C202.159 84.5182 202.522 84.7562 202.767 85.0971C203.022 85.4975 203.157 85.9622 203.157 86.4368C203.157 86.9114 203.022 87.3762 202.767 87.7766L202.745 87.771ZM212.77 84.2559V79.2033L209.2 78.3231V82.0666C209.2 82.295 209.161 82.4232 209.089 82.4566C208.953 82.5037 208.806 82.5037 208.671 82.4566L208.454 82.4064V83.1808C208.773 83.2848 208.99 83.3516 209.105 83.3813C209.349 83.477 209.619 83.477 209.863 83.3813C209.947 83.324 210.017 83.2488 210.069 83.1613C210.121 83.0737 210.153 82.9757 210.163 82.8744C210.215 82.4475 210.235 82.0174 210.225 81.5876V79.4261L211.756 79.7994V84.0164L212.77 84.2559Z" fill="#FFC700"/>
</svg>
