<svg version="1.1" id="Capa_1" xmlns="http://www.w3.org/2000/svg" x="0" y="0" width="307.046" height="307.046" xml:space="preserve"><path fill="#fff" d="M281.828 142.427L144.002 4.597c-6.129-6.129-16.07-6.129-22.199 0l-11.101 11.101c-6.133 6.133-6.133 16.076 0 22.201l92.071 92.077H36.321c-8.668 0-15.701 7.035-15.701 15.701v15.699c0 8.664 7.033 15.701 15.701 15.701h166.445l-92.063 92.059c-6.133 6.136-6.133 16.086 0 22.209l11.101 11.101c6.129 6.136 16.07 6.136 22.199 0l137.826-137.831c6.13-6.128 6.13-16.059-.001-22.188z" id="_x34_88._Forward"/></svg>